<ttFont>
    <TTGlyph name=".notdef" xMin="174" yMin="0" xMax="1016" yMax="1462">
      <contour>
        <pt x="174" y="1462" on="1"/>
        <pt x="1016" y="1462" on="1"/>
        <pt x="1016" y="0" on="1"/>
        <pt x="174" y="0" on="1"/>
      </contour>
      <contour>
        <pt x="279" y="104" on="1"/>
        <pt x="911" y="104" on="1"/>
        <pt x="911" y="1358" on="1"/>
        <pt x="279" y="1358" on="1"/>
      </contour>
    </TTGlyph>
    <TTGlyph name="A" xMin="0" yMin="0" xMax="1487" yMax="1468">
      <contour>
        <pt x="1055" y="0" on="1"/>
        <pt x="983" y="274" on="1"/>
        <pt x="508" y="274" on="1"/>
        <pt x="434" y="0" on="1"/>
        <pt x="0" y="0" on="1"/>
        <pt x="477" y="1468" on="1"/>
        <pt x="1004" y="1468" on="1"/>
        <pt x="1487" y="0" on="1"/>
      </contour>
      <contour>
        <pt x="901" y="598" on="1"/>
        <pt x="838" y="838" on="1"/>
        <pt x="816" y="918" on="0"/>
        <pt x="753" y="1172" on="0"/>
        <pt x="743" y="1227" on="1"/>
        <pt x="734" y="1176" on="0"/>
        <pt x="681" y="942" on="0"/>
        <pt x="590" y="598" on="1"/>
      </contour>
    </TTGlyph>
    <TTGlyph name="AE" xMin="-10" yMin="0" xMax="1839" yMax="1462">
      <contour>
        <pt x="1839" y="0" on="1"/>
        <pt x="969" y="0" on="1"/>
        <pt x="969" y="274" on="1"/>
        <pt x="532" y="274" on="1"/>
        <pt x="432" y="0" on="1"/>
        <pt x="-10" y="0" on="1"/>
        <pt x="618" y="1462" on="1"/>
        <pt x="1839" y="1462" on="1"/>
        <pt x="1839" y="1145" on="1"/>
        <pt x="1366" y="1145" on="1"/>
        <pt x="1366" y="915" on="1"/>
        <pt x="1804" y="915" on="1"/>
        <pt x="1804" y="598" on="1"/>
        <pt x="1366" y="598" on="1"/>
        <pt x="1366" y="322" on="1"/>
        <pt x="1839" y="322" on="1"/>
      </contour>
      <contour>
        <pt x="653" y="602" on="1"/>
        <pt x="969" y="602" on="1"/>
        <pt x="969" y="1128" on="1"/>
        <pt x="858" y="1128" on="1"/>
      </contour>
    </TTGlyph>
    <TTGlyph name="AEacute" xMin="-10" yMin="0" xMax="1839" yMax="1907">
      <component glyphName="AE" x="0" y="0" flags="0x204"/>
      <component glyphName="acute" x="664" y="338" flags="0x4"/>
    </TTGlyph>
    <TTGlyph name="Aacute" xMin="0" yMin="0" xMax="1487" yMax="1907">
      <component glyphName="A" x="0" y="0" flags="0x204"/>
      <component glyphName="acute" x="268" y="338" flags="0x4"/>
    </TTGlyph>
    <TTGlyph name="Abreve" xMin="0" yMin="0" xMax="1487" yMax="1950">
      <component glyphName="A" x="0" y="0" flags="0x204"/>
      <component glyphName="breve" x="131" y="338" flags="0x4"/>
    </TTGlyph>
    <TTGlyph name="Acircumflex" xMin="0" yMin="0" xMax="1487" yMax="1907">
      <component glyphName="A" x="0" y="0" flags="0x204"/>
      <component glyphName="circumflex" x="131" y="338" flags="0x4"/>
    </TTGlyph>
    <TTGlyph name="Adieresis" xMin="0" yMin="0" xMax="1487" yMax="1909">
      <component glyphName="A" x="0" y="0" flags="0x204"/>
      <component glyphName="dieresis" x="129" y="338" flags="0x4"/>
    </TTGlyph>
    <TTGlyph name="Agrave" xMin="0" yMin="0" xMax="1487" yMax="1907">
      <component glyphName="A" x="0" y="0" flags="0x204"/>
      <component glyphName="grave" x="8" y="338" flags="0x4"/>
    </TTGlyph>
    <TTGlyph name="Alpha" xMin="0" yMin="0" xMax="1487" yMax="1468">
      <component glyphName="A" x="0" y="0" flags="0x204"/>
    </TTGlyph>
    <TTGlyph name="Alphatonos" xMin="-80" yMin="0" xMax="1514" yMax="1523">
      <component glyphName="A" x="27" y="0" flags="0x4"/>
      <component glyphName="tonos" x="-486" y="-105" flags="0x4"/>
    </TTGlyph>
    <TTGlyph name="Amacron" xMin="0" yMin="0" xMax="1487" yMax="1815">
      <component glyphName="A" x="0" y="0" flags="0x204"/>
      <component glyphName="macron" x="129" y="338" flags="0x4"/>
    </TTGlyph>
    <TTGlyph name="Aogonek" xMin="0" yMin="-492" xMax="1487" yMax="1468">
      <component glyphName="A" x="0" y="0" flags="0x204"/>
      <component glyphName="ogonek" x="889" y="0" flags="0x4"/>
    </TTGlyph>
    <TTGlyph name="Aring" xMin="0" yMin="0" xMax="1487" yMax="1868">
      <component glyphName="A" x="0" y="0" flags="0x204"/>
      <component glyphName="ring" x="182" y="125" flags="0x4"/>
    </TTGlyph>
    <TTGlyph name="Aringacute" xMin="0" yMin="0" xMax="1487" yMax="1962">
      <contour>
        <pt x="1012" y="1483" on="1"/>
        <pt x="1012" y="1428" on="0"/>
        <pt x="993" y="1386" on="1"/>
        <pt x="1004" y="1386" on="1"/>
        <pt x="1487" y="0" on="1"/>
        <pt x="1055" y="0" on="1"/>
        <pt x="977" y="274" on="1"/>
        <pt x="508" y="274" on="1"/>
        <pt x="434" y="0" on="1"/>
        <pt x="0" y="0" on="1"/>
        <pt x="477" y="1386" on="1"/>
        <pt x="489" y="1386" on="1"/>
        <pt x="475" y="1427" on="0"/>
        <pt x="475" y="1481" on="1"/>
        <pt x="475" y="1597" on="0"/>
        <pt x="619" y="1735" on="0"/>
        <pt x="739" y="1735" on="1"/>
        <pt x="858" y="1735" on="0"/>
        <pt x="1012" y="1593" on="0"/>
      </contour>
      <contour>
        <pt x="895" y="602" on="1"/>
        <pt x="831" y="811" on="1"/>
        <pt x="809" y="882" on="0"/>
        <pt x="753" y="1093" on="0"/>
        <pt x="743" y="1147" on="1"/>
        <pt x="733" y="1091" on="0"/>
        <pt x="700" y="961" on="0"/>
        <pt x="596" y="602" on="1"/>
      </contour>
      <contour>
        <pt x="571" y="1815" on="1"/>
        <pt x="607" y="1838" on="0"/>
        <pt x="711" y="1924" on="0"/>
        <pt x="745" y="1962" on="1"/>
        <pt x="1176" y="1962" on="1"/>
        <pt x="1176" y="1942" on="1"/>
        <pt x="1147" y="1915" on="0"/>
        <pt x="910" y="1814" on="0"/>
        <pt x="831" y="1790" on="1"/>
        <pt x="571" y="1790" on="1"/>
      </contour>
      <contour>
        <pt x="823" y="1481" on="1"/>
        <pt x="823" y="1519" on="0"/>
        <pt x="774" y="1565" on="0"/>
        <pt x="739" y="1565" on="1"/>
        <pt x="704" y="1565" on="0"/>
        <pt x="655" y="1519" on="0"/>
        <pt x="655" y="1481" on="1"/>
        <pt x="655" y="1444" on="0"/>
        <pt x="697" y="1397" on="0"/>
        <pt x="739" y="1397" on="1"/>
        <pt x="774" y="1397" on="0"/>
        <pt x="823" y="1444" on="0"/>
      </contour>
      <contour>
        <pt x="739" y="1462" on="1"/>
      </contour>
    </TTGlyph>
    <TTGlyph name="Atilde" xMin="0" yMin="0" xMax="1487" yMax="1919">
      <component glyphName="A" x="0" y="0" flags="0x204"/>
      <component glyphName="tilde" x="154" y="338" flags="0x4"/>
    </TTGlyph>
    <TTGlyph name="B" xMin="158" yMin="0" xMax="1284" yMax="1462">
      <contour>
        <pt x="158" y="1462" on="1"/>
        <pt x="668" y="1462" on="1"/>
        <pt x="966" y="1462" on="0"/>
        <pt x="1255" y="1285" on="0"/>
        <pt x="1255" y="1098" on="1"/>
        <pt x="1255" y="975" on="0"/>
        <pt x="1129" y="801" on="0"/>
        <pt x="1026" y="776" on="1"/>
        <pt x="1026" y="766" on="1"/>
        <pt x="1162" y="730" on="0"/>
        <pt x="1284" y="562" on="0"/>
        <pt x="1284" y="428" on="1"/>
        <pt x="1284" y="229" on="0"/>
        <pt x="985" y="0" on="0"/>
        <pt x="727" y="0" on="1"/>
        <pt x="158" y="0" on="1"/>
      </contour>
      <contour>
        <pt x="553" y="901" on="1"/>
        <pt x="672" y="901" on="1"/>
        <pt x="757" y="901" on="0"/>
        <pt x="850" y="971" on="0"/>
        <pt x="850" y="1040" on="1"/>
        <pt x="850" y="1163" on="0"/>
        <pt x="664" y="1163" on="1"/>
        <pt x="553" y="1163" on="1"/>
      </contour>
      <contour>
        <pt x="553" y="612" on="1"/>
        <pt x="553" y="305" on="1"/>
        <pt x="692" y="305" on="1"/>
        <pt x="877" y="305" on="0"/>
        <pt x="877" y="461" on="1"/>
        <pt x="877" y="534" on="0"/>
        <pt x="778" y="612" on="0"/>
        <pt x="684" y="612" on="1"/>
      </contour>
    </TTGlyph>
    <TTGlyph name="Beta" xMin="158" yMin="0" xMax="1284" yMax="1462">
      <component glyphName="B" x="0" y="0" flags="0x204"/>
    </TTGlyph>
    <TTGlyph name="C" xMin="104" yMin="-20" xMax="1266" yMax="1483">
      <contour>
        <pt x="809" y="1159" on="1"/>
        <pt x="668" y="1159" on="0"/>
        <pt x="510" y="928" on="0"/>
        <pt x="510" y="725" on="1"/>
        <pt x="510" y="303" on="0"/>
        <pt x="831" y="303" on="1"/>
        <pt x="928" y="303" on="0"/>
        <pt x="1110" y="357" on="0"/>
        <pt x="1202" y="395" on="1"/>
        <pt x="1202" y="61" on="1"/>
        <pt x="1019" y="-20" on="0"/>
        <pt x="788" y="-20" on="1"/>
        <pt x="457" y="-20" on="0"/>
        <pt x="104" y="364" on="0"/>
        <pt x="104" y="727" on="1"/>
        <pt x="104" y="954" on="0"/>
        <pt x="275" y="1298" on="0"/>
        <pt x="596" y="1483" on="0"/>
        <pt x="813" y="1483" on="1"/>
        <pt x="1050" y="1483" on="0"/>
        <pt x="1266" y="1380" on="1"/>
        <pt x="1145" y="1069" on="1"/>
        <pt x="1064" y="1107" on="0"/>
        <pt x="902" y="1159" on="0"/>
      </contour>
    </TTGlyph>
    <TTGlyph name="Cacute" xMin="104" yMin="-20" xMax="1266" yMax="1907">
      <component glyphName="C" x="0" y="0" flags="0x204"/>
      <component glyphName="acute" x="287" y="338" flags="0x4"/>
    </TTGlyph>
    <TTGlyph name="Ccaron" xMin="104" yMin="-20" xMax="1266" yMax="1907">
      <component glyphName="C" x="0" y="0" flags="0x204"/>
      <component glyphName="caron" x="162" y="338" flags="0x4"/>
    </TTGlyph>
    <TTGlyph name="Ccedilla" xMin="104" yMin="-492" xMax="1266" yMax="1483">
      <component glyphName="C" x="0" y="0" flags="0x204"/>
      <component glyphName="cedilla" x="567" y="0" flags="0x4"/>
    </TTGlyph>
    <TTGlyph name="Ccircumflex" xMin="104" yMin="-20" xMax="1266" yMax="1907">
      <component glyphName="C" x="0" y="0" flags="0x204"/>
      <component glyphName="circumflex" x="170" y="338" flags="0x4"/>
    </TTGlyph>
    <TTGlyph name="Cdot" xMin="104" yMin="-20" xMax="1266" yMax="1927">
      <component glyphName="C" x="0" y="0" flags="0x204"/>
      <component glyphName="dotaccent" x="434" y="338" flags="0x4"/>
    </TTGlyph>
    <TTGlyph name="Chi" xMin="4" yMin="0" xMax="1475" yMax="1462">
      <component glyphName="X" x="0" y="0" flags="0x204"/>
    </TTGlyph>
    <TTGlyph name="D" xMin="158" yMin="0" xMax="1399" yMax="1462">
      <contour>
        <pt x="1399" y="762" on="1"/>
        <pt x="1399" y="396" on="0"/>
        <pt x="996" y="0" on="0"/>
        <pt x="631" y="0" on="1"/>
        <pt x="158" y="0" on="1"/>
        <pt x="158" y="1462" on="1"/>
        <pt x="664" y="1462" on="1"/>
        <pt x="1016" y="1462" on="0"/>
        <pt x="1399" y="1102" on="0"/>
      </contour>
      <contour>
        <pt x="989" y="748" on="1"/>
        <pt x="989" y="949" on="0"/>
        <pt x="830" y="1143" on="0"/>
        <pt x="668" y="1143" on="1"/>
        <pt x="553" y="1143" on="1"/>
        <pt x="553" y="324" on="1"/>
        <pt x="641" y="324" on="1"/>
        <pt x="821" y="324" on="0"/>
        <pt x="989" y="533" on="0"/>
      </contour>
    </TTGlyph>
    <TTGlyph name="Dcaron" xMin="158" yMin="0" xMax="1399" yMax="1907">
      <component glyphName="D" x="0" y="0" flags="0x204"/>
      <component glyphName="caron" x="111" y="338" flags="0x4"/>
    </TTGlyph>
    <TTGlyph name="Dcroat" xMin="31" yMin="0" xMax="1399" yMax="1462">
      <component glyphName="Eth" x="0" y="0" flags="0x204"/>
    </TTGlyph>
    <TTGlyph name="Delta" xMin="33" yMin="0" xMax="1413" yMax="1473">
      <contour>
        <pt x="33" y="223" on="1"/>
        <pt x="492" y="1473" on="1"/>
        <pt x="958" y="1473" on="1"/>
        <pt x="1413" y="221" on="1"/>
        <pt x="1413" y="0" on="1"/>
        <pt x="33" y="0" on="1"/>
      </contour>
      <contour>
        <pt x="723" y="1161" on="1"/>
        <pt x="711" y="1079" on="0"/>
        <pt x="692" y="1018" on="1"/>
        <pt x="465" y="324" on="1"/>
        <pt x="983" y="324" on="1"/>
        <pt x="756" y="1018" on="1"/>
        <pt x="736" y="1074" on="0"/>
      </contour>
    </TTGlyph>
    <TTGlyph name="E" xMin="158" yMin="0" xMax="1026" yMax="1462">
      <contour>
        <pt x="1026" y="0" on="1"/>
        <pt x="158" y="0" on="1"/>
        <pt x="158" y="1462" on="1"/>
        <pt x="1026" y="1462" on="1"/>
        <pt x="1026" y="1145" on="1"/>
        <pt x="553" y="1145" on="1"/>
        <pt x="553" y="915" on="1"/>
        <pt x="991" y="915" on="1"/>
        <pt x="991" y="598" on="1"/>
        <pt x="553" y="598" on="1"/>
        <pt x="553" y="322" on="1"/>
        <pt x="1026" y="322" on="1"/>
      </contour>
    </TTGlyph>
    <TTGlyph name="Eacute" xMin="158" yMin="0" xMax="1054" yMax="1907">
      <component glyphName="E" x="0" y="0" flags="0x204"/>
      <component glyphName="acute" x="98" y="338" flags="0x4"/>
    </TTGlyph>
    <TTGlyph name="Ebreve" xMin="158" yMin="0" xMax="1026" yMax="1950">
      <component glyphName="E" x="0" y="0" flags="0x204"/>
      <component glyphName="breve" x="-40" y="338" flags="0x4"/>
    </TTGlyph>
    <TTGlyph name="Ecaron" xMin="136" yMin="0" xMax="1043" yMax="1907">
      <component glyphName="E" x="0" y="0" flags="0x204"/>
      <component glyphName="caron" x="-28" y="338" flags="0x4"/>
    </TTGlyph>
    <TTGlyph name="Ecircumflex" xMin="151" yMin="0" xMax="1058" yMax="1907">
      <component glyphName="E" x="0" y="0" flags="0x204"/>
      <component glyphName="circumflex" x="-13" y="338" flags="0x4"/>
    </TTGlyph>
    <TTGlyph name="Edieresis" xMin="158" yMin="0" xMax="1026" yMax="1909">
      <component glyphName="E" x="0" y="0" flags="0x204"/>
      <component glyphName="dieresis" x="-36" y="338" flags="0x4"/>
    </TTGlyph>
    <TTGlyph name="Edotaccent" xMin="158" yMin="0" xMax="1026" yMax="1898">
      <component glyphName="E" x="0" y="0" flags="0x204"/>
      <component glyphName="dotaccent" x="260" y="309" flags="0x4"/>
    </TTGlyph>
    <TTGlyph name="Egrave" xMin="154" yMin="0" xMax="1026" yMax="1907">
      <component glyphName="E" x="0" y="0" flags="0x204"/>
      <component glyphName="grave" x="-110" y="338" flags="0x4"/>
    </TTGlyph>
    <TTGlyph name="Emacron" xMin="158" yMin="0" xMax="1026" yMax="1815">
      <component glyphName="E" x="0" y="0" flags="0x204"/>
      <component glyphName="macron" x="-17" y="338" flags="0x4"/>
    </TTGlyph>
    <TTGlyph name="Eng" xMin="158" yMin="-489" xMax="1550" yMax="1462">
      <contour>
        <pt x="1028" y="-489" on="1"/>
        <pt x="900" y="-489" on="0"/>
        <pt x="805" y="-469" on="1"/>
        <pt x="805" y="-162" on="1"/>
        <pt x="843" y="-168" on="0"/>
        <pt x="926" y="-182" on="0"/>
        <pt x="977" y="-182" on="1"/>
        <pt x="1096" y="-182" on="0"/>
        <pt x="1211" y="-91" on="0"/>
        <pt x="1219" y="0" on="1"/>
        <pt x="498" y="1030" on="1"/>
        <pt x="489" y="1030" on="1"/>
        <pt x="508" y="840" on="0"/>
        <pt x="508" y="614" on="1"/>
        <pt x="508" y="0" on="1"/>
        <pt x="158" y="0" on="1"/>
        <pt x="158" y="1462" on="1"/>
        <pt x="633" y="1462" on="1"/>
        <pt x="1206" y="653" on="1"/>
        <pt x="1214" y="653" on="1"/>
        <pt x="1198" y="885" on="0"/>
        <pt x="1198" y="1075" on="1"/>
        <pt x="1198" y="1462" on="1"/>
        <pt x="1550" y="1462" on="1"/>
        <pt x="1550" y="-8" on="1"/>
        <pt x="1550" y="-233" on="0"/>
        <pt x="1270" y="-489" on="0"/>
      </contour>
    </TTGlyph>
    <TTGlyph name="Eogonek" xMin="158" yMin="-492" xMax="1026" yMax="1462">
      <component glyphName="E" x="0" y="0" flags="0x204"/>
      <component glyphName="ogonek" x="510" y="0" flags="0x4"/>
    </TTGlyph>
    <TTGlyph name="Epsilon" xMin="158" yMin="0" xMax="1026" yMax="1462">
      <component glyphName="E" x="0" y="0" flags="0x204"/>
    </TTGlyph>
    <TTGlyph name="Epsilontonos" xMin="-80" yMin="0" xMax="1251" yMax="1523">
      <component glyphName="E" x="225" y="0" flags="0x4"/>
      <component glyphName="tonos" x="-486" y="-105" flags="0x4"/>
    </TTGlyph>
    <TTGlyph name="Eta" xMin="158" yMin="0" xMax="1411" yMax="1462">
      <component glyphName="H" x="0" y="0" flags="0x204"/>
    </TTGlyph>
    <TTGlyph name="Etatonos" xMin="-80" yMin="0" xMax="1620" yMax="1523">
      <component glyphName="H" x="209" y="0" flags="0x4"/>
      <component glyphName="tonos" x="-486" y="-105" flags="0x4"/>
    </TTGlyph>
    <TTGlyph name="Eth" xMin="31" yMin="0" xMax="1399" yMax="1462">
      <contour>
        <pt x="1399" y="762" on="1"/>
        <pt x="1399" y="396" on="0"/>
        <pt x="996" y="0" on="0"/>
        <pt x="631" y="0" on="1"/>
        <pt x="158" y="0" on="1"/>
        <pt x="158" y="563" on="1"/>
        <pt x="31" y="563" on="1"/>
        <pt x="31" y="883" on="1"/>
        <pt x="158" y="883" on="1"/>
        <pt x="158" y="1462" on="1"/>
        <pt x="664" y="1462" on="1"/>
        <pt x="1016" y="1462" on="0"/>
        <pt x="1399" y="1102" on="0"/>
      </contour>
      <contour>
        <pt x="989" y="748" on="1"/>
        <pt x="989" y="949" on="0"/>
        <pt x="830" y="1143" on="0"/>
        <pt x="668" y="1143" on="1"/>
        <pt x="553" y="1143" on="1"/>
        <pt x="553" y="883" on="1"/>
        <pt x="764" y="883" on="1"/>
        <pt x="764" y="563" on="1"/>
        <pt x="553" y="563" on="1"/>
        <pt x="553" y="324" on="1"/>
        <pt x="641" y="324" on="1"/>
        <pt x="821" y="324" on="0"/>
        <pt x="989" y="533" on="0"/>
      </contour>
    </TTGlyph>
    <TTGlyph name="Euro" xMin="55" yMin="-20" xMax="1178" yMax="1483">
      <contour>
        <pt x="829" y="1159" on="1"/>
        <pt x="717" y="1159" on="0"/>
        <pt x="598" y="1052" on="0"/>
        <pt x="586" y="963" on="1"/>
        <pt x="924" y="963" on="1"/>
        <pt x="924" y="758" on="1"/>
        <pt x="571" y="758" on="1"/>
        <pt x="569" y="729" on="1"/>
        <pt x="569" y="715" on="1"/>
        <pt x="571" y="671" on="1"/>
        <pt x="571" y="672" on="1"/>
        <pt x="858" y="672" on="1"/>
        <pt x="858" y="467" on="1"/>
        <pt x="594" y="467" on="1"/>
        <pt x="627" y="303" on="0"/>
        <pt x="854" y="303" on="1"/>
        <pt x="999" y="303" on="0"/>
        <pt x="1120" y="358" on="1"/>
        <pt x="1120" y="35" on="1"/>
        <pt x="1018" y="-20" on="0"/>
        <pt x="829" y="-20" on="1"/>
        <pt x="576" y="-20" on="0"/>
        <pt x="258" y="232" on="0"/>
        <pt x="211" y="467" on="1"/>
        <pt x="55" y="467" on="1"/>
        <pt x="55" y="672" on="1"/>
        <pt x="184" y="672" on="1"/>
        <pt x="182" y="693" on="1"/>
        <pt x="182" y="715" on="1"/>
        <pt x="184" y="758" on="1"/>
        <pt x="55" y="758" on="1"/>
        <pt x="55" y="963" on="1"/>
        <pt x="203" y="963" on="1"/>
        <pt x="254" y="1218" on="0"/>
        <pt x="577" y="1483" on="0"/>
        <pt x="829" y="1483" on="1"/>
        <pt x="1009" y="1483" on="0"/>
        <pt x="1178" y="1407" on="1"/>
        <pt x="1059" y="1108" on="1"/>
        <pt x="939" y="1159" on="0"/>
      </contour>
    </TTGlyph>
    <TTGlyph name="F" xMin="158" yMin="0" xMax="1022" yMax="1462">
      <contour>
        <pt x="547" y="0" on="1"/>
        <pt x="158" y="0" on="1"/>
        <pt x="158" y="1462" on="1"/>
        <pt x="1022" y="1462" on="1"/>
        <pt x="1022" y="1145" on="1"/>
        <pt x="547" y="1145" on="1"/>
        <pt x="547" y="866" on="1"/>
        <pt x="985" y="866" on="1"/>
        <pt x="985" y="549" on="1"/>
        <pt x="547" y="549" on="1"/>
      </contour>
    </TTGlyph>
    <TTGlyph name="G" xMin="104" yMin="-20" xMax="1376" yMax="1483">
      <contour>
        <pt x="745" y="856" on="1"/>
        <pt x="1376" y="856" on="1"/>
        <pt x="1376" y="68" on="1"/>
        <pt x="1119" y="-20" on="0"/>
        <pt x="811" y="-20" on="1"/>
        <pt x="473" y="-20" on="0"/>
        <pt x="104" y="372" on="0"/>
        <pt x="104" y="735" on="1"/>
        <pt x="104" y="1089" on="0"/>
        <pt x="508" y="1483" on="0"/>
        <pt x="872" y="1483" on="1"/>
        <pt x="1010" y="1483" on="0"/>
        <pt x="1255" y="1431" on="0"/>
        <pt x="1346" y="1391" on="1"/>
        <pt x="1221" y="1081" on="1"/>
        <pt x="1063" y="1159" on="0"/>
        <pt x="874" y="1159" on="1"/>
        <pt x="701" y="1159" on="0"/>
        <pt x="512" y="934" on="0"/>
        <pt x="512" y="725" on="1"/>
        <pt x="512" y="520" on="0"/>
        <pt x="683" y="305" on="0"/>
        <pt x="844" y="305" on="1"/>
        <pt x="932" y="305" on="0"/>
        <pt x="1006" y="322" on="1"/>
        <pt x="1006" y="551" on="1"/>
        <pt x="745" y="551" on="1"/>
      </contour>
    </TTGlyph>
    <TTGlyph name="Gamma" xMin="158" yMin="0" xMax="1133" yMax="1462">
      <contour>
        <pt x="1133" y="1462" on="1"/>
        <pt x="1133" y="1143" on="1"/>
        <pt x="555" y="1143" on="1"/>
        <pt x="555" y="0" on="1"/>
        <pt x="158" y="0" on="1"/>
        <pt x="158" y="1462" on="1"/>
      </contour>
    </TTGlyph>
    <TTGlyph name="Gbreve" xMin="104" yMin="-20" xMax="1376" yMax="1950">
      <component glyphName="G" x="0" y="0" flags="0x204"/>
      <component glyphName="breve" x="158" y="338" flags="0x4"/>
    </TTGlyph>
    <TTGlyph name="Gcircumflex" xMin="104" yMin="-20" xMax="1376" yMax="1907">
      <component glyphName="G" x="0" y="0" flags="0x204"/>
      <component glyphName="circumflex" x="156" y="338" flags="0x4"/>
    </TTGlyph>
    <TTGlyph name="Gcommaaccent" xMin="104" yMin="-453" xMax="1376" yMax="1483">
      <component glyphName="G" x="0" y="0" flags="0x204"/>
      <component glyphName="commaaccent" x="291" y="0" flags="0x4"/>
    </TTGlyph>
    <TTGlyph name="Gdot" xMin="104" yMin="-20" xMax="1376" yMax="1927">
      <component glyphName="G" x="0" y="0" flags="0x204"/>
      <component glyphName="dotaccent" x="444" y="338" flags="0x4"/>
    </TTGlyph>
    <TTGlyph name="H" xMin="158" yMin="0" xMax="1411" yMax="1462">
      <contour>
        <pt x="1411" y="0" on="1"/>
        <pt x="1014" y="0" on="1"/>
        <pt x="1014" y="596" on="1"/>
        <pt x="555" y="596" on="1"/>
        <pt x="555" y="0" on="1"/>
        <pt x="158" y="0" on="1"/>
        <pt x="158" y="1462" on="1"/>
        <pt x="555" y="1462" on="1"/>
        <pt x="555" y="920" on="1"/>
        <pt x="1014" y="920" on="1"/>
        <pt x="1014" y="1462" on="1"/>
        <pt x="1411" y="1462" on="1"/>
      </contour>
    </TTGlyph>
    <TTGlyph name="Hbar" xMin="0" yMin="0" xMax="1602" yMax="1462">
      <contour>
        <pt x="174" y="1300" on="1"/>
        <pt x="174" y="1462" on="1"/>
        <pt x="569" y="1462" on="1"/>
        <pt x="569" y="1300" on="1"/>
        <pt x="1030" y="1300" on="1"/>
        <pt x="1030" y="1462" on="1"/>
        <pt x="1427" y="1462" on="1"/>
        <pt x="1427" y="1300" on="1"/>
        <pt x="1602" y="1300" on="1"/>
        <pt x="1602" y="1067" on="1"/>
        <pt x="1427" y="1067" on="1"/>
        <pt x="1427" y="0" on="1"/>
        <pt x="1030" y="0" on="1"/>
        <pt x="1030" y="596" on="1"/>
        <pt x="569" y="596" on="1"/>
        <pt x="569" y="0" on="1"/>
        <pt x="174" y="0" on="1"/>
        <pt x="174" y="1067" on="1"/>
        <pt x="0" y="1067" on="1"/>
        <pt x="0" y="1300" on="1"/>
      </contour>
      <contour>
        <pt x="1030" y="920" on="1"/>
        <pt x="1030" y="1067" on="1"/>
        <pt x="569" y="1067" on="1"/>
        <pt x="569" y="920" on="1"/>
      </contour>
    </TTGlyph>
    <TTGlyph name="Hcircumflex" xMin="158" yMin="0" xMax="1411" yMax="1907">
      <component glyphName="H" x="0" y="0" flags="0x204"/>
      <component glyphName="circumflex" x="162" y="338" flags="0x4"/>
    </TTGlyph>
    <TTGlyph name="I" xMin="158" yMin="0" xMax="555" yMax="1462">
      <contour>
        <pt x="158" y="0" on="1"/>
        <pt x="158" y="1462" on="1"/>
        <pt x="555" y="1462" on="1"/>
        <pt x="555" y="0" on="1"/>
      </contour>
    </TTGlyph>
    <TTGlyph name="I.alt" xMin="70" yMin="0" xMax="831" yMax="1462">
      <contour>
        <pt x="831" y="0" on="1"/>
        <pt x="70" y="0" on="1"/>
        <pt x="70" y="225" on="1"/>
        <pt x="252" y="295" on="1"/>
        <pt x="252" y="1169" on="1"/>
        <pt x="70" y="1237" on="1"/>
        <pt x="70" y="1462" on="1"/>
        <pt x="831" y="1462" on="1"/>
        <pt x="831" y="1237" on="1"/>
        <pt x="649" y="1169" on="1"/>
        <pt x="649" y="295" on="1"/>
        <pt x="831" y="225" on="1"/>
      </contour>
    </TTGlyph>
    <TTGlyph name="IJ" xMin="158" yMin="-459" xMax="1276" yMax="1462">
      <component glyphName="I" x="0" y="0" flags="0x4"/>
      <component glyphName="J" x="713" y="0" flags="0x4"/>
    </TTGlyph>
    <TTGlyph name="IJ.alt" xMin="70" yMin="-459" xMax="1444" yMax="1462">
      <component glyphName="I.alt" x="0" y="0" flags="0x4"/>
      <component glyphName="J" x="881" y="0" flags="0x4"/>
    </TTGlyph>
    <TTGlyph name="Iacute" xMin="156" yMin="0" xMax="848" yMax="1907">
      <component glyphName="I" x="0" y="0" flags="0x204"/>
      <component glyphName="acute" x="-108" y="338" flags="0x4"/>
    </TTGlyph>
    <TTGlyph name="Iacute.alt" xMin="70" yMin="0" xMax="943" yMax="1907">
      <component glyphName="I.alt" x="0" y="0" flags="0x204"/>
      <component glyphName="acute" x="-13" y="338" flags="0x4"/>
    </TTGlyph>
    <TTGlyph name="Ibreve" xMin="-44" yMin="0" xMax="765" yMax="1950">
      <component glyphName="I" x="0" y="0" flags="0x204"/>
      <component glyphName="breve" x="-253" y="338" flags="0x4"/>
    </TTGlyph>
    <TTGlyph name="Ibreve.alt" xMin="50" yMin="0" xMax="859" yMax="1950">
      <component glyphName="I.alt" x="0" y="0" flags="0x204"/>
      <component glyphName="breve" x="-159" y="338" flags="0x4"/>
    </TTGlyph>
    <TTGlyph name="Icircumflex" xMin="-95" yMin="0" xMax="812" yMax="1907">
      <component glyphName="I" x="0" y="0" flags="0x204"/>
      <component glyphName="circumflex" x="-259" y="338" flags="0x4"/>
    </TTGlyph>
    <TTGlyph name="Icircumflex.alt" xMin="-1" yMin="0" xMax="906" yMax="1907">
      <component glyphName="I.alt" x="0" y="0" flags="0x204"/>
      <component glyphName="circumflex" x="-165" y="338" flags="0x4"/>
    </TTGlyph>
    <TTGlyph name="Idieresis" xMin="-55" yMin="0" xMax="769" yMax="1909">
      <component glyphName="I" x="0" y="0" flags="0x204"/>
      <component glyphName="dieresis" x="-278" y="338" flags="0x4"/>
    </TTGlyph>
    <TTGlyph name="Idieresis.alt" xMin="40" yMin="0" xMax="864" yMax="1909">
      <component glyphName="I.alt" x="0" y="0" flags="0x204"/>
      <component glyphName="dieresis" x="-183" y="338" flags="0x4"/>
    </TTGlyph>
    <TTGlyph name="Idotaccent" xMin="147" yMin="0" xMax="563" yMax="1927">
      <component glyphName="I" x="0" y="0" flags="0x204"/>
      <component glyphName="dotaccent" x="20" y="338" flags="0x4"/>
    </TTGlyph>
    <TTGlyph name="Idotaccent.alt" xMin="70" yMin="0" xMax="831" yMax="1927">
      <component glyphName="I.alt" x="0" y="0" flags="0x204"/>
      <component glyphName="dotaccent" x="115" y="338" flags="0x4"/>
    </TTGlyph>
    <TTGlyph name="Igrave" xMin="-116" yMin="0" xMax="576" yMax="1907">
      <component glyphName="I" x="0" y="0" flags="0x204"/>
      <component glyphName="grave" x="-380" y="338" flags="0x4"/>
    </TTGlyph>
    <TTGlyph name="Igrave.alt" xMin="-22" yMin="0" xMax="831" yMax="1907">
      <component glyphName="I.alt" x="0" y="0" flags="0x204"/>
      <component glyphName="grave" x="-286" y="338" flags="0x4"/>
    </TTGlyph>
    <TTGlyph name="Imacron" xMin="-3" yMin="0" xMax="724" yMax="1815">
      <component glyphName="I" x="0" y="0" flags="0x204"/>
      <component glyphName="macron" x="-247" y="338" flags="0x4"/>
    </TTGlyph>
    <TTGlyph name="Imacron.alt" xMin="70" yMin="0" xMax="831" yMax="1815">
      <component glyphName="I.alt" x="0" y="0" flags="0x204"/>
      <component glyphName="macron" x="-153" y="338" flags="0x4"/>
    </TTGlyph>
    <TTGlyph name="Iogonek" xMin="88" yMin="-492" xMax="555" yMax="1462">
      <component glyphName="I" x="0" y="0" flags="0x204"/>
      <component glyphName="ogonek" x="94" y="0" flags="0x4"/>
    </TTGlyph>
    <TTGlyph name="Iogonek.alt" xMin="70" yMin="-492" xMax="831" yMax="1462">
      <component glyphName="I.alt" x="0" y="0" flags="0x204"/>
      <component glyphName="ogonek" x="188" y="0" flags="0x4"/>
    </TTGlyph>
    <TTGlyph name="Iota" xMin="158" yMin="0" xMax="555" yMax="1462">
      <component glyphName="I" x="0" y="0" flags="0x204"/>
    </TTGlyph>
    <TTGlyph name="Iota.alt" xMin="70" yMin="0" xMax="831" yMax="1462">
      <component glyphName="I.alt" x="0" y="0" flags="0x204"/>
    </TTGlyph>
    <TTGlyph name="Iotadieresis" xMin="-57" yMin="0" xMax="767" yMax="1909">
      <component glyphName="I" x="0" y="0" flags="0x204"/>
      <component glyphName="dieresis" x="-280" y="338" flags="0x4"/>
    </TTGlyph>
    <TTGlyph name="Iotadieresis.alt" xMin="38" yMin="0" xMax="862" yMax="1909">
      <component glyphName="I.alt" x="0" y="0" flags="0x204"/>
      <component glyphName="dieresis" x="-185" y="338" flags="0x4"/>
    </TTGlyph>
    <TTGlyph name="Iotatonos" xMin="-80" yMin="0" xMax="770" yMax="1523">
      <component glyphName="I" x="215" y="0" flags="0x4"/>
      <component glyphName="tonos" x="-486" y="-105" flags="0x4"/>
    </TTGlyph>
    <TTGlyph name="Iotatonos.alt" xMin="-80" yMin="0" xMax="1138" yMax="1523">
      <component glyphName="I.alt" x="307" y="0" flags="0x4"/>
      <component glyphName="tonos" x="-486" y="-105" flags="0x4"/>
    </TTGlyph>
    <TTGlyph name="Itilde" xMin="-63" yMin="0" xMax="779" yMax="1919">
      <component glyphName="I" x="0" y="0" flags="0x204"/>
      <component glyphName="tilde" x="-239" y="338" flags="0x4"/>
    </TTGlyph>
    <TTGlyph name="Itilde.alt" xMin="32" yMin="0" xMax="874" yMax="1919">
      <component glyphName="I.alt" x="0" y="0" flags="0x204"/>
      <component glyphName="tilde" x="-144" y="338" flags="0x4"/>
    </TTGlyph>
    <TTGlyph name="J" xMin="-162" yMin="-459" xMax="563" yMax="1462">
      <contour>
        <pt x="43" y="-459" on="1"/>
        <pt x="-65" y="-459" on="0"/>
        <pt x="-162" y="-438" on="1"/>
        <pt x="-162" y="-131" on="1"/>
        <pt x="-130" y="-137" on="0"/>
        <pt x="-58" y="-152" on="0"/>
        <pt x="-16" y="-152" on="1"/>
        <pt x="82" y="-152" on="0"/>
        <pt x="166" y="-34" on="0"/>
        <pt x="166" y="109" on="1"/>
        <pt x="166" y="1462" on="1"/>
        <pt x="563" y="1462" on="1"/>
        <pt x="563" y="143" on="1"/>
        <pt x="563" y="-154" on="0"/>
        <pt x="303" y="-459" on="0"/>
      </contour>
    </TTGlyph>
    <TTGlyph name="Jcircumflex" xMin="-162" yMin="-459" xMax="826" yMax="1907">
      <component glyphName="J" x="0" y="0" flags="0x204"/>
      <component glyphName="circumflex" x="-245" y="338" flags="0x4"/>
    </TTGlyph>
    <TTGlyph name="K" xMin="158" yMin="0" xMax="1415" yMax="1462">
      <contour>
        <pt x="1407" y="0" on="1"/>
        <pt x="961" y="0" on="1"/>
        <pt x="672" y="559" on="1"/>
        <pt x="555" y="489" on="1"/>
        <pt x="555" y="0" on="1"/>
        <pt x="158" y="0" on="1"/>
        <pt x="158" y="1462" on="1"/>
        <pt x="555" y="1462" on="1"/>
        <pt x="555" y="827" on="1"/>
        <pt x="585" y="886" on="0"/>
        <pt x="676" y="1014" on="1"/>
        <pt x="983" y="1462" on="1"/>
        <pt x="1415" y="1462" on="1"/>
        <pt x="954" y="807" on="1"/>
      </contour>
    </TTGlyph>
    <TTGlyph name="Kappa" xMin="158" yMin="0" xMax="1415" yMax="1462">
      <component glyphName="K" x="0" y="0" flags="0x204"/>
    </TTGlyph>
    <TTGlyph name="Kcommaaccent" xMin="158" yMin="-453" xMax="1415" yMax="1462">
      <component glyphName="K" x="0" y="0" flags="0x204"/>
      <component glyphName="commaaccent" x="184" y="0" flags="0x4"/>
    </TTGlyph>
    <TTGlyph name="L" xMin="158" yMin="0" xMax="1116" yMax="1462">
      <contour>
        <pt x="158" y="0" on="1"/>
        <pt x="158" y="1462" on="1"/>
        <pt x="553" y="1462" on="1"/>
        <pt x="553" y="319" on="1"/>
        <pt x="1116" y="319" on="1"/>
        <pt x="1116" y="0" on="1"/>
      </contour>
    </TTGlyph>
    <TTGlyph name="Lacute" xMin="158" yMin="0" xMax="1116" yMax="1907">
      <component glyphName="L" x="0" y="0" flags="0x204"/>
      <component glyphName="acute" x="4" y="338" flags="0x4"/>
    </TTGlyph>
    <TTGlyph name="Lambda" xMin="0" yMin="0" xMax="1421" yMax="1462">
      <contour>
        <pt x="442" y="0" on="1"/>
        <pt x="0" y="0" on="1"/>
        <pt x="479" y="1462" on="1"/>
        <pt x="944" y="1462" on="1"/>
        <pt x="1421" y="0" on="1"/>
        <pt x="977" y="0" on="1"/>
        <pt x="778" y="741" on="1"/>
        <pt x="759" y="817" on="0"/>
        <pt x="714" y="1037" on="0"/>
        <pt x="711" y="1085" on="1"/>
        <pt x="706" y="1034" on="0"/>
        <pt x="665" y="815" on="0"/>
        <pt x="645" y="745" on="1"/>
      </contour>
    </TTGlyph>
    <TTGlyph name="Lcaron" xMin="158" yMin="0" xMax="1141" yMax="1463">
      <component glyphName="L" x="0" y="0" flags="0x204"/>
      <component glyphName="caroncommaaccent" x="436" y="-93" flags="0x4"/>
    </TTGlyph>
    <TTGlyph name="Lcommaaccent" xMin="158" yMin="-453" xMax="1116" yMax="1462">
      <component glyphName="L" x="0" y="0" flags="0x204"/>
      <component glyphName="commaaccent" x="104" y="0" flags="0x4"/>
    </TTGlyph>
    <TTGlyph name="Ldot" xMin="158" yMin="0" xMax="1151" yMax="1462">
      <component glyphName="L" x="0" y="0" flags="0x204"/>
      <component glyphName="dotaccent" x="608" y="-652" flags="0x4"/>
    </TTGlyph>
    <TTGlyph name="Lslash" xMin="-31" yMin="0" xMax="1171" yMax="1462">
      <contour>
        <pt x="213" y="0" on="1"/>
        <pt x="213" y="481" on="1"/>
        <pt x="111" y="424" on="1"/>
        <pt x="-31" y="672" on="1"/>
        <pt x="213" y="817" on="1"/>
        <pt x="213" y="1462" on="1"/>
        <pt x="608" y="1462" on="1"/>
        <pt x="608" y="1061" on="1"/>
        <pt x="819" y="1192" on="1"/>
        <pt x="967" y="948" on="1"/>
        <pt x="608" y="725" on="1"/>
        <pt x="608" y="319" on="1"/>
        <pt x="1171" y="319" on="1"/>
        <pt x="1171" y="0" on="1"/>
      </contour>
    </TTGlyph>
    <TTGlyph name="M" xMin="158" yMin="0" xMax="1823" yMax="1462">
      <contour>
        <pt x="795" y="0" on="1"/>
        <pt x="496" y="1053" on="1"/>
        <pt x="487" y="1053" on="1"/>
        <pt x="508" y="784" on="0"/>
        <pt x="508" y="635" on="1"/>
        <pt x="508" y="0" on="1"/>
        <pt x="158" y="0" on="1"/>
        <pt x="158" y="1462" on="1"/>
        <pt x="684" y="1462" on="1"/>
        <pt x="989" y="424" on="1"/>
        <pt x="997" y="424" on="1"/>
        <pt x="1296" y="1462" on="1"/>
        <pt x="1823" y="1462" on="1"/>
        <pt x="1823" y="0" on="1"/>
        <pt x="1460" y="0" on="1"/>
        <pt x="1460" y="641" on="1"/>
        <pt x="1460" y="691" on="0"/>
        <pt x="1463" y="813" on="0"/>
        <pt x="1475" y="1051" on="1"/>
        <pt x="1466" y="1051" on="1"/>
        <pt x="1171" y="0" on="1"/>
      </contour>
    </TTGlyph>
    <TTGlyph name="Mu" xMin="158" yMin="0" xMax="1823" yMax="1462">
      <component glyphName="M" x="0" y="0" flags="0x204"/>
    </TTGlyph>
    <TTGlyph name="N" xMin="158" yMin="0" xMax="1550" yMax="1462">
      <contour>
        <pt x="1550" y="0" on="1"/>
        <pt x="1032" y="0" on="1"/>
        <pt x="498" y="1030" on="1"/>
        <pt x="489" y="1030" on="1"/>
        <pt x="508" y="787" on="0"/>
        <pt x="508" y="659" on="1"/>
        <pt x="508" y="0" on="1"/>
        <pt x="158" y="0" on="1"/>
        <pt x="158" y="1462" on="1"/>
        <pt x="674" y="1462" on="1"/>
        <pt x="1206" y="446" on="1"/>
        <pt x="1212" y="446" on="1"/>
        <pt x="1198" y="667" on="0"/>
        <pt x="1198" y="801" on="1"/>
        <pt x="1198" y="1462" on="1"/>
        <pt x="1550" y="1462" on="1"/>
      </contour>
    </TTGlyph>
    <TTGlyph name="Nacute" xMin="158" yMin="0" xMax="1550" yMax="1907">
      <component glyphName="N" x="0" y="0" flags="0x204"/>
      <component glyphName="acute" x="377" y="338" flags="0x4"/>
    </TTGlyph>
    <TTGlyph name="Ncaron" xMin="158" yMin="0" xMax="1550" yMax="1907">
      <component glyphName="N" x="0" y="0" flags="0x204"/>
      <component glyphName="caron" x="238" y="338" flags="0x4"/>
    </TTGlyph>
    <TTGlyph name="Ncommaaccent" xMin="158" yMin="-453" xMax="1550" yMax="1462">
      <component glyphName="N" x="0" y="0" flags="0x204"/>
      <component glyphName="commaaccent" x="291" y="0" flags="0x4"/>
    </TTGlyph>
    <TTGlyph name="Ntilde" xMin="158" yMin="0" xMax="1550" yMax="1919">
      <component glyphName="N" x="0" y="0" flags="0x204"/>
      <component glyphName="tilde" x="258" y="338" flags="0x4"/>
    </TTGlyph>
    <TTGlyph name="Nu" xMin="158" yMin="0" xMax="1550" yMax="1462">
      <component glyphName="N" x="0" y="0" flags="0x204"/>
    </TTGlyph>
    <TTGlyph name="O" xMin="104" yMin="-20" xMax="1526" yMax="1485">
      <contour>
        <pt x="1526" y="733" on="1"/>
        <pt x="1526" y="364" on="0"/>
        <pt x="1164" y="-20" on="0"/>
        <pt x="815" y="-20" on="1"/>
        <pt x="471" y="-20" on="0"/>
        <pt x="104" y="366" on="0"/>
        <pt x="104" y="735" on="1"/>
        <pt x="104" y="1100" on="0"/>
        <pt x="469" y="1485" on="0"/>
        <pt x="817" y="1485" on="1"/>
        <pt x="1166" y="1485" on="0"/>
        <pt x="1526" y="1103" on="0"/>
      </contour>
      <contour>
        <pt x="520" y="733" on="1"/>
        <pt x="520" y="309" on="0"/>
        <pt x="815" y="309" on="1"/>
        <pt x="965" y="309" on="0"/>
        <pt x="1110" y="515" on="0"/>
        <pt x="1110" y="733" on="1"/>
        <pt x="1110" y="952" on="0"/>
        <pt x="963" y="1161" on="0"/>
        <pt x="817" y="1161" on="1"/>
        <pt x="520" y="1161" on="0"/>
      </contour>
    </TTGlyph>
    <TTGlyph name="OE" xMin="104" yMin="-20" xMax="1862" yMax="1485">
      <contour>
        <pt x="1862" y="0" on="1"/>
        <pt x="1018" y="0" on="1"/>
        <pt x="984" y="-8" on="0"/>
        <pt x="831" y="-20" on="0"/>
        <pt x="774" y="-20" on="1"/>
        <pt x="455" y="-20" on="0"/>
        <pt x="104" y="380" on="0"/>
        <pt x="104" y="735" on="1"/>
        <pt x="104" y="1094" on="0"/>
        <pt x="454" y="1485" on="0"/>
        <pt x="776" y="1485" on="1"/>
        <pt x="843" y="1485" on="0"/>
        <pt x="996" y="1471" on="0"/>
        <pt x="1026" y="1462" on="1"/>
        <pt x="1862" y="1462" on="1"/>
        <pt x="1862" y="1145" on="1"/>
        <pt x="1389" y="1145" on="1"/>
        <pt x="1389" y="915" on="1"/>
        <pt x="1825" y="915" on="1"/>
        <pt x="1825" y="598" on="1"/>
        <pt x="1389" y="598" on="1"/>
        <pt x="1389" y="322" on="1"/>
        <pt x="1862" y="322" on="1"/>
      </contour>
      <contour>
        <pt x="778" y="1161" on="1"/>
        <pt x="653" y="1161" on="0"/>
        <pt x="520" y="942" on="0"/>
        <pt x="520" y="733" on="1"/>
        <pt x="520" y="528" on="0"/>
        <pt x="649" y="309" on="0"/>
        <pt x="776" y="309" on="1"/>
        <pt x="917" y="309" on="0"/>
        <pt x="993" y="352" on="1"/>
        <pt x="993" y="1112" on="1"/>
        <pt x="959" y="1135" on="0"/>
        <pt x="841" y="1161" on="0"/>
      </contour>
    </TTGlyph>
    <TTGlyph name="Oacute" xMin="104" yMin="-20" xMax="1526" yMax="1907">
      <component glyphName="O" x="0" y="0" flags="0x204"/>
      <component glyphName="acute" x="319" y="338" flags="0x4"/>
    </TTGlyph>
    <TTGlyph name="Obreve" xMin="104" yMin="-20" xMax="1526" yMax="1950">
      <component glyphName="O" x="0" y="0" flags="0x204"/>
      <component glyphName="breve" x="207" y="338" flags="0x4"/>
    </TTGlyph>
    <TTGlyph name="Ocircumflex" xMin="104" yMin="-20" xMax="1526" yMax="1907">
      <component glyphName="O" x="0" y="0" flags="0x204"/>
      <component glyphName="circumflex" x="199" y="338" flags="0x4"/>
    </TTGlyph>
    <TTGlyph name="Odieresis" xMin="104" yMin="-20" xMax="1526" yMax="1909">
      <component glyphName="O" x="0" y="0" flags="0x204"/>
      <component glyphName="dieresis" x="180" y="338" flags="0x4"/>
    </TTGlyph>
    <TTGlyph name="Ograve" xMin="104" yMin="-20" xMax="1526" yMax="1907">
      <component glyphName="O" x="0" y="0" flags="0x204"/>
      <component glyphName="grave" x="133" y="338" flags="0x4"/>
    </TTGlyph>
    <TTGlyph name="Ohorn" xMin="104" yMin="-20" xMax="1812" yMax="1556">
      <contour>
        <pt x="1528" y="733" on="1"/>
        <pt x="1528" y="365" on="0"/>
        <pt x="1165" y="-20" on="0"/>
        <pt x="815" y="-20" on="1"/>
        <pt x="471" y="-20" on="0"/>
        <pt x="104" y="368" on="0"/>
        <pt x="104" y="735" on="1"/>
        <pt x="104" y="1100" on="0"/>
        <pt x="472" y="1485" on="0"/>
        <pt x="821" y="1485" on="1"/>
        <pt x="1182" y="1485" on="0"/>
        <pt x="1358" y="1290" on="1"/>
        <pt x="1397" y="1364" on="0"/>
        <pt x="1423" y="1486" on="0"/>
        <pt x="1423" y="1556" on="1"/>
        <pt x="1798" y="1556" on="1"/>
        <pt x="1812" y="1534" on="1"/>
        <pt x="1771" y="1336" on="0"/>
        <pt x="1621" y="1124" on="0"/>
        <pt x="1489" y="1067" on="1"/>
        <pt x="1528" y="921" on="0"/>
      </contour>
      <contour>
        <pt x="520" y="733" on="1"/>
        <pt x="520" y="309" on="0"/>
        <pt x="815" y="309" on="1"/>
        <pt x="966" y="309" on="0"/>
        <pt x="1112" y="519" on="0"/>
        <pt x="1112" y="733" on="1"/>
        <pt x="1112" y="950" on="0"/>
        <pt x="965" y="1161" on="0"/>
        <pt x="817" y="1161" on="1"/>
        <pt x="520" y="1161" on="0"/>
      </contour>
    </TTGlyph>
    <TTGlyph name="Ohungarumlaut" xMin="104" yMin="-20" xMax="1526" yMax="1907">
      <component glyphName="O" x="0" y="0" flags="0x204"/>
      <component glyphName="hungarumlaut" x="350" y="338" flags="0x4"/>
    </TTGlyph>
    <TTGlyph name="Omacron" xMin="104" yMin="-20" xMax="1526" yMax="1815">
      <component glyphName="O" x="0" y="0" flags="0x204"/>
      <component glyphName="macron" x="209" y="338" flags="0x4"/>
    </TTGlyph>
    <TTGlyph name="Omega" xMin="49" yMin="0" xMax="1581" yMax="1485">
      <component glyphName="uni03A9" x="0" y="0" flags="0x204"/>
    </TTGlyph>
    <TTGlyph name="Omegatonos" xMin="-80" yMin="0" xMax="1708" yMax="1523">
      <component glyphName="uni03A9" x="127" y="0" flags="0x4"/>
      <component glyphName="tonos" x="-486" y="-105" flags="0x4"/>
    </TTGlyph>
    <TTGlyph name="Omicron" xMin="104" yMin="-20" xMax="1526" yMax="1485">
      <component glyphName="O" x="0" y="0" flags="0x204"/>
    </TTGlyph>
    <TTGlyph name="Omicrontonos" xMin="-80" yMin="-20" xMax="1645" yMax="1523">
      <component glyphName="O" x="119" y="0" flags="0x4"/>
      <component glyphName="tonos" x="-486" y="-105" flags="0x4"/>
    </TTGlyph>
    <TTGlyph name="Oslash" xMin="104" yMin="-109" xMax="1526" yMax="1548">
      <contour>
        <pt x="1526" y="733" on="1"/>
        <pt x="1526" y="364" on="0"/>
        <pt x="1164" y="-20" on="0"/>
        <pt x="815" y="-20" on="1"/>
        <pt x="638" y="-20" on="0"/>
        <pt x="508" y="23" on="1"/>
        <pt x="424" y="-109" on="1"/>
        <pt x="231" y="16" on="1"/>
        <pt x="315" y="141" on="1"/>
        <pt x="104" y="335" on="0"/>
        <pt x="104" y="735" on="1"/>
        <pt x="104" y="1100" on="0"/>
        <pt x="469" y="1485" on="0"/>
        <pt x="817" y="1485" on="1"/>
        <pt x="1008" y="1485" on="0"/>
        <pt x="1147" y="1430" on="1"/>
        <pt x="1223" y="1548" on="1"/>
        <pt x="1413" y="1434" on="1"/>
        <pt x="1331" y="1309" on="1"/>
        <pt x="1526" y="1120" on="0"/>
      </contour>
      <contour>
        <pt x="1110" y="733" on="1"/>
        <pt x="1110" y="858" on="0"/>
        <pt x="1092" y="944" on="1"/>
        <pt x="698" y="324" on="1"/>
        <pt x="752" y="309" on="0"/>
        <pt x="815" y="309" on="1"/>
        <pt x="965" y="309" on="0"/>
        <pt x="1110" y="515" on="0"/>
      </contour>
      <contour>
        <pt x="520" y="733" on="1"/>
        <pt x="520" y="578" on="0"/>
        <pt x="549" y="494" on="1"/>
        <pt x="952" y="1133" on="1"/>
        <pt x="884" y="1161" on="0"/>
        <pt x="817" y="1161" on="1"/>
        <pt x="520" y="1161" on="0"/>
      </contour>
    </TTGlyph>
    <TTGlyph name="Oslashacute" xMin="104" yMin="-109" xMax="1526" yMax="1907">
      <component glyphName="Oslash" x="0" y="0" flags="0x204"/>
      <component glyphName="acute" x="338" y="338" flags="0x4"/>
    </TTGlyph>
    <TTGlyph name="Otilde" xMin="104" yMin="-20" xMax="1526" yMax="1919">
      <component glyphName="O" x="0" y="0" flags="0x204"/>
      <component glyphName="tilde" x="225" y="338" flags="0x4"/>
    </TTGlyph>
    <TTGlyph name="P" xMin="158" yMin="0" xMax="1219" yMax="1462">
      <contour>
        <pt x="1219" y="997" on="1"/>
        <pt x="1219" y="752" on="0"/>
        <pt x="930" y="485" on="0"/>
        <pt x="664" y="485" on="1"/>
        <pt x="553" y="485" on="1"/>
        <pt x="553" y="0" on="1"/>
        <pt x="158" y="0" on="1"/>
        <pt x="158" y="1462" on="1"/>
        <pt x="664" y="1462" on="1"/>
        <pt x="941" y="1462" on="0"/>
        <pt x="1219" y="1220" on="0"/>
      </contour>
      <contour>
        <pt x="553" y="807" on="1"/>
        <pt x="625" y="807" on="1"/>
        <pt x="714" y="807" on="0"/>
        <pt x="819" y="907" on="0"/>
        <pt x="819" y="995" on="1"/>
        <pt x="819" y="1143" on="0"/>
        <pt x="655" y="1143" on="1"/>
        <pt x="553" y="1143" on="1"/>
      </contour>
    </TTGlyph>
    <TTGlyph name="Phi" xMin="76" yMin="-20" xMax="1755" yMax="1483">
      <contour>
        <pt x="725" y="1483" on="1"/>
        <pt x="1106" y="1483" on="1"/>
        <pt x="1106" y="1303" on="1"/>
        <pt x="1135" y="1303" on="1"/>
        <pt x="1323" y="1303" on="0"/>
        <pt x="1604" y="1165" on="0"/>
        <pt x="1755" y="915" on="0"/>
        <pt x="1755" y="756" on="1"/>
        <pt x="1755" y="590" on="0"/>
        <pt x="1607" y="341" on="0"/>
        <pt x="1321" y="205" on="0"/>
        <pt x="1118" y="205" on="1"/>
        <pt x="1106" y="205" on="1"/>
        <pt x="1106" y="-20" on="1"/>
        <pt x="725" y="-20" on="1"/>
        <pt x="725" y="205" on="1"/>
        <pt x="705" y="205" on="1"/>
        <pt x="503" y="205" on="0"/>
        <pt x="220" y="338" on="0"/>
        <pt x="76" y="585" on="0"/>
        <pt x="76" y="758" on="1"/>
        <pt x="76" y="921" on="0"/>
        <pt x="229" y="1174" on="0"/>
        <pt x="504" y="1303" on="0"/>
        <pt x="688" y="1303" on="1"/>
        <pt x="725" y="1303" on="1"/>
      </contour>
      <contour>
        <pt x="1106" y="504" on="1"/>
        <pt x="1118" y="504" on="1"/>
        <pt x="1244" y="504" on="0"/>
        <pt x="1370" y="628" on="0"/>
        <pt x="1370" y="758" on="1"/>
        <pt x="1370" y="872" on="0"/>
        <pt x="1240" y="1001" on="0"/>
        <pt x="1122" y="1001" on="1"/>
        <pt x="1106" y="1001" on="1"/>
      </contour>
      <contour>
        <pt x="725" y="1001" on="1"/>
        <pt x="702" y="1001" on="1"/>
        <pt x="585" y="1001" on="0"/>
        <pt x="461" y="877" on="0"/>
        <pt x="461" y="758" on="1"/>
        <pt x="461" y="623" on="0"/>
        <pt x="582" y="504" on="0"/>
        <pt x="705" y="504" on="1"/>
        <pt x="725" y="504" on="1"/>
      </contour>
    </TTGlyph>
    <TTGlyph name="Pi" xMin="158" yMin="0" xMax="1356" yMax="1462">
      <contour>
        <pt x="1356" y="0" on="1"/>
        <pt x="958" y="0" on="1"/>
        <pt x="958" y="1139" on="1"/>
        <pt x="555" y="1139" on="1"/>
        <pt x="555" y="0" on="1"/>
        <pt x="158" y="0" on="1"/>
        <pt x="158" y="1462" on="1"/>
        <pt x="1356" y="1462" on="1"/>
      </contour>
    </TTGlyph>
    <TTGlyph name="Psi" xMin="113" yMin="0" xMax="1792" yMax="1462">
      <contour>
        <pt x="1143" y="0" on="1"/>
        <pt x="762" y="0" on="1"/>
        <pt x="762" y="397" on="1"/>
        <pt x="725" y="397" on="1"/>
        <pt x="399" y="397" on="0"/>
        <pt x="113" y="660" on="0"/>
        <pt x="113" y="958" on="1"/>
        <pt x="113" y="1462" on="1"/>
        <pt x="502" y="1462" on="1"/>
        <pt x="502" y="963" on="1"/>
        <pt x="502" y="837" on="0"/>
        <pt x="614" y="723" on="0"/>
        <pt x="745" y="723" on="1"/>
        <pt x="762" y="723" on="1"/>
        <pt x="762" y="1462" on="1"/>
        <pt x="1143" y="1462" on="1"/>
        <pt x="1143" y="723" on="1"/>
        <pt x="1163" y="723" on="1"/>
        <pt x="1277" y="723" on="0"/>
        <pt x="1403" y="846" on="0"/>
        <pt x="1403" y="958" on="1"/>
        <pt x="1403" y="1462" on="1"/>
        <pt x="1792" y="1462" on="1"/>
        <pt x="1792" y="985" on="1"/>
        <pt x="1792" y="680" on="0"/>
        <pt x="1502" y="397" on="0"/>
        <pt x="1182" y="397" on="1"/>
        <pt x="1143" y="397" on="1"/>
      </contour>
    </TTGlyph>
    <TTGlyph name="Q" xMin="104" yMin="-348" xMax="1567" yMax="1485">
      <contour>
        <pt x="1526" y="733" on="1"/>
        <pt x="1526" y="236" on="0"/>
        <pt x="1210" y="63" on="1"/>
        <pt x="1567" y="-348" on="1"/>
        <pt x="1075" y="-348" on="1"/>
        <pt x="817" y="-23" on="1"/>
        <pt x="816" y="-22" on="1"/>
        <pt x="816" y="-21" on="1"/>
        <pt x="815" y="-20" on="1"/>
        <pt x="471" y="-20" on="0"/>
        <pt x="104" y="366" on="0"/>
        <pt x="104" y="735" on="1"/>
        <pt x="104" y="1100" on="0"/>
        <pt x="469" y="1485" on="0"/>
        <pt x="817" y="1485" on="1"/>
        <pt x="1166" y="1485" on="0"/>
        <pt x="1526" y="1103" on="0"/>
      </contour>
      <contour>
        <pt x="520" y="733" on="1"/>
        <pt x="520" y="309" on="0"/>
        <pt x="815" y="309" on="1"/>
        <pt x="965" y="309" on="0"/>
        <pt x="1110" y="515" on="0"/>
        <pt x="1110" y="733" on="1"/>
        <pt x="1110" y="952" on="0"/>
        <pt x="963" y="1161" on="0"/>
        <pt x="817" y="1161" on="1"/>
        <pt x="520" y="1161" on="0"/>
      </contour>
    </TTGlyph>
    <TTGlyph name="R" xMin="158" yMin="0" xMax="1411" yMax="1462">
      <contour>
        <pt x="553" y="532" on="1"/>
        <pt x="553" y="0" on="1"/>
        <pt x="158" y="0" on="1"/>
        <pt x="158" y="1462" on="1"/>
        <pt x="637" y="1462" on="1"/>
        <pt x="1233" y="1462" on="0"/>
        <pt x="1233" y="1030" on="1"/>
        <pt x="1233" y="776" on="0"/>
        <pt x="985" y="637" on="1"/>
        <pt x="1411" y="0" on="1"/>
        <pt x="963" y="0" on="1"/>
        <pt x="653" y="532" on="1"/>
      </contour>
      <contour>
        <pt x="553" y="829" on="1"/>
        <pt x="627" y="829" on="1"/>
        <pt x="834" y="829" on="0"/>
        <pt x="834" y="1012" on="1"/>
        <pt x="834" y="1163" on="0"/>
        <pt x="631" y="1163" on="1"/>
        <pt x="553" y="1163" on="1"/>
      </contour>
    </TTGlyph>
    <TTGlyph name="Racute" xMin="158" yMin="0" xMax="1411" yMax="1907">
      <component glyphName="R" x="0" y="0" flags="0x204"/>
      <component glyphName="acute" x="172" y="338" flags="0x4"/>
    </TTGlyph>
    <TTGlyph name="Rcaron" xMin="158" yMin="0" xMax="1411" yMax="1907">
      <component glyphName="R" x="0" y="0" flags="0x204"/>
      <component glyphName="caron" x="61" y="338" flags="0x4"/>
    </TTGlyph>
    <TTGlyph name="Rcommaaccent" xMin="158" yMin="-453" xMax="1411" yMax="1462">
      <component glyphName="R" x="0" y="0" flags="0x204"/>
      <component glyphName="commaaccent" x="231" y="0" flags="0x4"/>
    </TTGlyph>
    <TTGlyph name="Rho" xMin="158" yMin="0" xMax="1219" yMax="1462">
      <component glyphName="P" x="0" y="0" flags="0x204"/>
    </TTGlyph>
    <TTGlyph name="S" xMin="90" yMin="-20" xMax="1114" yMax="1483">
      <contour>
        <pt x="1114" y="444" on="1"/>
        <pt x="1114" y="308" on="0"/>
        <pt x="976" y="97" on="0"/>
        <pt x="716" y="-20" on="0"/>
        <pt x="541" y="-20" on="1"/>
        <pt x="395" y="-20" on="0"/>
        <pt x="197" y="21" on="0"/>
        <pt x="90" y="72" on="1"/>
        <pt x="90" y="424" on="1"/>
        <pt x="203" y="366" on="0"/>
        <pt x="447" y="301" on="0"/>
        <pt x="549" y="301" on="1"/>
        <pt x="637" y="301" on="0"/>
        <pt x="719" y="362" on="0"/>
        <pt x="719" y="410" on="1"/>
        <pt x="719" y="440" on="0"/>
        <pt x="686" y="485" on="0"/>
        <pt x="613" y="531" on="0"/>
        <pt x="455" y="602" on="1"/>
        <pt x="312" y="667" on="0"/>
        <pt x="169" y="789" on="0"/>
        <pt x="100" y="947" on="0"/>
        <pt x="100" y="1055" on="1"/>
        <pt x="100" y="1257" on="0"/>
        <pt x="394" y="1483" on="0"/>
        <pt x="651" y="1483" on="1"/>
        <pt x="878" y="1483" on="0"/>
        <pt x="1114" y="1378" on="1"/>
        <pt x="993" y="1073" on="1"/>
        <pt x="788" y="1167" on="0"/>
        <pt x="639" y="1167" on="1"/>
        <pt x="562" y="1167" on="0"/>
        <pt x="492" y="1113" on="0"/>
        <pt x="492" y="1073" on="1"/>
        <pt x="492" y="1030" on="0"/>
        <pt x="581" y="962" on="0"/>
        <pt x="778" y="872" on="1"/>
        <pt x="967" y="787" on="0"/>
        <pt x="1114" y="592" on="0"/>
      </contour>
    </TTGlyph>
    <TTGlyph name="Sacute" xMin="90" yMin="-20" xMax="1114" yMax="1907">
      <component glyphName="S" x="0" y="0" flags="0x204"/>
      <component glyphName="acute" x="152" y="338" flags="0x4"/>
    </TTGlyph>
    <TTGlyph name="Scaron" xMin="90" yMin="-20" xMax="1114" yMax="1907">
      <component glyphName="S" x="0" y="0" flags="0x204"/>
      <component glyphName="caron" x="14" y="338" flags="0x4"/>
    </TTGlyph>
    <TTGlyph name="Scedilla" xMin="90" yMin="-492" xMax="1114" yMax="1483">
      <component glyphName="S" x="0" y="0" flags="0x204"/>
      <component glyphName="cedilla" x="391" y="0" flags="0x4"/>
    </TTGlyph>
    <TTGlyph name="Scircumflex" xMin="90" yMin="-20" xMax="1114" yMax="1907">
      <component glyphName="S" x="0" y="0" flags="0x204"/>
      <component glyphName="circumflex" x="6" y="338" flags="0x4"/>
    </TTGlyph>
    <TTGlyph name="Scommaaccent" xMin="90" yMin="-453" xMax="1114" yMax="1483">
      <component glyphName="S" x="0" y="0" flags="0x204"/>
      <component glyphName="commaaccent" x="10" y="0" flags="0x4"/>
    </TTGlyph>
    <TTGlyph name="Sigma" xMin="74" yMin="0" xMax="1157" yMax="1462">
      <contour>
        <pt x="74" y="0" on="1"/>
        <pt x="74" y="307" on="1"/>
        <pt x="518" y="768" on="1"/>
        <pt x="86" y="1165" on="1"/>
        <pt x="86" y="1462" on="1"/>
        <pt x="1098" y="1462" on="1"/>
        <pt x="1098" y="1145" on="1"/>
        <pt x="762" y="1145" on="1"/>
        <pt x="604" y="1145" on="0"/>
        <pt x="526" y="1155" on="1"/>
        <pt x="948" y="770" on="1"/>
        <pt x="504" y="309" on="1"/>
        <pt x="647" y="322" on="0"/>
        <pt x="756" y="322" on="1"/>
        <pt x="1157" y="322" on="1"/>
        <pt x="1157" y="0" on="1"/>
      </contour>
    </TTGlyph>
    <TTGlyph name="T" xMin="51" yMin="0" xMax="1159" yMax="1462">
      <contour>
        <pt x="803" y="0" on="1"/>
        <pt x="408" y="0" on="1"/>
        <pt x="408" y="1139" on="1"/>
        <pt x="51" y="1139" on="1"/>
        <pt x="51" y="1462" on="1"/>
        <pt x="1159" y="1462" on="1"/>
        <pt x="1159" y="1139" on="1"/>
        <pt x="803" y="1139" on="1"/>
      </contour>
    </TTGlyph>
    <TTGlyph name="Tau" xMin="51" yMin="0" xMax="1159" yMax="1462">
      <component glyphName="T" x="0" y="0" flags="0x204"/>
    </TTGlyph>
    <TTGlyph name="Tbar" xMin="51" yMin="0" xMax="1159" yMax="1462">
      <contour>
        <pt x="408" y="872" on="1"/>
        <pt x="408" y="1139" on="1"/>
        <pt x="51" y="1139" on="1"/>
        <pt x="51" y="1462" on="1"/>
        <pt x="1159" y="1462" on="1"/>
        <pt x="1159" y="1139" on="1"/>
        <pt x="803" y="1139" on="1"/>
        <pt x="803" y="872" on="1"/>
        <pt x="1014" y="872" on="1"/>
        <pt x="1014" y="547" on="1"/>
        <pt x="803" y="547" on="1"/>
        <pt x="803" y="0" on="1"/>
        <pt x="408" y="0" on="1"/>
        <pt x="408" y="547" on="1"/>
        <pt x="201" y="547" on="1"/>
        <pt x="201" y="872" on="1"/>
      </contour>
    </TTGlyph>
    <TTGlyph name="Tcaron" xMin="51" yMin="0" xMax="1159" yMax="1907">
      <component glyphName="T" x="0" y="0" flags="0x204"/>
      <component glyphName="caron" x="-11" y="338" flags="0x4"/>
    </TTGlyph>
    <TTGlyph name="Tcedilla" xMin="51" yMin="-492" xMax="1159" yMax="1462">
      <component glyphName="T" x="0" y="0" flags="0x204"/>
      <component glyphName="cedilla" x="451" y="0" flags="0x4"/>
    </TTGlyph>
    <TTGlyph name="Tcommaaccent" xMin="51" yMin="-453" xMax="1159" yMax="1462">
      <component glyphName="T" x="0" y="0" flags="0x204"/>
      <component glyphName="commaaccent" x="80" y="0" flags="0x4"/>
    </TTGlyph>
    <TTGlyph name="Theta" xMin="104" yMin="-20" xMax="1526" yMax="1485">
      <contour>
        <pt x="1526" y="733" on="1"/>
        <pt x="1526" y="364" on="0"/>
        <pt x="1164" y="-20" on="0"/>
        <pt x="815" y="-20" on="1"/>
        <pt x="471" y="-20" on="0"/>
        <pt x="104" y="366" on="0"/>
        <pt x="104" y="735" on="1"/>
        <pt x="104" y="1100" on="0"/>
        <pt x="469" y="1485" on="0"/>
        <pt x="817" y="1485" on="1"/>
        <pt x="1166" y="1485" on="0"/>
        <pt x="1526" y="1103" on="0"/>
      </contour>
      <contour>
        <pt x="496" y="733" on="1"/>
        <pt x="496" y="511" on="0"/>
        <pt x="656" y="297" on="0"/>
        <pt x="815" y="297" on="1"/>
        <pt x="978" y="297" on="0"/>
        <pt x="1135" y="509" on="0"/>
        <pt x="1135" y="733" on="1"/>
        <pt x="1135" y="957" on="0"/>
        <pt x="979" y="1174" on="0"/>
        <pt x="817" y="1174" on="1"/>
        <pt x="654" y="1174" on="0"/>
        <pt x="496" y="955" on="0"/>
      </contour>
      <contour>
        <pt x="610" y="893" on="1"/>
        <pt x="1022" y="893" on="1"/>
        <pt x="1022" y="594" on="1"/>
        <pt x="610" y="594" on="1"/>
      </contour>
    </TTGlyph>
    <TTGlyph name="Thorn" xMin="158" yMin="0" xMax="1219" yMax="1462">
      <contour>
        <pt x="1219" y="784" on="1"/>
        <pt x="1219" y="539" on="0"/>
        <pt x="930" y="272" on="0"/>
        <pt x="664" y="272" on="1"/>
        <pt x="553" y="272" on="1"/>
        <pt x="553" y="0" on="1"/>
        <pt x="158" y="0" on="1"/>
        <pt x="158" y="1462" on="1"/>
        <pt x="553" y="1462" on="1"/>
        <pt x="553" y="1249" on="1"/>
        <pt x="664" y="1249" on="1"/>
        <pt x="941" y="1249" on="0"/>
        <pt x="1219" y="1007" on="0"/>
      </contour>
      <contour>
        <pt x="553" y="594" on="1"/>
        <pt x="625" y="594" on="1"/>
        <pt x="714" y="594" on="0"/>
        <pt x="819" y="694" on="0"/>
        <pt x="819" y="782" on="1"/>
        <pt x="819" y="930" on="0"/>
        <pt x="655" y="930" on="1"/>
        <pt x="553" y="930" on="1"/>
      </contour>
    </TTGlyph>
    <TTGlyph name="U" xMin="150" yMin="-20" xMax="1401" yMax="1462">
      <contour>
        <pt x="1401" y="1462" on="1"/>
        <pt x="1401" y="582" on="1"/>
        <pt x="1401" y="295" on="0"/>
        <pt x="1076" y="-20" on="0"/>
        <pt x="770" y="-20" on="1"/>
        <pt x="471" y="-20" on="0"/>
        <pt x="150" y="286" on="0"/>
        <pt x="150" y="573" on="1"/>
        <pt x="150" y="1462" on="1"/>
        <pt x="547" y="1462" on="1"/>
        <pt x="547" y="604" on="1"/>
        <pt x="547" y="449" on="0"/>
        <pt x="663" y="309" on="0"/>
        <pt x="776" y="309" on="1"/>
        <pt x="897" y="309" on="0"/>
        <pt x="1006" y="448" on="0"/>
        <pt x="1006" y="606" on="1"/>
        <pt x="1006" y="1462" on="1"/>
      </contour>
    </TTGlyph>
    <TTGlyph name="Uacute" xMin="150" yMin="-20" xMax="1401" yMax="1907">
      <component glyphName="U" x="0" y="0" flags="0x204"/>
      <component glyphName="acute" x="297" y="338" flags="0x4"/>
    </TTGlyph>
    <TTGlyph name="Ubreve" xMin="150" yMin="-20" xMax="1401" yMax="1950">
      <component glyphName="U" x="0" y="0" flags="0x204"/>
      <component glyphName="breve" x="164" y="338" flags="0x4"/>
    </TTGlyph>
    <TTGlyph name="Ucircumflex" xMin="150" yMin="-20" xMax="1401" yMax="1907">
      <component glyphName="U" x="0" y="0" flags="0x204"/>
      <component glyphName="circumflex" x="158" y="338" flags="0x4"/>
    </TTGlyph>
    <TTGlyph name="Udieresis" xMin="150" yMin="-20" xMax="1401" yMax="1909">
      <component glyphName="U" x="0" y="0" flags="0x204"/>
      <component glyphName="dieresis" x="139" y="338" flags="0x4"/>
    </TTGlyph>
    <TTGlyph name="Ugrave" xMin="150" yMin="-20" xMax="1401" yMax="1907">
      <component glyphName="U" x="0" y="0" flags="0x204"/>
      <component glyphName="grave" x="16" y="338" flags="0x4"/>
    </TTGlyph>
    <TTGlyph name="Uhorn" xMin="150" yMin="-20" xMax="1925" yMax="1556">
      <contour>
        <pt x="1401" y="1462" on="1"/>
        <pt x="1401" y="1260" on="1"/>
        <pt x="1466" y="1293" on="0"/>
        <pt x="1534" y="1450" on="0"/>
        <pt x="1534" y="1556" on="1"/>
        <pt x="1911" y="1556" on="1"/>
        <pt x="1925" y="1534" on="1"/>
        <pt x="1887" y="1356" on="0"/>
        <pt x="1766" y="1172" on="0"/>
        <pt x="1561" y="1057" on="0"/>
        <pt x="1401" y="1036" on="1"/>
        <pt x="1401" y="516" on="1"/>
        <pt x="1401" y="357" on="0"/>
        <pt x="1246" y="113" on="0"/>
        <pt x="955" y="-20" on="0"/>
        <pt x="760" y="-20" on="1"/>
        <pt x="470" y="-20" on="0"/>
        <pt x="150" y="269" on="0"/>
        <pt x="150" y="520" on="1"/>
        <pt x="150" y="1462" on="1"/>
        <pt x="547" y="1462" on="1"/>
        <pt x="547" y="565" on="1"/>
        <pt x="547" y="426" on="0"/>
        <pt x="647" y="309" on="0"/>
        <pt x="772" y="309" on="1"/>
        <pt x="896" y="309" on="0"/>
        <pt x="1006" y="430" on="0"/>
        <pt x="1006" y="567" on="1"/>
        <pt x="1006" y="1462" on="1"/>
      </contour>
    </TTGlyph>
    <TTGlyph name="Uhungarumlaut" xMin="150" yMin="-20" xMax="1405" yMax="1907">
      <component glyphName="U" x="0" y="0" flags="0x204"/>
      <component glyphName="hungarumlaut" x="285" y="338" flags="0x4"/>
    </TTGlyph>
    <TTGlyph name="Umacron" xMin="150" yMin="-20" xMax="1401" yMax="1815">
      <component glyphName="U" x="0" y="0" flags="0x204"/>
      <component glyphName="macron" x="168" y="338" flags="0x4"/>
    </TTGlyph>
    <TTGlyph name="Uogonek" xMin="150" yMin="-492" xMax="1401" yMax="1462">
      <component glyphName="U" x="0" y="0" flags="0x204"/>
      <component glyphName="ogonek" x="582" y="0" flags="0x4"/>
    </TTGlyph>
    <TTGlyph name="Upsilon" xMin="0" yMin="0" xMax="1360" yMax="1462">
      <component glyphName="Y" x="0" y="0" flags="0x204"/>
    </TTGlyph>
    <TTGlyph name="Upsilondieresis" xMin="0" yMin="0" xMax="1360" yMax="1909">
      <component glyphName="Y" x="0" y="0" flags="0x204"/>
      <component glyphName="dieresis" x="70" y="338" flags="0x4"/>
    </TTGlyph>
    <TTGlyph name="Upsilontonos" xMin="-80" yMin="0" xMax="1745" yMax="1523">
      <component glyphName="Y" x="385" y="0" flags="0x4"/>
      <component glyphName="tonos" x="-486" y="-105" flags="0x4"/>
    </TTGlyph>
    <TTGlyph name="Uring" xMin="150" yMin="-20" xMax="1401" yMax="2081">
      <component glyphName="U" x="0" y="0" flags="0x204"/>
      <component glyphName="ring" x="217" y="338" flags="0x4"/>
    </TTGlyph>
    <TTGlyph name="Utilde" xMin="150" yMin="-20" xMax="1401" yMax="1919">
      <component glyphName="U" x="0" y="0" flags="0x204"/>
      <component glyphName="tilde" x="184" y="338" flags="0x4"/>
    </TTGlyph>
    <TTGlyph name="V" xMin="0" yMin="0" xMax="1421" yMax="1462">
      <contour>
        <pt x="979" y="1462" on="1"/>
        <pt x="1421" y="1462" on="1"/>
        <pt x="942" y="0" on="1"/>
        <pt x="477" y="0" on="1"/>
        <pt x="0" y="1462" on="1"/>
        <pt x="444" y="1462" on="1"/>
        <pt x="643" y="721" on="1"/>
        <pt x="705" y="474" on="0"/>
        <pt x="711" y="377" on="1"/>
        <pt x="718" y="447" on="0"/>
        <pt x="760" y="657" on="0"/>
        <pt x="776" y="717" on="1"/>
      </contour>
    </TTGlyph>
    <TTGlyph name="W" xMin="31" yMin="0" xMax="2097" yMax="1462">
      <contour>
        <pt x="1737" y="0" on="1"/>
        <pt x="1270" y="0" on="1"/>
        <pt x="1130" y="637" on="1"/>
        <pt x="1120" y="677" on="0"/>
        <pt x="1077" y="915" on="0"/>
        <pt x="1067" y="995" on="1"/>
        <pt x="1059" y="930" on="0"/>
        <pt x="1023" y="737" on="0"/>
        <pt x="988" y="575" on="0"/>
        <pt x="860" y="0" on="1"/>
        <pt x="393" y="0" on="1"/>
        <pt x="31" y="1462" on="1"/>
        <pt x="412" y="1462" on="1"/>
        <pt x="571" y="729" on="1"/>
        <pt x="625" y="486" on="0"/>
        <pt x="645" y="342" on="1"/>
        <pt x="658" y="444" on="0"/>
        <pt x="725" y="794" on="0"/>
        <pt x="754" y="909" on="1"/>
        <pt x="883" y="1462" on="1"/>
        <pt x="1249" y="1462" on="1"/>
        <pt x="1374" y="909" on="1"/>
        <pt x="1406" y="776" on="0"/>
        <pt x="1472" y="428" on="0"/>
        <pt x="1483" y="342" on="1"/>
        <pt x="1496" y="453" on="0"/>
        <pt x="1554" y="727" on="1"/>
        <pt x="1716" y="1462" on="1"/>
        <pt x="2097" y="1462" on="1"/>
      </contour>
    </TTGlyph>
    <TTGlyph name="Wacute" xMin="31" yMin="0" xMax="2097" yMax="1907">
      <component glyphName="W" x="0" y="0" flags="0x204"/>
      <component glyphName="acute" x="598" y="338" flags="0x4"/>
    </TTGlyph>
    <TTGlyph name="Wcircumflex" xMin="31" yMin="0" xMax="2097" yMax="1907">
      <component glyphName="W" x="0" y="0" flags="0x204"/>
      <component glyphName="circumflex" x="438" y="338" flags="0x4"/>
    </TTGlyph>
    <TTGlyph name="Wdieresis" xMin="31" yMin="0" xMax="2097" yMax="1909">
      <component glyphName="W" x="0" y="0" flags="0x204"/>
      <component glyphName="dieresis" x="444" y="338" flags="0x4"/>
    </TTGlyph>
    <TTGlyph name="Wgrave" xMin="31" yMin="0" xMax="2097" yMax="1907">
      <component glyphName="W" x="0" y="0" flags="0x204"/>
      <component glyphName="grave" x="340" y="338" flags="0x4"/>
    </TTGlyph>
    <TTGlyph name="X" xMin="4" yMin="0" xMax="1475" yMax="1462">
      <contour>
        <pt x="1475" y="0" on="1"/>
        <pt x="1018" y="0" on="1"/>
        <pt x="733" y="457" on="1"/>
        <pt x="451" y="0" on="1"/>
        <pt x="4" y="0" on="1"/>
        <pt x="489" y="748" on="1"/>
        <pt x="33" y="1462" on="1"/>
        <pt x="471" y="1462" on="1"/>
        <pt x="735" y="1010" on="1"/>
        <pt x="989" y="1462" on="1"/>
        <pt x="1440" y="1462" on="1"/>
        <pt x="977" y="717" on="1"/>
      </contour>
    </TTGlyph>
    <TTGlyph name="Xi" xMin="80" yMin="0" xMax="1096" yMax="1462">
      <contour>
        <pt x="203" y="915" on="1"/>
        <pt x="973" y="915" on="1"/>
        <pt x="973" y="598" on="1"/>
        <pt x="203" y="598" on="1"/>
      </contour>
      <contour>
        <pt x="121" y="1462" on="1"/>
        <pt x="1055" y="1462" on="1"/>
        <pt x="1055" y="1145" on="1"/>
        <pt x="121" y="1145" on="1"/>
      </contour>
      <contour>
        <pt x="1096" y="322" on="1"/>
        <pt x="1096" y="0" on="1"/>
        <pt x="80" y="0" on="1"/>
        <pt x="80" y="322" on="1"/>
      </contour>
    </TTGlyph>
    <TTGlyph name="Y" xMin="0" yMin="0" xMax="1360" yMax="1462">
      <contour>
        <pt x="680" y="920" on="1"/>
        <pt x="932" y="1462" on="1"/>
        <pt x="1360" y="1462" on="1"/>
        <pt x="879" y="571" on="1"/>
        <pt x="879" y="0" on="1"/>
        <pt x="481" y="0" on="1"/>
        <pt x="481" y="559" on="1"/>
        <pt x="0" y="1462" on="1"/>
        <pt x="430" y="1462" on="1"/>
      </contour>
    </TTGlyph>
    <TTGlyph name="Yacute" xMin="0" yMin="0" xMax="1360" yMax="1907">
      <component glyphName="Y" x="0" y="0" flags="0x204"/>
      <component glyphName="acute" x="207" y="338" flags="0x4"/>
    </TTGlyph>
    <TTGlyph name="Ycircumflex" xMin="0" yMin="0" xMax="1360" yMax="1907">
      <component glyphName="Y" x="0" y="0" flags="0x204"/>
      <component glyphName="circumflex" x="66" y="338" flags="0x4"/>
    </TTGlyph>
    <TTGlyph name="Ydieresis" xMin="0" yMin="0" xMax="1360" yMax="1909">
      <component glyphName="Y" x="0" y="0" flags="0x204"/>
      <component glyphName="dieresis" x="45" y="338" flags="0x4"/>
    </TTGlyph>
    <TTGlyph name="Ygrave" xMin="0" yMin="0" xMax="1360" yMax="1907">
      <component glyphName="Y" x="0" y="0" flags="0x204"/>
      <component glyphName="grave" x="-118" y="338" flags="0x4"/>
    </TTGlyph>
    <TTGlyph name="Z" xMin="61" yMin="0" xMax="1200" yMax="1462">
      <contour>
        <pt x="1200" y="0" on="1"/>
        <pt x="61" y="0" on="1"/>
        <pt x="61" y="244" on="1"/>
        <pt x="694" y="1143" on="1"/>
        <pt x="76" y="1143" on="1"/>
        <pt x="76" y="1462" on="1"/>
        <pt x="1184" y="1462" on="1"/>
        <pt x="1184" y="1219" on="1"/>
        <pt x="551" y="319" on="1"/>
        <pt x="1200" y="319" on="1"/>
      </contour>
    </TTGlyph>
    <TTGlyph name="Zacute" xMin="61" yMin="0" xMax="1200" yMax="1907">
      <component glyphName="Z" x="0" y="0" flags="0x204"/>
      <component glyphName="acute" x="113" y="338" flags="0x4"/>
    </TTGlyph>
    <TTGlyph name="Zcaron" xMin="61" yMin="0" xMax="1200" yMax="1907">
      <component glyphName="Z" x="0" y="0" flags="0x204"/>
      <component glyphName="caron" x="20" y="338" flags="0x4"/>
    </TTGlyph>
    <TTGlyph name="Zdotaccent" xMin="61" yMin="0" xMax="1200" yMax="1927">
      <component glyphName="Z" x="0" y="0" flags="0x204"/>
      <component glyphName="dotaccent" x="260" y="338" flags="0x4"/>
    </TTGlyph>
    <TTGlyph name="Zeta" xMin="61" yMin="0" xMax="1200" yMax="1462">
      <component glyphName="Z" x="0" y="0" flags="0x204"/>
    </TTGlyph>
    <TTGlyph name="a" xMin="74" yMin="-20" xMax="1145" yMax="1153">
      <contour>
        <pt x="874" y="0" on="1"/>
        <pt x="799" y="150" on="1"/>
        <pt x="791" y="150" on="1"/>
        <pt x="712" y="52" on="0"/>
        <pt x="548" y="-20" on="0"/>
        <pt x="418" y="-20" on="1"/>
        <pt x="258" y="-20" on="0"/>
        <pt x="74" y="172" on="0"/>
        <pt x="74" y="346" on="1"/>
        <pt x="74" y="527" on="0"/>
        <pt x="326" y="704" on="0"/>
        <pt x="565" y="715" on="1"/>
        <pt x="754" y="721" on="1"/>
        <pt x="754" y="737" on="1"/>
        <pt x="754" y="877" on="0"/>
        <pt x="616" y="877" on="1"/>
        <pt x="492" y="877" on="0"/>
        <pt x="301" y="793" on="1"/>
        <pt x="188" y="1051" on="1"/>
        <pt x="386" y="1153" on="0"/>
        <pt x="688" y="1153" on="1"/>
        <pt x="906" y="1153" on="0"/>
        <pt x="1145" y="937" on="0"/>
        <pt x="1145" y="743" on="1"/>
        <pt x="1145" y="0" on="1"/>
      </contour>
      <contour>
        <pt x="584" y="256" on="1"/>
        <pt x="655" y="256" on="0"/>
        <pt x="756" y="346" on="0"/>
        <pt x="756" y="418" on="1"/>
        <pt x="756" y="506" on="1"/>
        <pt x="666" y="502" on="1"/>
        <pt x="473" y="495" on="0"/>
        <pt x="473" y="360" on="1"/>
        <pt x="473" y="256" on="0"/>
      </contour>
    </TTGlyph>
    <TTGlyph name="aacute" xMin="74" yMin="-20" xMax="1145" yMax="1569">
      <component glyphName="a" x="0" y="0" flags="0x204"/>
      <component glyphName="acute" x="170" y="0" flags="0x4"/>
    </TTGlyph>
    <TTGlyph name="abreve" xMin="74" yMin="-20" xMax="1145" yMax="1612">
      <component glyphName="a" x="0" y="0" flags="0x204"/>
      <component glyphName="breve" x="47" y="0" flags="0x4"/>
    </TTGlyph>
    <TTGlyph name="acircumflex" xMin="74" yMin="-20" xMax="1145" yMax="1566">
      <component glyphName="a" x="0" y="0" flags="0x204"/>
      <component glyphName="circumflex" x="33" y="-3" flags="0x4"/>
    </TTGlyph>
    <TTGlyph name="acute" xMin="264" yMin="1241" xMax="956" yMax="1569">
      <contour>
        <pt x="264" y="1241" on="1"/>
        <pt x="264" y="1270" on="1"/>
        <pt x="418" y="1435" on="0"/>
        <pt x="501" y="1531" on="0"/>
        <pt x="528" y="1569" on="1"/>
        <pt x="956" y="1569" on="1"/>
        <pt x="956" y="1548" on="1"/>
        <pt x="876" y="1484" on="0"/>
        <pt x="596" y="1286" on="0"/>
        <pt x="524" y="1241" on="1"/>
      </contour>
    </TTGlyph>
    <TTGlyph name="adieresis" xMin="74" yMin="-20" xMax="1145" yMax="1571">
      <component glyphName="a" x="0" y="0" flags="0x204"/>
      <component glyphName="dieresis" x="45" y="0" flags="0x4"/>
    </TTGlyph>
    <TTGlyph name="ae" xMin="74" yMin="-20" xMax="1829" yMax="1153">
      <contour>
        <pt x="1341" y="-20" on="1"/>
        <pt x="1061" y="-20" on="0"/>
        <pt x="911" y="170" on="1"/>
        <pt x="831" y="87" on="0"/>
        <pt x="708" y="12" on="0"/>
        <pt x="554" y="-20" on="0"/>
        <pt x="434" y="-20" on="1"/>
        <pt x="272" y="-20" on="0"/>
        <pt x="74" y="183" on="0"/>
        <pt x="74" y="352" on="1"/>
        <pt x="74" y="697" on="0"/>
        <pt x="571" y="715" on="1"/>
        <pt x="754" y="721" on="1"/>
        <pt x="754" y="739" on="1"/>
        <pt x="754" y="877" on="0"/>
        <pt x="618" y="877" on="1"/>
        <pt x="480" y="877" on="0"/>
        <pt x="305" y="797" on="1"/>
        <pt x="195" y="1053" on="1"/>
        <pt x="385" y="1153" on="0"/>
        <pt x="649" y="1153" on="1"/>
        <pt x="850" y="1153" on="0"/>
        <pt x="985" y="1059" on="1"/>
        <pt x="1055" y="1108" on="0"/>
        <pt x="1221" y="1153" on="0"/>
        <pt x="1337" y="1153" on="1"/>
        <pt x="1566" y="1153" on="0"/>
        <pt x="1829" y="880" on="0"/>
        <pt x="1829" y="633" on="1"/>
        <pt x="1829" y="461" on="1"/>
        <pt x="1133" y="461" on="1"/>
        <pt x="1137" y="371" on="0"/>
        <pt x="1277" y="258" on="0"/>
        <pt x="1393" y="258" on="1"/>
        <pt x="1587" y="258" on="0"/>
        <pt x="1757" y="344" on="1"/>
        <pt x="1757" y="63" on="1"/>
        <pt x="1663" y="15" on="0"/>
        <pt x="1469" y="-20" on="0"/>
      </contour>
      <contour>
        <pt x="756" y="506" on="1"/>
        <pt x="672" y="502" on="1"/>
        <pt x="566" y="498" on="0"/>
        <pt x="473" y="429" on="0"/>
        <pt x="473" y="356" on="1"/>
        <pt x="473" y="256" on="0"/>
        <pt x="586" y="256" on="1"/>
        <pt x="655" y="256" on="0"/>
        <pt x="756" y="346" on="0"/>
        <pt x="756" y="418" on="1"/>
      </contour>
      <contour>
        <pt x="1315" y="887" on="1"/>
        <pt x="1153" y="887" on="0"/>
        <pt x="1139" y="707" on="1"/>
        <pt x="1479" y="707" on="1"/>
        <pt x="1477" y="789" on="0"/>
        <pt x="1385" y="887" on="0"/>
      </contour>
    </TTGlyph>
    <TTGlyph name="aeacute" xMin="74" yMin="-20" xMax="1829" yMax="1569">
      <component glyphName="ae" x="0" y="0" flags="0x204"/>
      <component glyphName="acute" x="512" y="0" flags="0x4"/>
    </TTGlyph>
    <TTGlyph name="afii00208" xMin="76" yMin="414" xMax="1972" yMax="690">
      <contour>
        <pt x="76" y="414" on="1"/>
        <pt x="76" y="690" on="1"/>
        <pt x="1972" y="690" on="1"/>
        <pt x="1972" y="414" on="1"/>
      </contour>
    </TTGlyph>
    <TTGlyph name="afii08941" xMin="102" yMin="0" xMax="1165" yMax="1485">
      <contour>
        <pt x="735" y="1485" on="1"/>
        <pt x="825" y="1485" on="0"/>
        <pt x="1037" y="1442" on="0"/>
        <pt x="1128" y="1405" on="1"/>
        <pt x="1016" y="1114" on="1"/>
        <pt x="873" y="1169" on="0"/>
        <pt x="762" y="1169" on="1"/>
        <pt x="711" y="1169" on="0"/>
        <pt x="653" y="1103" on="0"/>
        <pt x="653" y="1040" on="1"/>
        <pt x="653" y="987" on="1"/>
        <pt x="973" y="987" on="1"/>
        <pt x="973" y="782" on="1"/>
        <pt x="653" y="782" on="1"/>
        <pt x="653" y="694" on="1"/>
        <pt x="973" y="694" on="1"/>
        <pt x="973" y="489" on="1"/>
        <pt x="653" y="489" on="1"/>
        <pt x="612" y="371" on="0"/>
        <pt x="494" y="326" on="1"/>
        <pt x="1165" y="326" on="1"/>
        <pt x="1165" y="0" on="1"/>
        <pt x="102" y="0" on="1"/>
        <pt x="102" y="315" on="1"/>
        <pt x="172" y="342" on="0"/>
        <pt x="252" y="423" on="0"/>
        <pt x="268" y="489" on="1"/>
        <pt x="102" y="489" on="1"/>
        <pt x="102" y="694" on="1"/>
        <pt x="268" y="694" on="1"/>
        <pt x="268" y="782" on="1"/>
        <pt x="102" y="782" on="1"/>
        <pt x="102" y="987" on="1"/>
        <pt x="268" y="987" on="1"/>
        <pt x="268" y="1044" on="1"/>
        <pt x="268" y="1259" on="0"/>
        <pt x="501" y="1485" on="0"/>
      </contour>
    </TTGlyph>
    <TTGlyph name="afii10017" xMin="0" yMin="0" xMax="1487" yMax="1468">
      <component glyphName="A" x="0" y="0" flags="0x204"/>
    </TTGlyph>
    <TTGlyph name="afii10018" xMin="158" yMin="0" xMax="1239" yMax="1462">
      <contour>
        <pt x="1239" y="475" on="1"/>
        <pt x="1239" y="245" on="0"/>
        <pt x="924" y="0" on="0"/>
        <pt x="627" y="0" on="1"/>
        <pt x="158" y="0" on="1"/>
        <pt x="158" y="1462" on="1"/>
        <pt x="1120" y="1462" on="1"/>
        <pt x="1120" y="1145" on="1"/>
        <pt x="555" y="1145" on="1"/>
        <pt x="555" y="922" on="1"/>
        <pt x="612" y="922" on="1"/>
        <pt x="919" y="922" on="0"/>
        <pt x="1239" y="699" on="0"/>
      </contour>
      <contour>
        <pt x="555" y="305" on="1"/>
        <pt x="608" y="305" on="1"/>
        <pt x="732" y="305" on="0"/>
        <pt x="840" y="387" on="0"/>
        <pt x="840" y="467" on="1"/>
        <pt x="840" y="547" on="0"/>
        <pt x="725" y="623" on="0"/>
        <pt x="606" y="623" on="1"/>
        <pt x="555" y="623" on="1"/>
      </contour>
    </TTGlyph>
    <TTGlyph name="afii10019" xMin="158" yMin="0" xMax="1284" yMax="1462">
      <component glyphName="B" x="0" y="0" flags="0x204"/>
    </TTGlyph>
    <TTGlyph name="afii10020" xMin="158" yMin="0" xMax="1133" yMax="1462">
      <component glyphName="Gamma" x="0" y="0" flags="0x204"/>
    </TTGlyph>
    <TTGlyph name="afii10021" xMin="8" yMin="-455" xMax="1630" yMax="1462">
      <contour>
        <pt x="1630" y="-455" on="1"/>
        <pt x="1245" y="-455" on="1"/>
        <pt x="1245" y="0" on="1"/>
        <pt x="393" y="0" on="1"/>
        <pt x="393" y="-455" on="1"/>
        <pt x="8" y="-455" on="1"/>
        <pt x="8" y="324" on="1"/>
        <pt x="129" y="324" on="1"/>
        <pt x="260" y="546" on="0"/>
        <pt x="430" y="1129" on="0"/>
        <pt x="455" y="1462" on="1"/>
        <pt x="1430" y="1462" on="1"/>
        <pt x="1430" y="324" on="1"/>
        <pt x="1630" y="324" on="1"/>
      </contour>
      <contour>
        <pt x="1032" y="324" on="1"/>
        <pt x="1032" y="1139" on="1"/>
        <pt x="772" y="1139" on="1"/>
        <pt x="731" y="711" on="0"/>
        <pt x="547" y="324" on="1"/>
      </contour>
    </TTGlyph>
    <TTGlyph name="afii10022" xMin="158" yMin="0" xMax="1026" yMax="1462">
      <component glyphName="E" x="0" y="0" flags="0x204"/>
    </TTGlyph>
    <TTGlyph name="afii10023" xMin="158" yMin="0" xMax="1026" yMax="1909">
      <component glyphName="E" x="0" y="0" flags="0x204"/>
      <component glyphName="dieresis" x="-42" y="338" flags="0x4"/>
    </TTGlyph>
    <TTGlyph name="afii10024" xMin="-8" yMin="0" xMax="2109" yMax="1462">
      <contour>
        <pt x="455" y="764" on="1"/>
        <pt x="29" y="1462" on="1"/>
        <pt x="455" y="1462" on="1"/>
        <pt x="860" y="754" on="1"/>
        <pt x="860" y="1462" on="1"/>
        <pt x="1241" y="1462" on="1"/>
        <pt x="1241" y="754" on="1"/>
        <pt x="1649" y="1462" on="1"/>
        <pt x="2075" y="1462" on="1"/>
        <pt x="1645" y="764" on="1"/>
        <pt x="2109" y="0" on="1"/>
        <pt x="1673" y="0" on="1"/>
        <pt x="1241" y="741" on="1"/>
        <pt x="1241" y="0" on="1"/>
        <pt x="860" y="0" on="1"/>
        <pt x="860" y="741" on="1"/>
        <pt x="428" y="0" on="1"/>
        <pt x="-8" y="0" on="1"/>
      </contour>
    </TTGlyph>
    <TTGlyph name="afii10025" xMin="88" yMin="-20" xMax="1268" yMax="1483">
      <contour>
        <pt x="1212" y="1120" on="1"/>
        <pt x="1212" y="831" on="0"/>
        <pt x="868" y="772" on="1"/>
        <pt x="868" y="764" on="1"/>
        <pt x="1066" y="747" on="0"/>
        <pt x="1268" y="569" on="0"/>
        <pt x="1268" y="418" on="1"/>
        <pt x="1268" y="286" on="0"/>
        <pt x="1121" y="87" on="0"/>
        <pt x="843" y="-20" on="0"/>
        <pt x="653" y="-20" on="1"/>
        <pt x="304" y="-20" on="0"/>
        <pt x="96" y="59" on="1"/>
        <pt x="96" y="399" on="1"/>
        <pt x="181" y="356" on="0"/>
        <pt x="444" y="303" on="0"/>
        <pt x="551" y="303" on="1"/>
        <pt x="720" y="303" on="0"/>
        <pt x="862" y="373" on="0"/>
        <pt x="862" y="455" on="1"/>
        <pt x="862" y="602" on="0"/>
        <pt x="526" y="602" on="1"/>
        <pt x="354" y="602" on="1"/>
        <pt x="354" y="922" on="1"/>
        <pt x="508" y="922" on="1"/>
        <pt x="624" y="922" on="0"/>
        <pt x="755" y="945" on="0"/>
        <pt x="815" y="997" on="0"/>
        <pt x="815" y="1049" on="1"/>
        <pt x="815" y="1159" on="0"/>
        <pt x="604" y="1159" on="1"/>
        <pt x="405" y="1159" on="0"/>
        <pt x="254" y="1057" on="1"/>
        <pt x="88" y="1329" on="1"/>
        <pt x="219" y="1413" on="0"/>
        <pt x="489" y="1483" on="0"/>
        <pt x="680" y="1483" on="1"/>
        <pt x="921" y="1483" on="0"/>
        <pt x="1212" y="1283" on="0"/>
      </contour>
    </TTGlyph>
    <TTGlyph name="afii10026" xMin="158" yMin="0" xMax="1573" yMax="1462">
      <contour>
        <pt x="158" y="1462" on="1"/>
        <pt x="510" y="1462" on="1"/>
        <pt x="510" y="834" on="1"/>
        <pt x="510" y="734" on="0"/>
        <pt x="494" y="434" on="1"/>
        <pt x="502" y="434" on="1"/>
        <pt x="1085" y="1462" on="1"/>
        <pt x="1573" y="1462" on="1"/>
        <pt x="1573" y="0" on="1"/>
        <pt x="1223" y="0" on="1"/>
        <pt x="1223" y="612" on="1"/>
        <pt x="1223" y="751" on="0"/>
        <pt x="1241" y="1028" on="1"/>
        <pt x="1233" y="1028" on="1"/>
        <pt x="645" y="0" on="1"/>
        <pt x="158" y="0" on="1"/>
      </contour>
    </TTGlyph>
    <TTGlyph name="afii10027" xMin="158" yMin="0" xMax="1573" yMax="1960">
      <component glyphName="afii10026" x="0" y="0" flags="0x204"/>
      <component glyphName="cyrillicbreve" x="276" y="338" flags="0x4"/>
    </TTGlyph>
    <TTGlyph name="afii10028" xMin="158" yMin="0" xMax="1436" yMax="1462">
      <contour>
        <pt x="1436" y="0" on="1"/>
        <pt x="989" y="0" on="1"/>
        <pt x="555" y="741" on="1"/>
        <pt x="555" y="0" on="1"/>
        <pt x="158" y="0" on="1"/>
        <pt x="158" y="1462" on="1"/>
        <pt x="555" y="1462" on="1"/>
        <pt x="555" y="754" on="1"/>
        <pt x="973" y="1462" on="1"/>
        <pt x="1407" y="1462" on="1"/>
        <pt x="956" y="764" on="1"/>
      </contour>
    </TTGlyph>
    <TTGlyph name="afii10029" xMin="25" yMin="-20" xMax="1403" yMax="1462">
      <contour>
        <pt x="1403" y="0" on="1"/>
        <pt x="1006" y="0" on="1"/>
        <pt x="1006" y="1139" on="1"/>
        <pt x="727" y="1139" on="1"/>
        <pt x="704" y="890" on="0"/>
        <pt x="627" y="374" on="0"/>
        <pt x="557" y="166" on="0"/>
        <pt x="450" y="43" on="0"/>
        <pt x="292" y="-20" on="0"/>
        <pt x="180" y="-20" on="1"/>
        <pt x="95" y="-20" on="0"/>
        <pt x="25" y="2" on="1"/>
        <pt x="25" y="307" on="1"/>
        <pt x="85" y="287" on="0"/>
        <pt x="123" y="287" on="1"/>
        <pt x="175" y="287" on="0"/>
        <pt x="230" y="374" on="0"/>
        <pt x="276" y="583" on="0"/>
        <pt x="358" y="1150" on="0"/>
        <pt x="393" y="1462" on="1"/>
        <pt x="1403" y="1462" on="1"/>
      </contour>
    </TTGlyph>
    <TTGlyph name="afii10030" xMin="158" yMin="0" xMax="1823" yMax="1462">
      <component glyphName="M" x="0" y="0" flags="0x204"/>
    </TTGlyph>
    <TTGlyph name="afii10031" xMin="158" yMin="0" xMax="1411" yMax="1462">
      <component glyphName="H" x="0" y="0" flags="0x204"/>
    </TTGlyph>
    <TTGlyph name="afii10032" xMin="104" yMin="-20" xMax="1526" yMax="1485">
      <component glyphName="O" x="0" y="0" flags="0x204"/>
    </TTGlyph>
    <TTGlyph name="afii10033" xMin="158" yMin="0" xMax="1356" yMax="1462">
      <component glyphName="Pi" x="0" y="0" flags="0x204"/>
    </TTGlyph>
    <TTGlyph name="afii10034" xMin="158" yMin="0" xMax="1219" yMax="1462">
      <component glyphName="P" x="0" y="0" flags="0x204"/>
    </TTGlyph>
    <TTGlyph name="afii10035" xMin="104" yMin="-20" xMax="1266" yMax="1483">
      <component glyphName="C" x="0" y="0" flags="0x204"/>
    </TTGlyph>
    <TTGlyph name="afii10036" xMin="51" yMin="0" xMax="1159" yMax="1462">
      <component glyphName="T" x="0" y="0" flags="0x204"/>
    </TTGlyph>
    <TTGlyph name="afii10037" xMin="25" yMin="-20" xMax="1419" yMax="1462">
      <contour>
        <pt x="346" y="-20" on="1"/>
        <pt x="206" y="-20" on="0"/>
        <pt x="90" y="10" on="1"/>
        <pt x="90" y="324" on="1"/>
        <pt x="184" y="287" on="0"/>
        <pt x="328" y="287" on="1"/>
        <pt x="390" y="287" on="0"/>
        <pt x="475" y="344" on="0"/>
        <pt x="502" y="416" on="1"/>
        <pt x="25" y="1462" on="1"/>
        <pt x="451" y="1462" on="1"/>
        <pt x="631" y="1016" on="1"/>
        <pt x="641" y="990" on="0"/>
        <pt x="670" y="918" on="0"/>
        <pt x="698" y="841" on="0"/>
        <pt x="722" y="765" on="0"/>
        <pt x="729" y="737" on="1"/>
        <pt x="743" y="737" on="1"/>
        <pt x="777" y="873" on="0"/>
        <pt x="844" y="1055" on="1"/>
        <pt x="993" y="1462" on="1"/>
        <pt x="1419" y="1462" on="1"/>
        <pt x="975" y="436" on="1"/>
        <pt x="892" y="244" on="0"/>
        <pt x="732" y="63" on="0"/>
        <pt x="509" y="-20" on="0"/>
      </contour>
    </TTGlyph>
    <TTGlyph name="afii10038" xMin="76" yMin="-20" xMax="1755" yMax="1483">
      <component glyphName="Phi" x="0" y="0" flags="0x204"/>
    </TTGlyph>
    <TTGlyph name="afii10039" xMin="4" yMin="0" xMax="1475" yMax="1462">
      <component glyphName="X" x="0" y="0" flags="0x204"/>
    </TTGlyph>
    <TTGlyph name="afii10040" xMin="158" yMin="-455" xMax="1665" yMax="1462">
      <contour>
        <pt x="1358" y="324" on="1"/>
        <pt x="1665" y="324" on="1"/>
        <pt x="1665" y="-455" on="1"/>
        <pt x="1280" y="-455" on="1"/>
        <pt x="1280" y="0" on="1"/>
        <pt x="158" y="0" on="1"/>
        <pt x="158" y="1462" on="1"/>
        <pt x="555" y="1462" on="1"/>
        <pt x="555" y="324" on="1"/>
        <pt x="961" y="324" on="1"/>
        <pt x="961" y="1462" on="1"/>
        <pt x="1358" y="1462" on="1"/>
      </contour>
    </TTGlyph>
    <TTGlyph name="afii10041" xMin="106" yMin="0" xMax="1397" yMax="1462">
      <contour>
        <pt x="1397" y="0" on="1"/>
        <pt x="999" y="0" on="1"/>
        <pt x="999" y="541" on="1"/>
        <pt x="746" y="453" on="0"/>
        <pt x="547" y="453" on="1"/>
        <pt x="339" y="453" on="0"/>
        <pt x="106" y="658" on="0"/>
        <pt x="106" y="844" on="1"/>
        <pt x="106" y="1462" on="1"/>
        <pt x="504" y="1462" on="1"/>
        <pt x="504" y="975" on="1"/>
        <pt x="504" y="868" on="0"/>
        <pt x="590" y="776" on="0"/>
        <pt x="684" y="776" on="1"/>
        <pt x="812" y="776" on="0"/>
        <pt x="999" y="844" on="1"/>
        <pt x="999" y="1462" on="1"/>
        <pt x="1397" y="1462" on="1"/>
      </contour>
    </TTGlyph>
    <TTGlyph name="afii10042" xMin="158" yMin="0" xMax="2071" yMax="1462">
      <contour>
        <pt x="2071" y="0" on="1"/>
        <pt x="158" y="0" on="1"/>
        <pt x="158" y="1462" on="1"/>
        <pt x="555" y="1462" on="1"/>
        <pt x="555" y="324" on="1"/>
        <pt x="920" y="324" on="1"/>
        <pt x="920" y="1462" on="1"/>
        <pt x="1309" y="1462" on="1"/>
        <pt x="1309" y="324" on="1"/>
        <pt x="1673" y="324" on="1"/>
        <pt x="1673" y="1462" on="1"/>
        <pt x="2071" y="1462" on="1"/>
      </contour>
    </TTGlyph>
    <TTGlyph name="afii10043" xMin="158" yMin="-455" xMax="2378" yMax="1462">
      <contour>
        <pt x="158" y="0" on="1"/>
        <pt x="158" y="1462" on="1"/>
        <pt x="555" y="1462" on="1"/>
        <pt x="555" y="324" on="1"/>
        <pt x="920" y="324" on="1"/>
        <pt x="920" y="1462" on="1"/>
        <pt x="1309" y="1462" on="1"/>
        <pt x="1309" y="324" on="1"/>
        <pt x="1673" y="324" on="1"/>
        <pt x="1673" y="1462" on="1"/>
        <pt x="2071" y="1462" on="1"/>
        <pt x="2071" y="324" on="1"/>
        <pt x="2378" y="324" on="1"/>
        <pt x="2378" y="-455" on="1"/>
        <pt x="1993" y="-455" on="1"/>
        <pt x="1993" y="0" on="1"/>
      </contour>
    </TTGlyph>
    <TTGlyph name="afii10044" xMin="51" yMin="0" xMax="1489" yMax="1462">
      <contour>
        <pt x="1489" y="485" on="1"/>
        <pt x="1489" y="251" on="0"/>
        <pt x="1170" y="0" on="0"/>
        <pt x="877" y="0" on="1"/>
        <pt x="408" y="0" on="1"/>
        <pt x="408" y="1139" on="1"/>
        <pt x="51" y="1139" on="1"/>
        <pt x="51" y="1462" on="1"/>
        <pt x="805" y="1462" on="1"/>
        <pt x="805" y="942" on="1"/>
        <pt x="862" y="942" on="1"/>
        <pt x="1168" y="942" on="0"/>
        <pt x="1489" y="711" on="0"/>
      </contour>
      <contour>
        <pt x="805" y="305" on="1"/>
        <pt x="858" y="305" on="1"/>
        <pt x="1090" y="305" on="0"/>
        <pt x="1090" y="477" on="1"/>
        <pt x="1090" y="643" on="0"/>
        <pt x="856" y="643" on="1"/>
        <pt x="805" y="643" on="1"/>
      </contour>
    </TTGlyph>
    <TTGlyph name="afii10045" xMin="158" yMin="0" xMax="1733" yMax="1462">
      <contour>
        <pt x="1202" y="485" on="1"/>
        <pt x="1202" y="251" on="0"/>
        <pt x="883" y="0" on="0"/>
        <pt x="590" y="0" on="1"/>
        <pt x="158" y="0" on="1"/>
        <pt x="158" y="1462" on="1"/>
        <pt x="555" y="1462" on="1"/>
        <pt x="555" y="942" on="1"/>
        <pt x="575" y="942" on="1"/>
        <pt x="881" y="942" on="0"/>
        <pt x="1202" y="711" on="0"/>
      </contour>
      <contour>
        <pt x="555" y="305" on="1"/>
        <pt x="571" y="305" on="1"/>
        <pt x="803" y="305" on="0"/>
        <pt x="803" y="477" on="1"/>
        <pt x="803" y="643" on="0"/>
        <pt x="569" y="643" on="1"/>
        <pt x="555" y="643" on="1"/>
      </contour>
      <contour>
        <pt x="1733" y="0" on="1"/>
        <pt x="1335" y="0" on="1"/>
        <pt x="1335" y="1462" on="1"/>
        <pt x="1733" y="1462" on="1"/>
      </contour>
    </TTGlyph>
    <TTGlyph name="afii10046" xMin="158" yMin="0" xMax="1202" yMax="1462">
      <contour>
        <pt x="1202" y="485" on="1"/>
        <pt x="1202" y="251" on="0"/>
        <pt x="883" y="0" on="0"/>
        <pt x="590" y="0" on="1"/>
        <pt x="158" y="0" on="1"/>
        <pt x="158" y="1462" on="1"/>
        <pt x="555" y="1462" on="1"/>
        <pt x="555" y="942" on="1"/>
        <pt x="575" y="942" on="1"/>
        <pt x="881" y="942" on="0"/>
        <pt x="1202" y="711" on="0"/>
      </contour>
      <contour>
        <pt x="555" y="303" on="1"/>
        <pt x="573" y="303" on="1"/>
        <pt x="805" y="303" on="0"/>
        <pt x="805" y="475" on="1"/>
        <pt x="805" y="639" on="0"/>
        <pt x="571" y="639" on="1"/>
        <pt x="555" y="639" on="1"/>
      </contour>
    </TTGlyph>
    <TTGlyph name="afii10047" xMin="82" yMin="-20" xMax="1266" yMax="1481">
      <contour>
        <pt x="553" y="1157" on="1"/>
        <pt x="481" y="1157" on="0"/>
        <pt x="279" y="1107" on="0"/>
        <pt x="197" y="1067" on="1"/>
        <pt x="82" y="1376" on="1"/>
        <pt x="218" y="1435" on="0"/>
        <pt x="448" y="1481" on="0"/>
        <pt x="567" y="1481" on="1"/>
        <pt x="901" y="1481" on="0"/>
        <pt x="1266" y="1092" on="0"/>
        <pt x="1266" y="735" on="1"/>
        <pt x="1266" y="366" on="0"/>
        <pt x="903" y="-20" on="0"/>
        <pt x="555" y="-20" on="1"/>
        <pt x="296" y="-20" on="0"/>
        <pt x="92" y="63" on="1"/>
        <pt x="92" y="395" on="1"/>
        <pt x="330" y="303" on="0"/>
        <pt x="555" y="303" on="1"/>
        <pt x="689" y="303" on="0"/>
        <pt x="839" y="435" on="0"/>
        <pt x="848" y="561" on="1"/>
        <pt x="264" y="561" on="1"/>
        <pt x="264" y="879" on="1"/>
        <pt x="848" y="879" on="1"/>
        <pt x="839" y="1013" on="0"/>
        <pt x="684" y="1157" on="0"/>
      </contour>
    </TTGlyph>
    <TTGlyph name="afii10048" xMin="158" yMin="-20" xMax="2097" yMax="1485">
      <contour>
        <pt x="2097" y="733" on="1"/>
        <pt x="2097" y="362" on="0"/>
        <pt x="1759" y="-20" on="0"/>
        <pt x="1436" y="-20" on="1"/>
        <pt x="860" y="-20" on="0"/>
        <pt x="799" y="596" on="1"/>
        <pt x="555" y="596" on="1"/>
        <pt x="555" y="0" on="1"/>
        <pt x="158" y="0" on="1"/>
        <pt x="158" y="1462" on="1"/>
        <pt x="555" y="1462" on="1"/>
        <pt x="555" y="920" on="1"/>
        <pt x="805" y="920" on="1"/>
        <pt x="883" y="1485" on="0"/>
        <pt x="1438" y="1485" on="1"/>
        <pt x="1762" y="1485" on="0"/>
        <pt x="2097" y="1103" on="0"/>
      </contour>
      <contour>
        <pt x="1190" y="733" on="1"/>
        <pt x="1190" y="309" on="0"/>
        <pt x="1436" y="309" on="1"/>
        <pt x="1560" y="309" on="0"/>
        <pt x="1681" y="515" on="0"/>
        <pt x="1681" y="733" on="1"/>
        <pt x="1681" y="1161" on="0"/>
        <pt x="1438" y="1161" on="1"/>
        <pt x="1190" y="1161" on="0"/>
      </contour>
    </TTGlyph>
    <TTGlyph name="afii10049" xMin="-20" yMin="0" xMax="1233" yMax="1462">
      <contour>
        <pt x="717" y="532" on="1"/>
        <pt x="428" y="0" on="1"/>
        <pt x="-20" y="0" on="1"/>
        <pt x="381" y="639" on="1"/>
        <pt x="270" y="701" on="0"/>
        <pt x="152" y="904" on="0"/>
        <pt x="152" y="1030" on="1"/>
        <pt x="152" y="1462" on="0"/>
        <pt x="748" y="1462" on="1"/>
        <pt x="1233" y="1462" on="1"/>
        <pt x="1233" y="0" on="1"/>
        <pt x="838" y="0" on="1"/>
        <pt x="838" y="532" on="1"/>
      </contour>
      <contour>
        <pt x="838" y="1163" on="1"/>
        <pt x="754" y="1163" on="1"/>
        <pt x="659" y="1163" on="0"/>
        <pt x="551" y="1087" on="0"/>
        <pt x="551" y="1012" on="1"/>
        <pt x="551" y="921" on="0"/>
        <pt x="654" y="829" on="0"/>
        <pt x="764" y="829" on="1"/>
        <pt x="838" y="829" on="1"/>
      </contour>
    </TTGlyph>
    <TTGlyph name="afii10050" xMin="158" yMin="0" xMax="1206" yMax="1776">
      <contour>
        <pt x="860" y="1462" on="1"/>
        <pt x="860" y="1776" on="1"/>
        <pt x="1206" y="1776" on="1"/>
        <pt x="1206" y="1143" on="1"/>
        <pt x="555" y="1143" on="1"/>
        <pt x="555" y="0" on="1"/>
        <pt x="158" y="0" on="1"/>
        <pt x="158" y="1462" on="1"/>
      </contour>
    </TTGlyph>
    <TTGlyph name="afii10051" xMin="51" yMin="-20" xMax="1597" yMax="1462">
      <contour>
        <pt x="1167" y="-20" on="1"/>
        <pt x="1036" y="-20" on="0"/>
        <pt x="973" y="8" on="1"/>
        <pt x="973" y="313" on="1"/>
        <pt x="1039" y="283" on="0"/>
        <pt x="1108" y="283" on="1"/>
        <pt x="1202" y="283" on="0"/>
        <pt x="1202" y="385" on="1"/>
        <pt x="1202" y="524" on="1"/>
        <pt x="1202" y="633" on="0"/>
        <pt x="1081" y="633" on="1"/>
        <pt x="805" y="633" on="1"/>
        <pt x="805" y="0" on="1"/>
        <pt x="408" y="0" on="1"/>
        <pt x="408" y="1139" on="1"/>
        <pt x="51" y="1139" on="1"/>
        <pt x="51" y="1462" on="1"/>
        <pt x="1198" y="1462" on="1"/>
        <pt x="1198" y="1139" on="1"/>
        <pt x="805" y="1139" on="1"/>
        <pt x="805" y="956" on="1"/>
        <pt x="1092" y="956" on="1"/>
        <pt x="1337" y="956" on="0"/>
        <pt x="1597" y="739" on="0"/>
        <pt x="1597" y="545" on="1"/>
        <pt x="1597" y="424" on="1"/>
        <pt x="1597" y="-20" on="0"/>
      </contour>
    </TTGlyph>
    <TTGlyph name="afii10052" xMin="158" yMin="0" xMax="1133" yMax="1907">
      <component glyphName="Gamma" x="0" y="0" flags="0x204"/>
      <component glyphName="acute" x="172" y="338" flags="0x4"/>
    </TTGlyph>
    <TTGlyph name="afii10053" xMin="104" yMin="-20" xMax="1343" yMax="1481">
      <contour>
        <pt x="836" y="1157" on="1"/>
        <pt x="560" y="1157" on="0"/>
        <pt x="514" y="879" on="1"/>
        <pt x="1098" y="879" on="1"/>
        <pt x="1098" y="561" on="1"/>
        <pt x="514" y="561" on="1"/>
        <pt x="528" y="437" on="0"/>
        <pt x="698" y="303" on="0"/>
        <pt x="844" y="303" on="1"/>
        <pt x="933" y="303" on="0"/>
        <pt x="1131" y="345" on="0"/>
        <pt x="1290" y="395" on="1"/>
        <pt x="1290" y="68" on="1"/>
        <pt x="1168" y="19" on="0"/>
        <pt x="965" y="-20" on="0"/>
        <pt x="829" y="-20" on="1"/>
        <pt x="479" y="-20" on="0"/>
        <pt x="104" y="366" on="0"/>
        <pt x="104" y="727" on="1"/>
        <pt x="104" y="950" on="0"/>
        <pt x="287" y="1294" on="0"/>
        <pt x="629" y="1481" on="0"/>
        <pt x="858" y="1481" on="1"/>
        <pt x="988" y="1481" on="0"/>
        <pt x="1222" y="1428" on="0"/>
        <pt x="1343" y="1370" on="1"/>
        <pt x="1208" y="1051" on="1"/>
        <pt x="1021" y="1157" on="0"/>
      </contour>
    </TTGlyph>
    <TTGlyph name="afii10054" xMin="90" yMin="-20" xMax="1114" yMax="1483">
      <component glyphName="S" x="0" y="0" flags="0x204"/>
    </TTGlyph>
    <TTGlyph name="afii10055" xMin="158" yMin="0" xMax="555" yMax="1462">
      <component glyphName="I" x="0" y="0" flags="0x204"/>
    </TTGlyph>
    <TTGlyph name="afii10055.alt" xMin="70" yMin="0" xMax="831" yMax="1462">
      <component glyphName="I.alt" x="0" y="0" flags="0x204"/>
    </TTGlyph>
    <TTGlyph name="afii10056" xMin="-55" yMin="0" xMax="769" yMax="1909">
      <component glyphName="I" x="0" y="0" flags="0x204"/>
      <component glyphName="dieresis" x="-278" y="338" flags="0x4"/>
    </TTGlyph>
    <TTGlyph name="afii10056.alt" xMin="40" yMin="0" xMax="864" yMax="1909">
      <component glyphName="I.alt" x="0" y="0" flags="0x204"/>
      <component glyphName="dieresis" x="-183" y="338" flags="0x4"/>
    </TTGlyph>
    <TTGlyph name="afii10057" xMin="-162" yMin="-459" xMax="563" yMax="1462">
      <component glyphName="J" x="0" y="0" flags="0x204"/>
    </TTGlyph>
    <TTGlyph name="afii10058" xMin="25" yMin="-20" xMax="2038" yMax="1462">
      <contour>
        <pt x="727" y="1139" on="1"/>
        <pt x="704" y="890" on="0"/>
        <pt x="627" y="374" on="0"/>
        <pt x="557" y="166" on="0"/>
        <pt x="450" y="43" on="0"/>
        <pt x="292" y="-20" on="0"/>
        <pt x="180" y="-20" on="1"/>
        <pt x="95" y="-20" on="0"/>
        <pt x="25" y="2" on="1"/>
        <pt x="25" y="307" on="1"/>
        <pt x="85" y="287" on="0"/>
        <pt x="123" y="287" on="1"/>
        <pt x="175" y="287" on="0"/>
        <pt x="230" y="374" on="0"/>
        <pt x="276" y="583" on="0"/>
        <pt x="358" y="1150" on="0"/>
        <pt x="393" y="1462" on="1"/>
        <pt x="1362" y="1462" on="1"/>
        <pt x="1362" y="942" on="1"/>
        <pt x="1411" y="942" on="1"/>
        <pt x="1717" y="942" on="0"/>
        <pt x="2038" y="711" on="0"/>
        <pt x="2038" y="485" on="1"/>
        <pt x="2038" y="253" on="0"/>
        <pt x="1720" y="0" on="0"/>
        <pt x="1425" y="0" on="1"/>
        <pt x="965" y="0" on="1"/>
        <pt x="965" y="1139" on="1"/>
      </contour>
      <contour>
        <pt x="1362" y="305" on="1"/>
        <pt x="1407" y="305" on="1"/>
        <pt x="1638" y="305" on="0"/>
        <pt x="1638" y="477" on="1"/>
        <pt x="1638" y="643" on="0"/>
        <pt x="1405" y="643" on="1"/>
        <pt x="1362" y="643" on="1"/>
      </contour>
    </TTGlyph>
    <TTGlyph name="afii10059" xMin="158" yMin="0" xMax="1993" yMax="1462">
      <contour>
        <pt x="920" y="596" on="1"/>
        <pt x="555" y="596" on="1"/>
        <pt x="555" y="0" on="1"/>
        <pt x="158" y="0" on="1"/>
        <pt x="158" y="1462" on="1"/>
        <pt x="555" y="1462" on="1"/>
        <pt x="555" y="920" on="1"/>
        <pt x="920" y="920" on="1"/>
        <pt x="920" y="1462" on="1"/>
        <pt x="1317" y="1462" on="1"/>
        <pt x="1317" y="942" on="1"/>
        <pt x="1366" y="942" on="1"/>
        <pt x="1672" y="942" on="0"/>
        <pt x="1993" y="711" on="0"/>
        <pt x="1993" y="485" on="1"/>
        <pt x="1993" y="253" on="0"/>
        <pt x="1675" y="0" on="0"/>
        <pt x="1380" y="0" on="1"/>
        <pt x="920" y="0" on="1"/>
      </contour>
      <contour>
        <pt x="1317" y="305" on="1"/>
        <pt x="1362" y="305" on="1"/>
        <pt x="1593" y="305" on="0"/>
        <pt x="1593" y="477" on="1"/>
        <pt x="1593" y="643" on="0"/>
        <pt x="1360" y="643" on="1"/>
        <pt x="1317" y="643" on="1"/>
      </contour>
    </TTGlyph>
    <TTGlyph name="afii10060" xMin="51" yMin="0" xMax="1597" yMax="1462">
      <contour>
        <pt x="1202" y="524" on="1"/>
        <pt x="1202" y="633" on="0"/>
        <pt x="1081" y="633" on="1"/>
        <pt x="805" y="633" on="1"/>
        <pt x="805" y="0" on="1"/>
        <pt x="408" y="0" on="1"/>
        <pt x="408" y="1139" on="1"/>
        <pt x="51" y="1139" on="1"/>
        <pt x="51" y="1462" on="1"/>
        <pt x="1198" y="1462" on="1"/>
        <pt x="1198" y="1139" on="1"/>
        <pt x="805" y="1139" on="1"/>
        <pt x="805" y="956" on="1"/>
        <pt x="1092" y="956" on="1"/>
        <pt x="1337" y="956" on="0"/>
        <pt x="1597" y="739" on="0"/>
        <pt x="1597" y="545" on="1"/>
        <pt x="1597" y="0" on="1"/>
        <pt x="1202" y="0" on="1"/>
      </contour>
    </TTGlyph>
    <TTGlyph name="afii10061" xMin="158" yMin="0" xMax="1436" yMax="1907">
      <component glyphName="afii10028" x="0" y="0" flags="0x204"/>
      <component glyphName="acute" x="313" y="338" flags="0x4"/>
    </TTGlyph>
    <TTGlyph name="afii10062" xMin="25" yMin="-20" xMax="1419" yMax="1960">
      <component glyphName="afii10037" x="0" y="0" flags="0x204"/>
      <component glyphName="cyrillicbreve" x="129" y="338" flags="0x4"/>
    </TTGlyph>
    <TTGlyph name="afii10065" xMin="74" yMin="-20" xMax="1145" yMax="1153">
      <component glyphName="a" x="0" y="0" flags="0x204"/>
    </TTGlyph>
    <TTGlyph name="afii10066" xMin="88" yMin="-20" xMax="1247" yMax="1575">
      <contour>
        <pt x="88" y="678" on="1"/>
        <pt x="88" y="850" on="0"/>
        <pt x="149" y="1127" on="0"/>
        <pt x="288" y="1332" on="0"/>
        <pt x="511" y="1470" on="0"/>
        <pt x="825" y="1543" on="0"/>
        <pt x="1210" y="1575" on="1"/>
        <pt x="1247" y="1251" on="1"/>
        <pt x="1131" y="1242" on="0"/>
        <pt x="731" y="1199" on="0"/>
        <pt x="600" y="1157" on="0"/>
        <pt x="519" y="1086" on="0"/>
        <pt x="480" y="979" on="0"/>
        <pt x="475" y="893" on="1"/>
        <pt x="492" y="893" on="1"/>
        <pt x="527" y="963" on="0"/>
        <pt x="695" y="1057" on="0"/>
        <pt x="799" y="1057" on="1"/>
        <pt x="1011" y="1057" on="0"/>
        <pt x="1241" y="806" on="0"/>
        <pt x="1241" y="569" on="1"/>
        <pt x="1241" y="292" on="0"/>
        <pt x="934" y="-20" on="0"/>
        <pt x="662" y="-20" on="1"/>
        <pt x="394" y="-20" on="0"/>
        <pt x="88" y="348" on="0"/>
      </contour>
      <contour>
        <pt x="682" y="270" on="1"/>
        <pt x="844" y="270" on="0"/>
        <pt x="844" y="526" on="1"/>
        <pt x="844" y="778" on="0"/>
        <pt x="696" y="778" on="1"/>
        <pt x="638" y="778" on="0"/>
        <pt x="506" y="685" on="0"/>
        <pt x="485" y="637" on="1"/>
        <pt x="485" y="473" on="0"/>
        <pt x="591" y="270" on="0"/>
      </contour>
    </TTGlyph>
    <TTGlyph name="afii10067" xMin="135" yMin="0" xMax="1280" yMax="1133">
      <contour>
        <pt x="1245" y="840" on="1"/>
        <pt x="1245" y="741" on="0"/>
        <pt x="1129" y="611" on="0"/>
        <pt x="1028" y="594" on="1"/>
        <pt x="1028" y="586" on="1"/>
        <pt x="1150" y="572" on="0"/>
        <pt x="1280" y="433" on="0"/>
        <pt x="1280" y="324" on="1"/>
        <pt x="1280" y="0" on="0"/>
        <pt x="752" y="0" on="1"/>
        <pt x="135" y="0" on="1"/>
        <pt x="135" y="1133" on="1"/>
        <pt x="754" y="1133" on="1"/>
        <pt x="1001" y="1133" on="0"/>
        <pt x="1245" y="989" on="0"/>
      </contour>
      <contour>
        <pt x="883" y="362" on="1"/>
        <pt x="883" y="415" on="0"/>
        <pt x="811" y="461" on="0"/>
        <pt x="743" y="461" on="1"/>
        <pt x="526" y="461" on="1"/>
        <pt x="526" y="256" on="1"/>
        <pt x="739" y="256" on="1"/>
        <pt x="883" y="256" on="0"/>
      </contour>
      <contour>
        <pt x="856" y="788" on="1"/>
        <pt x="856" y="877" on="0"/>
        <pt x="748" y="877" on="1"/>
        <pt x="526" y="877" on="1"/>
        <pt x="526" y="707" on="1"/>
        <pt x="733" y="707" on="1"/>
        <pt x="795" y="707" on="0"/>
        <pt x="856" y="753" on="0"/>
      </contour>
    </TTGlyph>
    <TTGlyph name="afii10068" xMin="135" yMin="0" xMax="977" yMax="1133">
      <contour>
        <pt x="977" y="1133" on="1"/>
        <pt x="977" y="842" on="1"/>
        <pt x="526" y="842" on="1"/>
        <pt x="526" y="0" on="1"/>
        <pt x="135" y="0" on="1"/>
        <pt x="135" y="1133" on="1"/>
      </contour>
    </TTGlyph>
    <TTGlyph name="afii10069" xMin="25" yMin="-416" xMax="1458" yMax="1133">
      <contour>
        <pt x="1458" y="-416" on="1"/>
        <pt x="1116" y="-416" on="1"/>
        <pt x="1116" y="0" on="1"/>
        <pt x="367" y="0" on="1"/>
        <pt x="367" y="-416" on="1"/>
        <pt x="25" y="-416" on="1"/>
        <pt x="25" y="291" on="1"/>
        <pt x="125" y="291" on="1"/>
        <pt x="212" y="439" on="0"/>
        <pt x="331" y="882" on="0"/>
        <pt x="354" y="1133" on="1"/>
        <pt x="1290" y="1133" on="1"/>
        <pt x="1290" y="291" on="1"/>
        <pt x="1458" y="291" on="1"/>
      </contour>
      <contour>
        <pt x="899" y="291" on="1"/>
        <pt x="899" y="842" on="1"/>
        <pt x="676" y="842" on="1"/>
        <pt x="658" y="707" on="0"/>
        <pt x="596" y="451" on="0"/>
        <pt x="537" y="291" on="1"/>
      </contour>
    </TTGlyph>
    <TTGlyph name="afii10070" xMin="86" yMin="-20" xMax="1180" yMax="1153">
      <component glyphName="e" x="0" y="0" flags="0x204"/>
    </TTGlyph>
    <TTGlyph name="afii10071" xMin="86" yMin="-20" xMax="1180" yMax="1571">
      <component glyphName="e" x="0" y="0" flags="0x204"/>
      <component glyphName="dieresis" x="29" y="0" flags="0x4"/>
    </TTGlyph>
    <TTGlyph name="afii10072" xMin="-8" yMin="0" xMax="1995" yMax="1133">
      <contour>
        <pt x="803" y="584" on="1"/>
        <pt x="803" y="1133" on="1"/>
        <pt x="1184" y="1133" on="1"/>
        <pt x="1184" y="584" on="1"/>
        <pt x="1536" y="1133" on="1"/>
        <pt x="1956" y="1133" on="1"/>
        <pt x="1573" y="594" on="1"/>
        <pt x="1995" y="0" on="1"/>
        <pt x="1569" y="0" on="1"/>
        <pt x="1184" y="575" on="1"/>
        <pt x="1184" y="0" on="1"/>
        <pt x="803" y="0" on="1"/>
        <pt x="803" y="575" on="1"/>
        <pt x="418" y="0" on="1"/>
        <pt x="-8" y="0" on="1"/>
        <pt x="414" y="594" on="1"/>
        <pt x="31" y="1133" on="1"/>
        <pt x="451" y="1133" on="1"/>
      </contour>
    </TTGlyph>
    <TTGlyph name="afii10073" xMin="72" yMin="-20" xMax="1071" yMax="1153">
      <contour>
        <pt x="436" y="715" on="1"/>
        <pt x="553" y="715" on="0"/>
        <pt x="655" y="755" on="0"/>
        <pt x="655" y="799" on="1"/>
        <pt x="655" y="874" on="0"/>
        <pt x="506" y="874" on="1"/>
        <pt x="361" y="874" on="0"/>
        <pt x="203" y="803" on="1"/>
        <pt x="92" y="1067" on="1"/>
        <pt x="213" y="1117" on="0"/>
        <pt x="410" y="1153" on="0"/>
        <pt x="522" y="1153" on="1"/>
        <pt x="765" y="1153" on="0"/>
        <pt x="1024" y="994" on="0"/>
        <pt x="1024" y="846" on="1"/>
        <pt x="1024" y="755" on="0"/>
        <pt x="913" y="622" on="0"/>
        <pt x="819" y="598" on="1"/>
        <pt x="819" y="588" on="1"/>
        <pt x="939" y="572" on="0"/>
        <pt x="1071" y="434" on="0"/>
        <pt x="1071" y="322" on="1"/>
        <pt x="1071" y="-20" on="0"/>
        <pt x="504" y="-20" on="1"/>
        <pt x="379" y="-20" on="0"/>
        <pt x="184" y="12" on="0"/>
        <pt x="72" y="59" on="1"/>
        <pt x="72" y="358" on="1"/>
        <pt x="265" y="270" on="0"/>
        <pt x="481" y="270" on="1"/>
        <pt x="574" y="270" on="0"/>
        <pt x="680" y="318" on="0"/>
        <pt x="680" y="367" on="1"/>
        <pt x="680" y="421" on="0"/>
        <pt x="585" y="461" on="0"/>
        <pt x="461" y="461" on="1"/>
        <pt x="313" y="461" on="1"/>
        <pt x="313" y="715" on="1"/>
      </contour>
    </TTGlyph>
    <TTGlyph name="afii10074" xMin="135" yMin="0" xMax="1354" yMax="1133">
      <contour>
        <pt x="483" y="1133" on="1"/>
        <pt x="483" y="848" on="1"/>
        <pt x="483" y="824" on="0"/>
        <pt x="482" y="768" on="0"/>
        <pt x="469" y="440" on="1"/>
        <pt x="922" y="1133" on="1"/>
        <pt x="1354" y="1133" on="1"/>
        <pt x="1354" y="0" on="1"/>
        <pt x="1006" y="0" on="1"/>
        <pt x="1006" y="307" on="1"/>
        <pt x="1006" y="468" on="0"/>
        <pt x="1020" y="688" on="1"/>
        <pt x="569" y="0" on="1"/>
        <pt x="135" y="0" on="1"/>
        <pt x="135" y="1133" on="1"/>
      </contour>
    </TTGlyph>
    <TTGlyph name="afii10075" xMin="135" yMin="0" xMax="1354" yMax="1622">
      <component glyphName="afii10074" x="0" y="0" flags="0x204"/>
      <component glyphName="cyrillicbreve" x="172" y="0" flags="0x4"/>
    </TTGlyph>
    <TTGlyph name="afii10076" xMin="135" yMin="0" xMax="1393" yMax="1133">
      <contour>
        <pt x="928" y="1133" on="1"/>
        <pt x="1360" y="1133" on="1"/>
        <pt x="936" y="590" on="1"/>
        <pt x="1393" y="0" on="1"/>
        <pt x="946" y="0" on="1"/>
        <pt x="526" y="575" on="1"/>
        <pt x="526" y="0" on="1"/>
        <pt x="135" y="0" on="1"/>
        <pt x="135" y="1133" on="1"/>
        <pt x="526" y="1133" on="1"/>
        <pt x="526" y="584" on="1"/>
      </contour>
    </TTGlyph>
    <TTGlyph name="afii10077" xMin="16" yMin="-20" xMax="1272" yMax="1133">
      <contour>
        <pt x="1272" y="0" on="1"/>
        <pt x="881" y="0" on="1"/>
        <pt x="881" y="842" on="1"/>
        <pt x="651" y="842" on="1"/>
        <pt x="618" y="477" on="0"/>
        <pt x="518" y="134" on="0"/>
        <pt x="342" y="-20" on="0"/>
        <pt x="193" y="-20" on="1"/>
        <pt x="89" y="-20" on="0"/>
        <pt x="16" y="10" on="1"/>
        <pt x="16" y="301" on="1"/>
        <pt x="49" y="283" on="0"/>
        <pt x="104" y="283" on="1"/>
        <pt x="149" y="283" on="0"/>
        <pt x="205" y="376" on="0"/>
        <pt x="248" y="580" on="0"/>
        <pt x="283" y="900" on="0"/>
        <pt x="299" y="1133" on="1"/>
        <pt x="1272" y="1133" on="1"/>
      </contour>
    </TTGlyph>
    <TTGlyph name="afii10078" xMin="135" yMin="0" xMax="1624" yMax="1133">
      <contour>
        <pt x="1624" y="0" on="1"/>
        <pt x="1274" y="0" on="1"/>
        <pt x="1274" y="846" on="1"/>
        <pt x="1242" y="717" on="0"/>
        <pt x="1161" y="442" on="0"/>
        <pt x="1014" y="0" on="1"/>
        <pt x="748" y="0" on="1"/>
        <pt x="631" y="362" on="1"/>
        <pt x="572" y="544" on="0"/>
        <pt x="507" y="771" on="1"/>
        <pt x="485" y="846" on="1"/>
        <pt x="485" y="0" on="1"/>
        <pt x="135" y="0" on="1"/>
        <pt x="135" y="1133" on="1"/>
        <pt x="670" y="1133" on="1"/>
        <pt x="758" y="868" on="1"/>
        <pt x="783" y="792" on="0"/>
        <pt x="871" y="461" on="0"/>
        <pt x="881" y="397" on="1"/>
        <pt x="887" y="444" on="0"/>
        <pt x="952" y="663" on="1"/>
        <pt x="991" y="797" on="1"/>
        <pt x="1100" y="1133" on="1"/>
        <pt x="1624" y="1133" on="1"/>
      </contour>
    </TTGlyph>
    <TTGlyph name="afii10079" xMin="135" yMin="0" xMax="1227" yMax="1133">
      <contour>
        <pt x="526" y="1133" on="1"/>
        <pt x="526" y="725" on="1"/>
        <pt x="836" y="725" on="1"/>
        <pt x="836" y="1133" on="1"/>
        <pt x="1227" y="1133" on="1"/>
        <pt x="1227" y="0" on="1"/>
        <pt x="836" y="0" on="1"/>
        <pt x="836" y="434" on="1"/>
        <pt x="526" y="434" on="1"/>
        <pt x="526" y="0" on="1"/>
        <pt x="135" y="0" on="1"/>
        <pt x="135" y="1133" on="1"/>
      </contour>
    </TTGlyph>
    <TTGlyph name="afii10080" xMin="86" yMin="-20" xMax="1217" yMax="1153">
      <component glyphName="o" x="0" y="0" flags="0x204"/>
    </TTGlyph>
    <TTGlyph name="afii10081" xMin="135" yMin="0" xMax="1210" yMax="1133">
      <contour>
        <pt x="1210" y="1133" on="1"/>
        <pt x="1210" y="0" on="1"/>
        <pt x="819" y="0" on="1"/>
        <pt x="819" y="842" on="1"/>
        <pt x="526" y="842" on="1"/>
        <pt x="526" y="0" on="1"/>
        <pt x="135" y="0" on="1"/>
        <pt x="135" y="1133" on="1"/>
      </contour>
    </TTGlyph>
    <TTGlyph name="afii10082" xMin="135" yMin="-492" xMax="1229" yMax="1153">
      <component glyphName="p" x="0" y="0" flags="0x204"/>
    </TTGlyph>
    <TTGlyph name="afii10083" xMin="86" yMin="-20" xMax="1053" yMax="1153">
      <component glyphName="c" x="0" y="0" flags="0x204"/>
    </TTGlyph>
    <TTGlyph name="afii10084" xMin="49" yMin="0" xMax="1186" yMax="1133">
      <contour>
        <pt x="1186" y="842" on="1"/>
        <pt x="813" y="842" on="1"/>
        <pt x="813" y="0" on="1"/>
        <pt x="422" y="0" on="1"/>
        <pt x="422" y="842" on="1"/>
        <pt x="49" y="842" on="1"/>
        <pt x="49" y="1133" on="1"/>
        <pt x="1186" y="1133" on="1"/>
      </contour>
    </TTGlyph>
    <TTGlyph name="afii10085" xMin="-2" yMin="-492" xMax="1249" yMax="1133">
      <component glyphName="y" x="0" y="0" flags="0x204"/>
    </TTGlyph>
    <TTGlyph name="afii10086" xMin="86" yMin="-492" xMax="1688" yMax="1556">
      <contour>
        <pt x="1688" y="565" on="1"/>
        <pt x="1688" y="319" on="0"/>
        <pt x="1368" y="25" on="0"/>
        <pt x="1073" y="0" on="1"/>
        <pt x="1073" y="-492" on="1"/>
        <pt x="707" y="-492" on="1"/>
        <pt x="707" y="0" on="1"/>
        <pt x="417" y="30" on="0"/>
        <pt x="86" y="329" on="0"/>
        <pt x="86" y="565" on="1"/>
        <pt x="86" y="823" on="0"/>
        <pt x="398" y="1114" on="0"/>
        <pt x="702" y="1133" on="1"/>
        <pt x="702" y="1556" on="1"/>
        <pt x="1073" y="1556" on="1"/>
        <pt x="1073" y="1133" on="1"/>
        <pt x="1366" y="1107" on="0"/>
        <pt x="1688" y="807" on="0"/>
      </contour>
      <contour>
        <pt x="473" y="565" on="1"/>
        <pt x="473" y="448" on="0"/>
        <pt x="604" y="293" on="0"/>
        <pt x="702" y="291" on="1"/>
        <pt x="702" y="842" on="1"/>
        <pt x="608" y="838" on="0"/>
        <pt x="473" y="676" on="0"/>
      </contour>
      <contour>
        <pt x="1298" y="565" on="1"/>
        <pt x="1298" y="679" on="0"/>
        <pt x="1169" y="838" on="0"/>
        <pt x="1073" y="842" on="1"/>
        <pt x="1073" y="291" on="1"/>
        <pt x="1171" y="293" on="0"/>
        <pt x="1298" y="446" on="0"/>
      </contour>
    </TTGlyph>
    <TTGlyph name="afii10087" xMin="10" yMin="0" xMax="1280" yMax="1133">
      <component glyphName="x" x="0" y="0" flags="0x204"/>
    </TTGlyph>
    <TTGlyph name="afii10088" xMin="135" yMin="-416" xMax="1534" yMax="1133">
      <contour>
        <pt x="1534" y="-416" on="1"/>
        <pt x="1192" y="-416" on="1"/>
        <pt x="1192" y="0" on="1"/>
        <pt x="135" y="0" on="1"/>
        <pt x="135" y="1133" on="1"/>
        <pt x="526" y="1133" on="1"/>
        <pt x="526" y="291" on="1"/>
        <pt x="889" y="291" on="1"/>
        <pt x="889" y="1133" on="1"/>
        <pt x="1280" y="1133" on="1"/>
        <pt x="1280" y="291" on="1"/>
        <pt x="1534" y="291" on="1"/>
      </contour>
    </TTGlyph>
    <TTGlyph name="afii10089" xMin="86" yMin="0" xMax="1239" yMax="1133">
      <contour>
        <pt x="477" y="1133" on="1"/>
        <pt x="477" y="735" on="1"/>
        <pt x="477" y="618" on="0"/>
        <pt x="584" y="618" on="1"/>
        <pt x="698" y="618" on="0"/>
        <pt x="848" y="668" on="1"/>
        <pt x="848" y="1133" on="1"/>
        <pt x="1239" y="1133" on="1"/>
        <pt x="1239" y="0" on="1"/>
        <pt x="848" y="0" on="1"/>
        <pt x="848" y="412" on="1"/>
        <pt x="654" y="328" on="0"/>
        <pt x="489" y="328" on="1"/>
        <pt x="283" y="328" on="0"/>
        <pt x="86" y="517" on="0"/>
        <pt x="86" y="715" on="1"/>
        <pt x="86" y="1133" on="1"/>
      </contour>
    </TTGlyph>
    <TTGlyph name="afii10090" xMin="135" yMin="0" xMax="1921" yMax="1133">
      <contour>
        <pt x="1921" y="0" on="1"/>
        <pt x="135" y="0" on="1"/>
        <pt x="135" y="1133" on="1"/>
        <pt x="526" y="1133" on="1"/>
        <pt x="526" y="291" on="1"/>
        <pt x="840" y="291" on="1"/>
        <pt x="840" y="1133" on="1"/>
        <pt x="1221" y="1133" on="1"/>
        <pt x="1221" y="291" on="1"/>
        <pt x="1530" y="291" on="1"/>
        <pt x="1530" y="1133" on="1"/>
        <pt x="1921" y="1133" on="1"/>
      </contour>
    </TTGlyph>
    <TTGlyph name="afii10091" xMin="135" yMin="-416" xMax="2175" yMax="1133">
      <contour>
        <pt x="1921" y="291" on="1"/>
        <pt x="2175" y="291" on="1"/>
        <pt x="2175" y="-416" on="1"/>
        <pt x="1833" y="-416" on="1"/>
        <pt x="1833" y="0" on="1"/>
        <pt x="135" y="0" on="1"/>
        <pt x="135" y="1133" on="1"/>
        <pt x="526" y="1133" on="1"/>
        <pt x="526" y="291" on="1"/>
        <pt x="840" y="291" on="1"/>
        <pt x="840" y="1133" on="1"/>
        <pt x="1221" y="1133" on="1"/>
        <pt x="1221" y="291" on="1"/>
        <pt x="1530" y="291" on="1"/>
        <pt x="1530" y="1133" on="1"/>
        <pt x="1921" y="1133" on="1"/>
      </contour>
    </TTGlyph>
    <TTGlyph name="afii10092" xMin="49" yMin="0" xMax="1395" yMax="1133">
      <contour>
        <pt x="408" y="0" on="1"/>
        <pt x="408" y="842" on="1"/>
        <pt x="49" y="842" on="1"/>
        <pt x="49" y="1133" on="1"/>
        <pt x="799" y="1133" on="1"/>
        <pt x="799" y="725" on="1"/>
        <pt x="836" y="725" on="1"/>
        <pt x="1035" y="725" on="0"/>
        <pt x="1280" y="652" on="0"/>
        <pt x="1395" y="501" on="0"/>
        <pt x="1395" y="375" on="1"/>
        <pt x="1395" y="180" on="0"/>
        <pt x="1141" y="0" on="0"/>
        <pt x="883" y="0" on="1"/>
      </contour>
      <contour>
        <pt x="1004" y="358" on="1"/>
        <pt x="1004" y="417" on="0"/>
        <pt x="938" y="469" on="0"/>
        <pt x="860" y="469" on="1"/>
        <pt x="799" y="469" on="1"/>
        <pt x="799" y="256" on="1"/>
        <pt x="864" y="256" on="1"/>
        <pt x="1004" y="256" on="0"/>
      </contour>
    </TTGlyph>
    <TTGlyph name="afii10093" xMin="135" yMin="0" xMax="1638" yMax="1133">
      <contour>
        <pt x="1638" y="0" on="1"/>
        <pt x="1247" y="0" on="1"/>
        <pt x="1247" y="1133" on="1"/>
        <pt x="1638" y="1133" on="1"/>
      </contour>
      <contour>
        <pt x="526" y="1133" on="1"/>
        <pt x="526" y="725" on="1"/>
        <pt x="563" y="725" on="1"/>
        <pt x="858" y="725" on="0"/>
        <pt x="1122" y="561" on="0"/>
        <pt x="1122" y="375" on="1"/>
        <pt x="1122" y="180" on="0"/>
        <pt x="868" y="0" on="0"/>
        <pt x="610" y="0" on="1"/>
        <pt x="135" y="0" on="1"/>
        <pt x="135" y="1133" on="1"/>
      </contour>
      <contour>
        <pt x="731" y="358" on="1"/>
        <pt x="731" y="417" on="0"/>
        <pt x="665" y="469" on="0"/>
        <pt x="588" y="469" on="1"/>
        <pt x="526" y="469" on="1"/>
        <pt x="526" y="256" on="1"/>
        <pt x="592" y="256" on="1"/>
        <pt x="731" y="256" on="0"/>
      </contour>
    </TTGlyph>
    <TTGlyph name="afii10094" xMin="135" yMin="0" xMax="1122" yMax="1133">
      <contour>
        <pt x="526" y="1133" on="1"/>
        <pt x="526" y="725" on="1"/>
        <pt x="563" y="725" on="1"/>
        <pt x="858" y="725" on="0"/>
        <pt x="1122" y="561" on="0"/>
        <pt x="1122" y="375" on="1"/>
        <pt x="1122" y="180" on="0"/>
        <pt x="868" y="0" on="0"/>
        <pt x="610" y="0" on="1"/>
        <pt x="135" y="0" on="1"/>
        <pt x="135" y="1133" on="1"/>
      </contour>
      <contour>
        <pt x="731" y="358" on="1"/>
        <pt x="731" y="417" on="0"/>
        <pt x="665" y="469" on="0"/>
        <pt x="588" y="469" on="1"/>
        <pt x="526" y="469" on="1"/>
        <pt x="526" y="256" on="1"/>
        <pt x="592" y="256" on="1"/>
        <pt x="731" y="256" on="0"/>
      </contour>
    </TTGlyph>
    <TTGlyph name="afii10095" xMin="51" yMin="-20" xMax="1022" yMax="1153">
      <contour>
        <pt x="451" y="-20" on="1"/>
        <pt x="335" y="-20" on="0"/>
        <pt x="151" y="14" on="0"/>
        <pt x="70" y="57" on="1"/>
        <pt x="70" y="350" on="1"/>
        <pt x="259" y="258" on="0"/>
        <pt x="403" y="258" on="1"/>
        <pt x="506" y="258" on="0"/>
        <pt x="624" y="356" on="0"/>
        <pt x="625" y="440" on="1"/>
        <pt x="238" y="440" on="1"/>
        <pt x="238" y="686" on="1"/>
        <pt x="625" y="686" on="1"/>
        <pt x="621" y="774" on="0"/>
        <pt x="516" y="874" on="0"/>
        <pt x="432" y="874" on="1"/>
        <pt x="372" y="874" on="0"/>
        <pt x="225" y="840" on="0"/>
        <pt x="162" y="809" on="1"/>
        <pt x="51" y="1061" on="1"/>
        <pt x="147" y="1106" on="0"/>
        <pt x="375" y="1153" on="0"/>
        <pt x="481" y="1153" on="1"/>
        <pt x="734" y="1153" on="0"/>
        <pt x="1022" y="858" on="0"/>
        <pt x="1022" y="586" on="1"/>
        <pt x="1022" y="292" on="0"/>
        <pt x="726" y="-20" on="0"/>
      </contour>
    </TTGlyph>
    <TTGlyph name="afii10096" xMin="135" yMin="-20" xMax="1761" yMax="1153">
      <contour>
        <pt x="1761" y="569" on="1"/>
        <pt x="1761" y="289" on="0"/>
        <pt x="1471" y="-20" on="0"/>
        <pt x="1210" y="-20" on="1"/>
        <pt x="996" y="-20" on="0"/>
        <pt x="713" y="218" on="0"/>
        <pt x="678" y="434" on="1"/>
        <pt x="526" y="434" on="1"/>
        <pt x="526" y="0" on="1"/>
        <pt x="135" y="0" on="1"/>
        <pt x="135" y="1133" on="1"/>
        <pt x="526" y="1133" on="1"/>
        <pt x="526" y="725" on="1"/>
        <pt x="680" y="725" on="1"/>
        <pt x="718" y="931" on="0"/>
        <pt x="997" y="1153" on="0"/>
        <pt x="1217" y="1153" on="1"/>
        <pt x="1379" y="1153" on="0"/>
        <pt x="1626" y="1013" on="0"/>
        <pt x="1761" y="749" on="0"/>
      </contour>
      <contour>
        <pt x="1065" y="569" on="1"/>
        <pt x="1065" y="415" on="0"/>
        <pt x="1136" y="270" on="0"/>
        <pt x="1214" y="270" on="1"/>
        <pt x="1296" y="270" on="0"/>
        <pt x="1364" y="423" on="0"/>
        <pt x="1364" y="569" on="1"/>
        <pt x="1364" y="714" on="0"/>
        <pt x="1295" y="862" on="0"/>
        <pt x="1212" y="862" on="1"/>
        <pt x="1132" y="862" on="0"/>
        <pt x="1065" y="715" on="0"/>
      </contour>
    </TTGlyph>
    <TTGlyph name="afii10097" xMin="-25" yMin="0" xMax="1112" yMax="1133">
      <contour>
        <pt x="389" y="0" on="1"/>
        <pt x="-25" y="0" on="1"/>
        <pt x="266" y="430" on="1"/>
        <pt x="178" y="478" on="0"/>
        <pt x="76" y="654" on="0"/>
        <pt x="76" y="770" on="1"/>
        <pt x="76" y="944" on="0"/>
        <pt x="335" y="1133" on="0"/>
        <pt x="571" y="1133" on="1"/>
        <pt x="1112" y="1133" on="1"/>
        <pt x="1112" y="0" on="1"/>
        <pt x="721" y="0" on="1"/>
        <pt x="721" y="393" on="1"/>
        <pt x="606" y="393" on="1"/>
      </contour>
      <contour>
        <pt x="467" y="758" on="1"/>
        <pt x="467" y="706" on="0"/>
        <pt x="541" y="649" on="0"/>
        <pt x="610" y="649" on="1"/>
        <pt x="721" y="649" on="1"/>
        <pt x="721" y="877" on="1"/>
        <pt x="608" y="877" on="1"/>
        <pt x="542" y="877" on="0"/>
        <pt x="467" y="815" on="0"/>
      </contour>
    </TTGlyph>
    <TTGlyph name="afii10098" xMin="135" yMin="0" xMax="1026" yMax="1427">
      <contour>
        <pt x="526" y="0" on="1"/>
        <pt x="135" y="0" on="1"/>
        <pt x="135" y="1133" on="1"/>
        <pt x="684" y="1133" on="1"/>
        <pt x="684" y="1427" on="1"/>
        <pt x="1026" y="1427" on="1"/>
        <pt x="1026" y="842" on="1"/>
        <pt x="526" y="842" on="1"/>
      </contour>
    </TTGlyph>
    <TTGlyph name="afii10099" xMin="0" yMin="-492" xMax="1262" yMax="1556">
      <contour>
        <pt x="1262" y="-92" on="1"/>
        <pt x="1262" y="-279" on="0"/>
        <pt x="1043" y="-492" on="0"/>
        <pt x="844" y="-492" on="1"/>
        <pt x="795" y="-492" on="0"/>
        <pt x="666" y="-477" on="0"/>
        <pt x="627" y="-467" on="1"/>
        <pt x="627" y="-164" on="1"/>
        <pt x="687" y="-180" on="0"/>
        <pt x="750" y="-180" on="1"/>
        <pt x="868" y="-180" on="0"/>
        <pt x="868" y="-10" on="1"/>
        <pt x="868" y="518" on="1"/>
        <pt x="868" y="745" on="0"/>
        <pt x="733" y="745" on="1"/>
        <pt x="637" y="745" on="0"/>
        <pt x="547" y="583" on="0"/>
        <pt x="547" y="395" on="1"/>
        <pt x="547" y="0" on="1"/>
        <pt x="156" y="0" on="1"/>
        <pt x="156" y="1167" on="1"/>
        <pt x="0" y="1167" on="1"/>
        <pt x="0" y="1409" on="1"/>
        <pt x="156" y="1409" on="1"/>
        <pt x="156" y="1556" on="1"/>
        <pt x="547" y="1556" on="1"/>
        <pt x="547" y="1409" on="1"/>
        <pt x="780" y="1409" on="1"/>
        <pt x="780" y="1167" on="1"/>
        <pt x="547" y="1167" on="1"/>
        <pt x="547" y="1126" on="1"/>
        <pt x="547" y="1029" on="0"/>
        <pt x="530" y="893" on="1"/>
        <pt x="553" y="893" on="1"/>
        <pt x="608" y="979" on="0"/>
        <pt x="759" y="1053" on="0"/>
        <pt x="862" y="1053" on="1"/>
        <pt x="1051" y="1053" on="0"/>
        <pt x="1262" y="835" on="0"/>
        <pt x="1262" y="639" on="1"/>
      </contour>
    </TTGlyph>
    <TTGlyph name="afii10100" xMin="135" yMin="0" xMax="1028" yMax="1569">
      <component glyphName="afii10068" x="0" y="0" flags="0x204"/>
      <component glyphName="acute" x="72" y="0" flags="0x4"/>
    </TTGlyph>
    <TTGlyph name="afii10101" xMin="86" yMin="-20" xMax="1059" yMax="1153">
      <contour>
        <pt x="655" y="-20" on="1"/>
        <pt x="371" y="-20" on="0"/>
        <pt x="86" y="274" on="0"/>
        <pt x="86" y="559" on="1"/>
        <pt x="86" y="850" on="0"/>
        <pt x="381" y="1153" on="0"/>
        <pt x="666" y="1153" on="1"/>
        <pt x="865" y="1153" on="0"/>
        <pt x="1059" y="1069" on="1"/>
        <pt x="946" y="805" on="1"/>
        <pt x="794" y="874" on="0"/>
        <pt x="659" y="874" on="1"/>
        <pt x="580" y="874" on="0"/>
        <pt x="488" y="774" on="0"/>
        <pt x="481" y="686" on="1"/>
        <pt x="852" y="686" on="1"/>
        <pt x="852" y="440" on="1"/>
        <pt x="483" y="440" on="1"/>
        <pt x="490" y="350" on="0"/>
        <pt x="592" y="258" on="0"/>
        <pt x="682" y="258" on="1"/>
        <pt x="838" y="258" on="0"/>
        <pt x="1024" y="350" on="1"/>
        <pt x="1024" y="63" on="1"/>
        <pt x="866" y="-20" on="0"/>
      </contour>
    </TTGlyph>
    <TTGlyph name="afii10102" xMin="119" yMin="-20" xMax="1010" yMax="1153">
      <component glyphName="s" x="0" y="0" flags="0x204"/>
    </TTGlyph>
    <TTGlyph name="afii10103" xMin="127" yMin="0" xMax="543" yMax="1589">
      <component glyphName="i" x="0" y="0" flags="0x204"/>
    </TTGlyph>
    <TTGlyph name="afii10104" xMin="-73" yMin="0" xMax="751" yMax="1571">
      <component glyphName="dotlessi" x="0" y="0" flags="0x204"/>
      <component glyphName="dieresis" x="-296" y="0" flags="0x4"/>
    </TTGlyph>
    <TTGlyph name="afii10105" xMin="-104" yMin="-492" xMax="541" yMax="1589">
      <component glyphName="j" x="0" y="0" flags="0x204"/>
    </TTGlyph>
    <TTGlyph name="afii10106" xMin="16" yMin="-20" xMax="1837" yMax="1133">
      <contour>
        <pt x="1278" y="725" on="1"/>
        <pt x="1573" y="725" on="0"/>
        <pt x="1837" y="561" on="0"/>
        <pt x="1837" y="375" on="1"/>
        <pt x="1837" y="180" on="0"/>
        <pt x="1583" y="0" on="0"/>
        <pt x="1325" y="0" on="1"/>
        <pt x="850" y="0" on="1"/>
        <pt x="850" y="842" on="1"/>
        <pt x="651" y="842" on="1"/>
        <pt x="618" y="477" on="0"/>
        <pt x="518" y="134" on="0"/>
        <pt x="342" y="-20" on="0"/>
        <pt x="193" y="-20" on="1"/>
        <pt x="89" y="-20" on="0"/>
        <pt x="16" y="10" on="1"/>
        <pt x="16" y="301" on="1"/>
        <pt x="49" y="283" on="0"/>
        <pt x="104" y="283" on="1"/>
        <pt x="149" y="283" on="0"/>
        <pt x="205" y="376" on="0"/>
        <pt x="248" y="580" on="0"/>
        <pt x="283" y="900" on="0"/>
        <pt x="299" y="1133" on="1"/>
        <pt x="1241" y="1133" on="1"/>
        <pt x="1241" y="725" on="1"/>
      </contour>
      <contour>
        <pt x="1446" y="358" on="1"/>
        <pt x="1446" y="417" on="0"/>
        <pt x="1380" y="469" on="0"/>
        <pt x="1303" y="469" on="1"/>
        <pt x="1241" y="469" on="1"/>
        <pt x="1241" y="256" on="1"/>
        <pt x="1307" y="256" on="1"/>
        <pt x="1446" y="256" on="0"/>
      </contour>
    </TTGlyph>
    <TTGlyph name="afii10107" xMin="135" yMin="0" xMax="1763" yMax="1133">
      <contour>
        <pt x="1167" y="725" on="1"/>
        <pt x="1204" y="725" on="1"/>
        <pt x="1499" y="725" on="0"/>
        <pt x="1763" y="561" on="0"/>
        <pt x="1763" y="375" on="1"/>
        <pt x="1763" y="180" on="0"/>
        <pt x="1509" y="0" on="0"/>
        <pt x="1251" y="0" on="1"/>
        <pt x="776" y="0" on="1"/>
        <pt x="776" y="434" on="1"/>
        <pt x="526" y="434" on="1"/>
        <pt x="526" y="0" on="1"/>
        <pt x="135" y="0" on="1"/>
        <pt x="135" y="1133" on="1"/>
        <pt x="526" y="1133" on="1"/>
        <pt x="526" y="725" on="1"/>
        <pt x="776" y="725" on="1"/>
        <pt x="776" y="1133" on="1"/>
        <pt x="1167" y="1133" on="1"/>
      </contour>
      <contour>
        <pt x="1372" y="358" on="1"/>
        <pt x="1372" y="417" on="0"/>
        <pt x="1306" y="469" on="0"/>
        <pt x="1229" y="469" on="1"/>
        <pt x="1167" y="469" on="1"/>
        <pt x="1167" y="256" on="1"/>
        <pt x="1233" y="256" on="1"/>
        <pt x="1372" y="256" on="0"/>
      </contour>
    </TTGlyph>
    <TTGlyph name="afii10108" xMin="0" yMin="0" xMax="1262" yMax="1556">
      <component glyphName="hbar" x="0" y="0" flags="0x204"/>
    </TTGlyph>
    <TTGlyph name="afii10109" xMin="135" yMin="0" xMax="1393" yMax="1569">
      <component glyphName="afii10076" x="0" y="0" flags="0x204"/>
      <component glyphName="acute" x="264" y="0" flags="0x4"/>
    </TTGlyph>
    <TTGlyph name="afii10110" xMin="-2" yMin="-492" xMax="1249" yMax="1622">
      <component glyphName="y" x="0" y="0" flags="0x204"/>
      <component glyphName="cyrillicbreve" x="39" y="0" flags="0x4"/>
    </TTGlyph>
    <TTGlyph name="afii10145" xMin="158" yMin="-455" xMax="1358" yMax="1462">
      <contour>
        <pt x="1358" y="0" on="1"/>
        <pt x="950" y="0" on="1"/>
        <pt x="950" y="-455" on="1"/>
        <pt x="565" y="-455" on="1"/>
        <pt x="565" y="0" on="1"/>
        <pt x="158" y="0" on="1"/>
        <pt x="158" y="1462" on="1"/>
        <pt x="555" y="1462" on="1"/>
        <pt x="555" y="324" on="1"/>
        <pt x="961" y="324" on="1"/>
        <pt x="961" y="1462" on="1"/>
        <pt x="1358" y="1462" on="1"/>
      </contour>
    </TTGlyph>
    <TTGlyph name="afii10193" xMin="135" yMin="-416" xMax="1276" yMax="1133">
      <contour>
        <pt x="535" y="0" on="1"/>
        <pt x="135" y="0" on="1"/>
        <pt x="135" y="1133" on="1"/>
        <pt x="526" y="1133" on="1"/>
        <pt x="526" y="291" on="1"/>
        <pt x="885" y="291" on="1"/>
        <pt x="885" y="1133" on="1"/>
        <pt x="1276" y="1133" on="1"/>
        <pt x="1276" y="0" on="1"/>
        <pt x="877" y="0" on="1"/>
        <pt x="877" y="-416" on="1"/>
        <pt x="535" y="-416" on="1"/>
      </contour>
    </TTGlyph>
    <TTGlyph name="afii61248" xMin="41" yMin="-29" xMax="1604" yMax="1473">
      <contour>
        <pt x="1337" y="1462" on="1"/>
        <pt x="526" y="0" on="1"/>
        <pt x="229" y="0" on="1"/>
        <pt x="1040" y="1462" on="1"/>
      </contour>
      <contour>
        <pt x="1604" y="350" on="1"/>
        <pt x="1604" y="172" on="0"/>
        <pt x="1414" y="-29" on="0"/>
        <pt x="1251" y="-29" on="1"/>
        <pt x="1096" y="-29" on="0"/>
        <pt x="907" y="177" on="0"/>
        <pt x="907" y="350" on="1"/>
        <pt x="907" y="529" on="0"/>
        <pt x="1091" y="725" on="0"/>
        <pt x="1257" y="725" on="1"/>
        <pt x="1414" y="725" on="0"/>
        <pt x="1604" y="520" on="0"/>
      </contour>
      <contour>
        <pt x="1163" y="350" on="1"/>
        <pt x="1163" y="269" on="0"/>
        <pt x="1209" y="176" on="0"/>
        <pt x="1255" y="176" on="1"/>
        <pt x="1343" y="176" on="0"/>
        <pt x="1343" y="350" on="1"/>
        <pt x="1343" y="520" on="0"/>
        <pt x="1255" y="520" on="1"/>
        <pt x="1163" y="520" on="0"/>
      </contour>
      <contour>
        <pt x="391" y="735" on="1"/>
        <pt x="227" y="735" on="0"/>
        <pt x="41" y="930" on="0"/>
        <pt x="41" y="1100" on="1"/>
        <pt x="41" y="1285" on="0"/>
        <pt x="219" y="1473" on="0"/>
        <pt x="393" y="1473" on="1"/>
        <pt x="517" y="1473" on="0"/>
        <pt x="627" y="1415" on="1"/>
        <pt x="563" y="1229" on="1"/>
        <pt x="480" y="1268" on="0"/>
        <pt x="408" y="1268" on="1"/>
        <pt x="303" y="1268" on="0"/>
        <pt x="303" y="1102" on="1"/>
        <pt x="303" y="940" on="0"/>
        <pt x="414" y="940" on="1"/>
        <pt x="507" y="940" on="0"/>
        <pt x="598" y="983" on="1"/>
        <pt x="598" y="786" on="1"/>
        <pt x="520" y="735" on="0"/>
      </contour>
    </TTGlyph>
    <TTGlyph name="afii61289" xMin="55" yMin="-16" xMax="1098" yMax="1479">
      <contour>
        <pt x="707" y="240" on="1"/>
        <pt x="759" y="240" on="0"/>
        <pt x="799" y="343" on="0"/>
        <pt x="799" y="434" on="1"/>
        <pt x="1098" y="434" on="1"/>
        <pt x="1098" y="192" on="0"/>
        <pt x="877" y="-16" on="0"/>
        <pt x="639" y="-16" on="1"/>
        <pt x="448" y="-16" on="0"/>
        <pt x="231" y="215" on="0"/>
        <pt x="231" y="420" on="1"/>
        <pt x="231" y="479" on="1"/>
        <pt x="55" y="432" on="1"/>
        <pt x="55" y="686" on="1"/>
        <pt x="231" y="733" on="1"/>
        <pt x="231" y="1063" on="1"/>
        <pt x="231" y="1269" on="0"/>
        <pt x="460" y="1479" on="0"/>
        <pt x="680" y="1479" on="1"/>
        <pt x="879" y="1479" on="0"/>
        <pt x="1094" y="1278" on="0"/>
        <pt x="1094" y="1092" on="1"/>
        <pt x="1094" y="724" on="0"/>
        <pt x="610" y="580" on="1"/>
        <pt x="610" y="397" on="1"/>
        <pt x="610" y="310" on="0"/>
        <pt x="656" y="240" on="0"/>
      </contour>
      <contour>
        <pt x="748" y="1102" on="1"/>
        <pt x="748" y="1171" on="0"/>
        <pt x="717" y="1239" on="0"/>
        <pt x="680" y="1239" on="1"/>
        <pt x="642" y="1239" on="0"/>
        <pt x="610" y="1184" on="0"/>
        <pt x="610" y="1124" on="1"/>
        <pt x="610" y="844" on="1"/>
        <pt x="748" y="909" on="0"/>
      </contour>
    </TTGlyph>
    <TTGlyph name="afii61352" xMin="143" yMin="0" xMax="2159" yMax="1462">
      <contour>
        <pt x="1305" y="0" on="1"/>
        <pt x="858" y="0" on="1"/>
        <pt x="496" y="903" on="1"/>
        <pt x="477" y="903" on="1"/>
        <pt x="496" y="607" on="0"/>
        <pt x="496" y="471" on="1"/>
        <pt x="496" y="0" on="1"/>
        <pt x="143" y="0" on="1"/>
        <pt x="143" y="1462" on="1"/>
        <pt x="588" y="1462" on="1"/>
        <pt x="944" y="573" on="1"/>
        <pt x="969" y="573" on="1"/>
        <pt x="952" y="801" on="0"/>
        <pt x="952" y="989" on="1"/>
        <pt x="952" y="1462" on="1"/>
        <pt x="1305" y="1462" on="1"/>
      </contour>
      <contour>
        <pt x="2159" y="682" on="1"/>
        <pt x="2159" y="507" on="0"/>
        <pt x="1962" y="305" on="0"/>
        <pt x="1792" y="305" on="1"/>
        <pt x="1628" y="305" on="0"/>
        <pt x="1427" y="512" on="0"/>
        <pt x="1427" y="682" on="1"/>
        <pt x="1427" y="853" on="0"/>
        <pt x="1623" y="1055" on="0"/>
        <pt x="1796" y="1055" on="1"/>
        <pt x="1958" y="1055" on="0"/>
        <pt x="2159" y="848" on="0"/>
      </contour>
      <contour>
        <pt x="1438" y="0" on="1"/>
        <pt x="1438" y="221" on="1"/>
        <pt x="2154" y="221" on="1"/>
        <pt x="2154" y="0" on="1"/>
      </contour>
      <contour>
        <pt x="1694" y="678" on="1"/>
        <pt x="1694" y="591" on="0"/>
        <pt x="1741" y="510" on="0"/>
        <pt x="1794" y="510" on="1"/>
        <pt x="1845" y="510" on="0"/>
        <pt x="1892" y="591" on="0"/>
        <pt x="1892" y="678" on="1"/>
        <pt x="1892" y="765" on="0"/>
        <pt x="1845" y="850" on="0"/>
        <pt x="1794" y="850" on="1"/>
        <pt x="1741" y="850" on="0"/>
        <pt x="1694" y="765" on="0"/>
      </contour>
    </TTGlyph>
    <TTGlyph name="agrave" xMin="74" yMin="-20" xMax="1145" yMax="1569">
      <component glyphName="a" x="0" y="0" flags="0x204"/>
      <component glyphName="grave" x="-60" y="0" flags="0x4"/>
    </TTGlyph>
    <TTGlyph name="alpha" xMin="86" yMin="-20" xMax="1325" yMax="1149">
      <contour>
        <pt x="516" y="-20" on="1"/>
        <pt x="314" y="-20" on="0"/>
        <pt x="86" y="289" on="0"/>
        <pt x="86" y="561" on="1"/>
        <pt x="86" y="841" on="0"/>
        <pt x="327" y="1149" on="0"/>
        <pt x="543" y="1149" on="1"/>
        <pt x="659" y="1149" on="0"/>
        <pt x="807" y="1067" on="0"/>
        <pt x="854" y="981" on="1"/>
        <pt x="870" y="981" on="1"/>
        <pt x="899" y="1086" on="0"/>
        <pt x="940" y="1133" on="1"/>
        <pt x="1268" y="1133" on="1"/>
        <pt x="1229" y="1028" on="0"/>
        <pt x="1184" y="776" on="0"/>
        <pt x="1184" y="664" on="1"/>
        <pt x="1184" y="408" on="1"/>
        <pt x="1184" y="287" on="0"/>
        <pt x="1266" y="287" on="1"/>
        <pt x="1298" y="287" on="0"/>
        <pt x="1325" y="297" on="1"/>
        <pt x="1325" y="6" on="1"/>
        <pt x="1309" y="-4" on="0"/>
        <pt x="1198" y="-20" on="0"/>
        <pt x="1169" y="-20" on="1"/>
        <pt x="1040" y="-20" on="0"/>
        <pt x="901" y="58" on="0"/>
        <pt x="858" y="147" on="1"/>
        <pt x="834" y="147" on="1"/>
        <pt x="724" y="-20" on="0"/>
      </contour>
      <contour>
        <pt x="649" y="283" on="1"/>
        <pt x="738" y="283" on="0"/>
        <pt x="821" y="402" on="0"/>
        <pt x="823" y="553" on="1"/>
        <pt x="823" y="563" on="1"/>
        <pt x="823" y="712" on="0"/>
        <pt x="737" y="846" on="0"/>
        <pt x="645" y="846" on="1"/>
        <pt x="565" y="846" on="0"/>
        <pt x="483" y="698" on="0"/>
        <pt x="483" y="559" on="1"/>
        <pt x="483" y="283" on="0"/>
      </contour>
    </TTGlyph>
    <TTGlyph name="alphatonos" xMin="86" yMin="-20" xMax="1325" yMax="1628">
      <component glyphName="alpha" x="0" y="0" flags="0x204"/>
      <component glyphName="tonos" x="113" y="0" flags="0x4"/>
    </TTGlyph>
    <TTGlyph name="amacron" xMin="74" yMin="-20" xMax="1145" yMax="1477">
      <component glyphName="a" x="0" y="0" flags="0x204"/>
      <component glyphName="macron" x="43" y="0" flags="0x4"/>
    </TTGlyph>
    <TTGlyph name="ampersand" xMin="72" yMin="-20" xMax="1647" yMax="1481">
      <contour>
        <pt x="1141" y="0" on="1"/>
        <pt x="1042" y="102" on="1"/>
        <pt x="952" y="45" on="0"/>
        <pt x="837" y="2" on="0"/>
        <pt x="694" y="-20" on="0"/>
        <pt x="602" y="-20" on="1"/>
        <pt x="444" y="-20" on="0"/>
        <pt x="201" y="88" on="0"/>
        <pt x="72" y="282" on="0"/>
        <pt x="72" y="406" on="1"/>
        <pt x="72" y="668" on="0"/>
        <pt x="344" y="807" on="1"/>
        <pt x="282" y="877" on="0"/>
        <pt x="213" y="1034" on="0"/>
        <pt x="213" y="1133" on="1"/>
        <pt x="213" y="1293" on="0"/>
        <pt x="460" y="1481" on="0"/>
        <pt x="676" y="1481" on="1"/>
        <pt x="887" y="1481" on="0"/>
        <pt x="1122" y="1294" on="0"/>
        <pt x="1122" y="1133" on="1"/>
        <pt x="1122" y="1022" on="0"/>
        <pt x="995" y="833" on="0"/>
        <pt x="858" y="750" on="1"/>
        <pt x="1057" y="561" on="1"/>
        <pt x="1132" y="676" on="0"/>
        <pt x="1161" y="821" on="1"/>
        <pt x="1567" y="821" on="1"/>
        <pt x="1537" y="683" on="0"/>
        <pt x="1408" y="406" on="0"/>
        <pt x="1327" y="307" on="1"/>
        <pt x="1647" y="0" on="1"/>
      </contour>
      <contour>
        <pt x="475" y="434" on="1"/>
        <pt x="475" y="371" on="0"/>
        <pt x="565" y="291" on="0"/>
        <pt x="639" y="291" on="1"/>
        <pt x="696" y="291" on="0"/>
        <pt x="782" y="321" on="0"/>
        <pt x="805" y="340" on="1"/>
        <pt x="557" y="592" on="1"/>
        <pt x="475" y="531" on="0"/>
      </contour>
      <contour>
        <pt x="770" y="1133" on="1"/>
        <pt x="770" y="1182" on="0"/>
        <pt x="713" y="1225" on="0"/>
        <pt x="670" y="1225" on="1"/>
        <pt x="628" y="1225" on="0"/>
        <pt x="565" y="1175" on="0"/>
        <pt x="565" y="1120" on="1"/>
        <pt x="565" y="1045" on="0"/>
        <pt x="653" y="965" on="1"/>
        <pt x="710" y="997" on="0"/>
        <pt x="770" y="1086" on="0"/>
      </contour>
    </TTGlyph>
    <TTGlyph name="anoteleia" xMin="86" yMin="530" xMax="504" yMax="915">
      <component glyphName="periodcentered" x="0" y="0" flags="0x204"/>
    </TTGlyph>
    <TTGlyph name="aogonek" xMin="74" yMin="-492" xMax="1151" yMax="1153">
      <component glyphName="a" x="0" y="0" flags="0x204"/>
      <component glyphName="ogonek" x="707" y="0" flags="0x4"/>
    </TTGlyph>
    <TTGlyph name="approxequal" xMin="72" yMin="294" xMax="1085" yMax="1145">
      <component glyphName="asciitilde" x="0" y="227" flags="0x4"/>
      <component glyphName="asciitilde" x="0" y="-232" flags="0x4"/>
    </TTGlyph>
    <TTGlyph name="aring" xMin="74" yMin="-20" xMax="1145" yMax="1743">
      <component glyphName="a" x="0" y="0" flags="0x204"/>
      <component glyphName="ring" x="96" y="0" flags="0x4"/>
    </TTGlyph>
    <TTGlyph name="aringacute" xMin="74" yMin="-20" xMax="1145" yMax="1974">
      <contour>
        <pt x="874" y="0" on="1"/>
        <pt x="799" y="150" on="1"/>
        <pt x="791" y="150" on="1"/>
        <pt x="712" y="52" on="0"/>
        <pt x="548" y="-20" on="0"/>
        <pt x="418" y="-20" on="1"/>
        <pt x="257" y="-20" on="0"/>
        <pt x="74" y="175" on="0"/>
        <pt x="74" y="352" on="1"/>
        <pt x="74" y="532" on="0"/>
        <pt x="304" y="707" on="0"/>
        <pt x="565" y="715" on="1"/>
        <pt x="754" y="721" on="1"/>
        <pt x="754" y="737" on="1"/>
        <pt x="754" y="877" on="0"/>
        <pt x="616" y="877" on="1"/>
        <pt x="492" y="877" on="0"/>
        <pt x="301" y="793" on="1"/>
        <pt x="188" y="1051" on="1"/>
        <pt x="386" y="1153" on="0"/>
        <pt x="688" y="1153" on="1"/>
        <pt x="906" y="1153" on="0"/>
        <pt x="1145" y="937" on="0"/>
        <pt x="1145" y="743" on="1"/>
        <pt x="1145" y="0" on="1"/>
      </contour>
      <contour>
        <pt x="584" y="256" on="1"/>
        <pt x="655" y="256" on="0"/>
        <pt x="756" y="346" on="0"/>
        <pt x="756" y="418" on="1"/>
        <pt x="756" y="506" on="1"/>
        <pt x="666" y="502" on="1"/>
        <pt x="473" y="495" on="0"/>
        <pt x="473" y="360" on="1"/>
        <pt x="473" y="256" on="0"/>
      </contour>
      <contour>
        <pt x="463" y="1765" on="1"/>
        <pt x="463" y="1782" on="1"/>
        <pt x="513" y="1827" on="0"/>
        <pt x="610" y="1937" on="0"/>
        <pt x="637" y="1974" on="1"/>
        <pt x="1030" y="1974" on="1"/>
        <pt x="1030" y="1962" on="1"/>
        <pt x="1009" y="1938" on="0"/>
        <pt x="845" y="1833" on="0"/>
        <pt x="717" y="1765" on="1"/>
      </contour>
      <contour>
        <pt x="926" y="1460" on="1"/>
        <pt x="926" y="1349" on="0"/>
        <pt x="774" y="1206" on="0"/>
        <pt x="653" y="1206" on="1"/>
        <pt x="533" y="1206" on="0"/>
        <pt x="389" y="1344" on="0"/>
        <pt x="389" y="1458" on="1"/>
        <pt x="389" y="1574" on="0"/>
        <pt x="533" y="1712" on="0"/>
        <pt x="653" y="1712" on="1"/>
        <pt x="771" y="1712" on="0"/>
        <pt x="926" y="1573" on="0"/>
      </contour>
      <contour>
        <pt x="737" y="1458" on="1"/>
        <pt x="737" y="1496" on="0"/>
        <pt x="688" y="1542" on="0"/>
        <pt x="653" y="1542" on="1"/>
        <pt x="618" y="1542" on="0"/>
        <pt x="569" y="1496" on="0"/>
        <pt x="569" y="1458" on="1"/>
        <pt x="569" y="1421" on="0"/>
        <pt x="611" y="1374" on="0"/>
        <pt x="653" y="1374" on="1"/>
        <pt x="688" y="1374" on="0"/>
        <pt x="737" y="1421" on="0"/>
      </contour>
    </TTGlyph>
    <TTGlyph name="asciicircum" xMin="-16" yMin="502" xMax="1102" yMax="1468">
      <contour>
        <pt x="-16" y="502" on="1"/>
        <pt x="424" y="1468" on="1"/>
        <pt x="594" y="1468" on="1"/>
        <pt x="1102" y="502" on="1"/>
        <pt x="807" y="502" on="1"/>
        <pt x="518" y="1079" on="1"/>
        <pt x="394" y="788" on="1"/>
        <pt x="270" y="502" on="1"/>
      </contour>
    </TTGlyph>
    <TTGlyph name="asciitilde" xMin="72" yMin="526" xMax="1085" yMax="918">
      <contour>
        <pt x="305" y="647" on="1"/>
        <pt x="195" y="647" on="0"/>
        <pt x="72" y="526" on="1"/>
        <pt x="72" y="807" on="1"/>
        <pt x="176" y="915" on="0"/>
        <pt x="336" y="915" on="1"/>
        <pt x="405" y="915" on="0"/>
        <pt x="527" y="888" on="0"/>
        <pt x="616" y="852" on="1"/>
        <pt x="747" y="797" on="0"/>
        <pt x="854" y="797" on="1"/>
        <pt x="904" y="797" on="0"/>
        <pt x="1029" y="861" on="0"/>
        <pt x="1085" y="918" on="1"/>
        <pt x="1085" y="637" on="1"/>
        <pt x="980" y="528" on="0"/>
        <pt x="821" y="528" on="1"/>
        <pt x="750" y="528" on="0"/>
        <pt x="625" y="558" on="0"/>
        <pt x="541" y="592" on="1"/>
        <pt x="410" y="647" on="0"/>
      </contour>
    </TTGlyph>
    <TTGlyph name="asterisk" xMin="45" yMin="573" xMax="1057" yMax="1556">
      <contour>
        <pt x="702" y="1556" on="1"/>
        <pt x="664" y="1204" on="1"/>
        <pt x="1020" y="1305" on="1"/>
        <pt x="1057" y="1010" on="1"/>
        <pt x="743" y="989" on="1"/>
        <pt x="950" y="711" on="1"/>
        <pt x="690" y="573" on="1"/>
        <pt x="547" y="856" on="1"/>
        <pt x="424" y="575" on="1"/>
        <pt x="152" y="711" on="1"/>
        <pt x="358" y="989" on="1"/>
        <pt x="45" y="1014" on="1"/>
        <pt x="90" y="1305" on="1"/>
        <pt x="438" y="1204" on="1"/>
        <pt x="399" y="1556" on="1"/>
      </contour>
    </TTGlyph>
    <TTGlyph name="at" xMin="82" yMin="-154" xMax="1755" yMax="1481">
      <contour>
        <pt x="1755" y="756" on="1"/>
        <pt x="1755" y="615" on="0"/>
        <pt x="1658" y="371" on="0"/>
        <pt x="1486" y="233" on="0"/>
        <pt x="1376" y="233" on="1"/>
        <pt x="1297" y="233" on="0"/>
        <pt x="1169" y="296" on="0"/>
        <pt x="1133" y="352" on="1"/>
        <pt x="1118" y="352" on="1"/>
        <pt x="1011" y="233" on="0"/>
        <pt x="858" y="233" on="1"/>
        <pt x="675" y="233" on="0"/>
        <pt x="479" y="447" on="0"/>
        <pt x="479" y="639" on="1"/>
        <pt x="479" y="780" on="0"/>
        <pt x="603" y="997" on="0"/>
        <pt x="837" y="1114" on="0"/>
        <pt x="991" y="1114" on="1"/>
        <pt x="1072" y="1114" on="0"/>
        <pt x="1267" y="1081" on="0"/>
        <pt x="1348" y="1053" on="1"/>
        <pt x="1327" y="631" on="1"/>
        <pt x="1325" y="537" on="1"/>
        <pt x="1325" y="451" on="0"/>
        <pt x="1374" y="451" on="1"/>
        <pt x="1426" y="451" on="0"/>
        <pt x="1491" y="625" on="0"/>
        <pt x="1491" y="758" on="1"/>
        <pt x="1491" y="997" on="0"/>
        <pt x="1221" y="1257" on="0"/>
        <pt x="973" y="1257" on="1"/>
        <pt x="783" y="1257" on="0"/>
        <pt x="502" y="1099" on="0"/>
        <pt x="354" y="804" on="0"/>
        <pt x="354" y="606" on="1"/>
        <pt x="354" y="351" on="0"/>
        <pt x="639" y="74" on="0"/>
        <pt x="899" y="74" on="1"/>
        <pt x="1015" y="74" on="0"/>
        <pt x="1284" y="124" on="0"/>
        <pt x="1413" y="170" on="1"/>
        <pt x="1413" y="-59" on="1"/>
        <pt x="1189" y="-154" on="0"/>
        <pt x="913" y="-154" on="1"/>
        <pt x="525" y="-154" on="0"/>
        <pt x="82" y="251" on="0"/>
        <pt x="82" y="610" on="1"/>
        <pt x="82" y="863" on="0"/>
        <pt x="311" y="1264" on="0"/>
        <pt x="714" y="1481" on="0"/>
        <pt x="969" y="1481" on="1"/>
        <pt x="1203" y="1481" on="0"/>
        <pt x="1562" y="1303" on="0"/>
        <pt x="1755" y="974" on="0"/>
      </contour>
      <contour>
        <pt x="760" y="641" on="1"/>
        <pt x="760" y="541" on="0"/>
        <pt x="833" y="451" on="0"/>
        <pt x="893" y="451" on="1"/>
        <pt x="970" y="451" on="0"/>
        <pt x="1042" y="575" on="0"/>
        <pt x="1053" y="733" on="1"/>
        <pt x="1063" y="889" on="1"/>
        <pt x="1023" y="895" on="0"/>
        <pt x="995" y="895" on="1"/>
        <pt x="887" y="895" on="0"/>
        <pt x="760" y="761" on="0"/>
      </contour>
    </TTGlyph>
    <TTGlyph name="atilde" xMin="74" yMin="-20" xMax="1145" yMax="1581">
      <component glyphName="a" x="0" y="0" flags="0x204"/>
      <component glyphName="tilde" x="68" y="0" flags="0x4"/>
    </TTGlyph>
    <TTGlyph name="b" xMin="135" yMin="-20" xMax="1229" yMax="1556">
      <contour>
        <pt x="827" y="1153" on="1"/>
        <pt x="1012" y="1153" on="0"/>
        <pt x="1229" y="843" on="0"/>
        <pt x="1229" y="569" on="1"/>
        <pt x="1229" y="293" on="0"/>
        <pt x="1010" y="-20" on="0"/>
        <pt x="815" y="-20" on="1"/>
        <pt x="752" y="-20" on="0"/>
        <pt x="654" y="7" on="0"/>
        <pt x="577" y="55" on="0"/>
        <pt x="526" y="111" on="1"/>
        <pt x="502" y="111" on="1"/>
        <pt x="440" y="0" on="1"/>
        <pt x="135" y="0" on="1"/>
        <pt x="135" y="1556" on="1"/>
        <pt x="526" y="1556" on="1"/>
        <pt x="526" y="1204" on="1"/>
        <pt x="526" y="1141" on="0"/>
        <pt x="512" y="987" on="1"/>
        <pt x="526" y="987" on="1"/>
        <pt x="583" y="1075" on="0"/>
        <pt x="732" y="1153" on="0"/>
      </contour>
      <contour>
        <pt x="684" y="846" on="1"/>
        <pt x="602" y="846" on="0"/>
        <pt x="526" y="732" on="0"/>
        <pt x="526" y="610" on="1"/>
        <pt x="526" y="555" on="1"/>
        <pt x="526" y="416" on="0"/>
        <pt x="602" y="295" on="0"/>
        <pt x="688" y="295" on="1"/>
        <pt x="757" y="295" on="0"/>
        <pt x="831" y="436" on="0"/>
        <pt x="831" y="573" on="1"/>
        <pt x="831" y="846" on="0"/>
      </contour>
    </TTGlyph>
    <TTGlyph name="backslash" xMin="6" yMin="-20" xMax="897" yMax="1483">
      <contour>
        <pt x="352" y="1483" on="1"/>
        <pt x="897" y="-20" on="1"/>
        <pt x="551" y="-20" on="1"/>
        <pt x="6" y="1483" on="1"/>
      </contour>
    </TTGlyph>
    <TTGlyph name="bar" xMin="387" yMin="-446" xMax="655" yMax="1556">
      <contour>
        <pt x="387" y="1556" on="1"/>
        <pt x="655" y="1556" on="1"/>
        <pt x="655" y="-446" on="1"/>
        <pt x="387" y="-446" on="1"/>
      </contour>
    </TTGlyph>
    <TTGlyph name="beta" xMin="135" yMin="-492" xMax="1321" yMax="1567">
      <contour>
        <pt x="702" y="1567" on="1"/>
        <pt x="950" y="1567" on="0"/>
        <pt x="1231" y="1357" on="0"/>
        <pt x="1231" y="1171" on="1"/>
        <pt x="1231" y="1023" on="0"/>
        <pt x="1084" y="853" on="0"/>
        <pt x="950" y="831" on="1"/>
        <pt x="950" y="823" on="1"/>
        <pt x="1142" y="798" on="0"/>
        <pt x="1321" y="609" on="0"/>
        <pt x="1321" y="444" on="1"/>
        <pt x="1321" y="231" on="0"/>
        <pt x="1059" y="-20" on="0"/>
        <pt x="840" y="-20" on="1"/>
        <pt x="744" y="-20" on="0"/>
        <pt x="578" y="13" on="0"/>
        <pt x="526" y="39" on="1"/>
        <pt x="526" y="-492" on="1"/>
        <pt x="135" y="-492" on="1"/>
        <pt x="135" y="1096" on="1"/>
        <pt x="135" y="1320" on="0"/>
        <pt x="434" y="1567" on="0"/>
      </contour>
      <contour>
        <pt x="690" y="1276" on="1"/>
        <pt x="605" y="1276" on="0"/>
        <pt x="526" y="1169" on="0"/>
        <pt x="526" y="1061" on="1"/>
        <pt x="526" y="340" on="1"/>
        <pt x="556" y="318" on="0"/>
        <pt x="671" y="287" on="0"/>
        <pt x="717" y="287" on="1"/>
        <pt x="813" y="287" on="0"/>
        <pt x="924" y="384" on="0"/>
        <pt x="924" y="481" on="1"/>
        <pt x="924" y="560" on="0"/>
        <pt x="816" y="653" on="0"/>
        <pt x="719" y="653" on="1"/>
        <pt x="662" y="653" on="1"/>
        <pt x="662" y="944" on="1"/>
        <pt x="700" y="944" on="1"/>
        <pt x="768" y="944" on="0"/>
        <pt x="842" y="1036" on="0"/>
        <pt x="842" y="1114" on="1"/>
        <pt x="842" y="1192" on="0"/>
        <pt x="758" y="1276" on="0"/>
      </contour>
    </TTGlyph>
    <TTGlyph name="braceleft" xMin="61" yMin="-344" xMax="821" yMax="1483">
      <contour>
        <pt x="61" y="719" on="1"/>
        <pt x="176" y="719" on="0"/>
        <pt x="307" y="808" on="0"/>
        <pt x="307" y="889" on="1"/>
        <pt x="307" y="1143" on="1"/>
        <pt x="307" y="1282" on="0"/>
        <pt x="405" y="1420" on="0"/>
        <pt x="626" y="1483" on="0"/>
        <pt x="821" y="1483" on="1"/>
        <pt x="821" y="1204" on="1"/>
        <pt x="732" y="1201" on="0"/>
        <pt x="669" y="1180" on="0"/>
        <pt x="631" y="1136" on="0"/>
        <pt x="631" y="1098" on="1"/>
        <pt x="631" y="827" on="1"/>
        <pt x="631" y="714" on="0"/>
        <pt x="518" y="593" on="0"/>
        <pt x="391" y="575" on="1"/>
        <pt x="391" y="563" on="1"/>
        <pt x="519" y="543" on="0"/>
        <pt x="631" y="425" on="0"/>
        <pt x="631" y="317" on="1"/>
        <pt x="631" y="41" on="1"/>
        <pt x="631" y="2" on="0"/>
        <pt x="673" y="-42" on="0"/>
        <pt x="743" y="-63" on="0"/>
        <pt x="821" y="-66" on="1"/>
        <pt x="821" y="-344" on="1"/>
        <pt x="624" y="-344" on="0"/>
        <pt x="404" y="-280" on="0"/>
        <pt x="307" y="-141" on="0"/>
        <pt x="307" y="0" on="1"/>
        <pt x="307" y="248" on="1"/>
        <pt x="307" y="328" on="0"/>
        <pt x="173" y="418" on="0"/>
        <pt x="61" y="418" on="1"/>
      </contour>
    </TTGlyph>
    <TTGlyph name="braceright" xMin="66" yMin="-344" xMax="825" yMax="1483">
      <contour>
        <pt x="825" y="418" on="1"/>
        <pt x="714" y="418" on="0"/>
        <pt x="580" y="328" on="0"/>
        <pt x="580" y="248" on="1"/>
        <pt x="580" y="0" on="1"/>
        <pt x="580" y="-140" on="0"/>
        <pt x="482" y="-280" on="0"/>
        <pt x="262" y="-344" on="0"/>
        <pt x="66" y="-344" on="1"/>
        <pt x="66" y="-66" on="1"/>
        <pt x="174" y="-62" on="0"/>
        <pt x="256" y="-11" on="0"/>
        <pt x="256" y="41" on="1"/>
        <pt x="256" y="317" on="1"/>
        <pt x="256" y="425" on="0"/>
        <pt x="368" y="543" on="0"/>
        <pt x="496" y="563" on="1"/>
        <pt x="496" y="575" on="1"/>
        <pt x="369" y="593" on="0"/>
        <pt x="256" y="714" on="0"/>
        <pt x="256" y="827" on="1"/>
        <pt x="256" y="1098" on="1"/>
        <pt x="256" y="1137" on="0"/>
        <pt x="217" y="1180" on="0"/>
        <pt x="156" y="1201" on="0"/>
        <pt x="66" y="1204" on="1"/>
        <pt x="66" y="1483" on="1"/>
        <pt x="262" y="1483" on="0"/>
        <pt x="482" y="1420" on="0"/>
        <pt x="580" y="1282" on="0"/>
        <pt x="580" y="1143" on="1"/>
        <pt x="580" y="889" on="1"/>
        <pt x="580" y="808" on="0"/>
        <pt x="710" y="719" on="0"/>
        <pt x="825" y="719" on="1"/>
      </contour>
    </TTGlyph>
    <TTGlyph name="bracketleft" xMin="117" yMin="-344" xMax="616" yMax="1503">
      <contour>
        <pt x="616" y="-344" on="1"/>
        <pt x="117" y="-344" on="1"/>
        <pt x="117" y="1503" on="1"/>
        <pt x="616" y="1503" on="1"/>
        <pt x="616" y="1249" on="1"/>
        <pt x="434" y="1249" on="1"/>
        <pt x="434" y="-90" on="1"/>
        <pt x="616" y="-90" on="1"/>
      </contour>
      <contour>
        <pt x="355" y="1485" on="1"/>
      </contour>
    </TTGlyph>
    <TTGlyph name="bracketright" xMin="47" yMin="-344" xMax="547" yMax="1503">
      <contour>
        <pt x="47" y="-90" on="1"/>
        <pt x="229" y="-90" on="1"/>
        <pt x="229" y="1249" on="1"/>
        <pt x="47" y="1249" on="1"/>
        <pt x="47" y="1503" on="1"/>
        <pt x="547" y="1503" on="1"/>
        <pt x="547" y="-344" on="1"/>
        <pt x="47" y="-344" on="1"/>
      </contour>
      <contour>
        <pt x="317" y="1485" on="1"/>
      </contour>
    </TTGlyph>
    <TTGlyph name="breve" xMin="209" yMin="1241" xMax="1018" yMax="1612">
      <contour>
        <pt x="1018" y="1612" on="1"/>
        <pt x="1008" y="1441" on="0"/>
        <pt x="792" y="1241" on="0"/>
        <pt x="610" y="1241" on="1"/>
        <pt x="423" y="1241" on="0"/>
        <pt x="218" y="1431" on="0"/>
        <pt x="209" y="1612" on="1"/>
        <pt x="420" y="1612" on="1"/>
        <pt x="440" y="1534" on="0"/>
        <pt x="515" y="1481" on="0"/>
        <pt x="610" y="1481" on="1"/>
        <pt x="691" y="1481" on="0"/>
        <pt x="780" y="1544" on="0"/>
        <pt x="799" y="1612" on="1"/>
      </contour>
    </TTGlyph>
    <TTGlyph name="breveacutecomb" xMin="-1120" yMin="1241" xMax="-311" yMax="1729">
      <contour>
        <pt x="-836" y="1530" on="1"/>
        <pt x="-811" y="1573" on="1"/>
        <pt x="-751" y="1673" on="0"/>
        <pt x="-727" y="1729" on="1"/>
        <pt x="-475" y="1729" on="1"/>
        <pt x="-475" y="1708" on="1"/>
        <pt x="-597" y="1572" on="0"/>
        <pt x="-682" y="1501" on="1"/>
        <pt x="-836" y="1501" on="1"/>
      </contour>
      <contour>
        <pt x="-707" y="1241" on="1"/>
        <pt x="-885" y="1241" on="0"/>
        <pt x="-1108" y="1426" on="0"/>
        <pt x="-1120" y="1581" on="1"/>
        <pt x="-934" y="1581" on="1"/>
        <pt x="-923" y="1508" on="0"/>
        <pt x="-809" y="1425" on="0"/>
        <pt x="-711" y="1425" on="1"/>
        <pt x="-617" y="1425" on="0"/>
        <pt x="-493" y="1510" on="0"/>
        <pt x="-487" y="1581" on="1"/>
        <pt x="-311" y="1581" on="1"/>
        <pt x="-315" y="1415" on="0"/>
        <pt x="-517" y="1241" on="0"/>
      </contour>
    </TTGlyph>
    <TTGlyph name="brevegravecomb" xMin="-1120" yMin="1241" xMax="-311" yMax="1729">
      <contour>
        <pt x="-586" y="1501" on="1"/>
        <pt x="-739" y="1501" on="1"/>
        <pt x="-800" y="1552" on="0"/>
        <pt x="-948" y="1708" on="1"/>
        <pt x="-948" y="1729" on="1"/>
        <pt x="-696" y="1729" on="1"/>
        <pt x="-641" y="1626" on="1"/>
        <pt x="-586" y="1530" on="1"/>
      </contour>
      <contour>
        <pt x="-707" y="1241" on="1"/>
        <pt x="-885" y="1241" on="0"/>
        <pt x="-1108" y="1426" on="0"/>
        <pt x="-1120" y="1581" on="1"/>
        <pt x="-934" y="1581" on="1"/>
        <pt x="-923" y="1508" on="0"/>
        <pt x="-809" y="1425" on="0"/>
        <pt x="-711" y="1425" on="1"/>
        <pt x="-617" y="1425" on="0"/>
        <pt x="-493" y="1510" on="0"/>
        <pt x="-487" y="1581" on="1"/>
        <pt x="-311" y="1581" on="1"/>
        <pt x="-315" y="1415" on="0"/>
        <pt x="-517" y="1241" on="0"/>
      </contour>
    </TTGlyph>
    <TTGlyph name="brevehookcomb" xMin="-1120" yMin="1241" xMax="-311" yMax="1802">
      <contour>
        <pt x="-707" y="1241" on="1"/>
        <pt x="-885" y="1241" on="0"/>
        <pt x="-1108" y="1426" on="0"/>
        <pt x="-1120" y="1581" on="1"/>
        <pt x="-934" y="1581" on="1"/>
        <pt x="-923" y="1508" on="0"/>
        <pt x="-809" y="1425" on="0"/>
        <pt x="-711" y="1425" on="1"/>
        <pt x="-617" y="1425" on="0"/>
        <pt x="-493" y="1510" on="0"/>
        <pt x="-487" y="1581" on="1"/>
        <pt x="-311" y="1581" on="1"/>
        <pt x="-315" y="1415" on="0"/>
        <pt x="-517" y="1241" on="0"/>
      </contour>
      <contour>
        <pt x="-557" y="1659" on="1"/>
        <pt x="-557" y="1554" on="0"/>
        <pt x="-664" y="1530" on="1"/>
        <pt x="-670" y="1487" on="1"/>
        <pt x="-791" y="1487" on="1"/>
        <pt x="-799" y="1583" on="1"/>
        <pt x="-752" y="1583" on="0"/>
        <pt x="-713" y="1613" on="0"/>
        <pt x="-713" y="1628" on="1"/>
        <pt x="-713" y="1669" on="0"/>
        <pt x="-766" y="1669" on="1"/>
        <pt x="-800" y="1669" on="0"/>
        <pt x="-848" y="1657" on="1"/>
        <pt x="-848" y="1790" on="1"/>
        <pt x="-807" y="1802" on="0"/>
        <pt x="-741" y="1802" on="1"/>
        <pt x="-651" y="1802" on="0"/>
        <pt x="-557" y="1727" on="0"/>
      </contour>
    </TTGlyph>
    <TTGlyph name="brevetildecomb" xMin="-1120" yMin="1231" xMax="-311" yMax="1808">
      <contour>
        <pt x="-707" y="1231" on="1"/>
        <pt x="-885" y="1231" on="0"/>
        <pt x="-1108" y="1391" on="0"/>
        <pt x="-1120" y="1520" on="1"/>
        <pt x="-934" y="1520" on="1"/>
        <pt x="-926" y="1476" on="0"/>
        <pt x="-798" y="1415" on="0"/>
        <pt x="-711" y="1415" on="1"/>
        <pt x="-617" y="1415" on="0"/>
        <pt x="-494" y="1467" on="0"/>
        <pt x="-487" y="1520" on="1"/>
        <pt x="-311" y="1520" on="1"/>
        <pt x="-315" y="1380" on="0"/>
        <pt x="-518" y="1231" on="0"/>
      </contour>
      <contour>
        <pt x="-551" y="1552" on="1"/>
        <pt x="-599" y="1552" on="0"/>
        <pt x="-701" y="1587" on="1"/>
        <pt x="-803" y="1622" on="0"/>
        <pt x="-838" y="1622" on="1"/>
        <pt x="-887" y="1622" on="0"/>
        <pt x="-922" y="1591" on="0"/>
        <pt x="-934" y="1550" on="1"/>
        <pt x="-1059" y="1550" on="1"/>
        <pt x="-1050" y="1673" on="0"/>
        <pt x="-942" y="1806" on="0"/>
        <pt x="-854" y="1806" on="1"/>
        <pt x="-817" y="1806" on="0"/>
        <pt x="-737" y="1783" on="0"/>
        <pt x="-662" y="1756" on="0"/>
        <pt x="-595" y="1733" on="0"/>
        <pt x="-569" y="1733" on="1"/>
        <pt x="-522" y="1733" on="0"/>
        <pt x="-485" y="1766" on="0"/>
        <pt x="-471" y="1808" on="1"/>
        <pt x="-344" y="1808" on="1"/>
        <pt x="-356" y="1685" on="0"/>
        <pt x="-468" y="1552" on="0"/>
      </contour>
    </TTGlyph>
    <TTGlyph name="brokenbar" xMin="387" yMin="-446" xMax="655" yMax="1556">
      <contour>
        <pt x="387" y="1556" on="1"/>
        <pt x="655" y="1556" on="1"/>
        <pt x="655" y="717" on="1"/>
        <pt x="387" y="717" on="1"/>
      </contour>
      <contour>
        <pt x="387" y="393" on="1"/>
        <pt x="655" y="393" on="1"/>
        <pt x="655" y="-446" on="1"/>
        <pt x="387" y="-446" on="1"/>
      </contour>
    </TTGlyph>
    <TTGlyph name="bullet" xMin="74" yMin="387" xMax="729" yMax="1133">
      <contour>
        <pt x="74" y="748" on="1"/>
        <pt x="74" y="922" on="0"/>
        <pt x="243" y="1108" on="0"/>
        <pt x="401" y="1108" on="1"/>
        <pt x="559" y="1108" on="0"/>
        <pt x="729" y="919" on="0"/>
        <pt x="729" y="748" on="1"/>
        <pt x="729" y="576" on="0"/>
        <pt x="555" y="387" on="0"/>
        <pt x="401" y="387" on="1"/>
        <pt x="246" y="387" on="0"/>
        <pt x="74" y="573" on="0"/>
      </contour>
      <contour>
        <pt x="668" y="1133" on="1"/>
      </contour>
    </TTGlyph>
    <TTGlyph name="c" xMin="86" yMin="-20" xMax="1053" yMax="1153">
      <contour>
        <pt x="651" y="-20" on="1"/>
        <pt x="373" y="-20" on="0"/>
        <pt x="86" y="280" on="0"/>
        <pt x="86" y="561" on="1"/>
        <pt x="86" y="843" on="0"/>
        <pt x="396" y="1153" on="0"/>
        <pt x="682" y="1153" on="1"/>
        <pt x="879" y="1153" on="0"/>
        <pt x="1053" y="1067" on="1"/>
        <pt x="938" y="778" on="1"/>
        <pt x="867" y="809" on="0"/>
        <pt x="747" y="846" on="0"/>
        <pt x="682" y="846" on="1"/>
        <pt x="587" y="846" on="0"/>
        <pt x="483" y="698" on="0"/>
        <pt x="483" y="563" on="1"/>
        <pt x="483" y="291" on="0"/>
        <pt x="684" y="291" on="1"/>
        <pt x="856" y="291" on="0"/>
        <pt x="1014" y="391" on="1"/>
        <pt x="1014" y="80" on="1"/>
        <pt x="863" y="-20" on="0"/>
      </contour>
    </TTGlyph>
    <TTGlyph name="cacute" xMin="86" yMin="-20" xMax="1114" yMax="1569">
      <component glyphName="c" x="0" y="0" flags="0x204"/>
      <component glyphName="acute" x="158" y="0" flags="0x4"/>
    </TTGlyph>
    <TTGlyph name="caron" xMin="164" yMin="1241" xMax="1071" yMax="1569">
      <contour>
        <pt x="1071" y="1569" on="1"/>
        <pt x="1071" y="1540" on="1"/>
        <pt x="1005" y="1474" on="0"/>
        <pt x="859" y="1306" on="0"/>
        <pt x="815" y="1241" on="1"/>
        <pt x="422" y="1241" on="1"/>
        <pt x="383" y="1301" on="0"/>
        <pt x="240" y="1466" on="0"/>
        <pt x="164" y="1540" on="1"/>
        <pt x="164" y="1569" on="1"/>
        <pt x="422" y="1569" on="1"/>
        <pt x="491" y="1526" on="0"/>
        <pt x="616" y="1419" on="1"/>
        <pt x="733" y="1521" on="0"/>
        <pt x="817" y="1569" on="1"/>
      </contour>
    </TTGlyph>
    <TTGlyph name="caroncommaaccent" xMin="293" yMin="1229" xMax="705" yMax="1556">
      <contour>
        <pt x="293" y="1257" on="1"/>
        <pt x="336" y="1442" on="0"/>
        <pt x="350" y="1556" on="1"/>
        <pt x="705" y="1556" on="1"/>
        <pt x="705" y="1534" on="1"/>
        <pt x="561" y="1285" on="0"/>
        <pt x="526" y="1229" on="1"/>
        <pt x="293" y="1229" on="1"/>
      </contour>
    </TTGlyph>
    <TTGlyph name="ccaron" xMin="86" yMin="-20" xMax="1083" yMax="1569">
      <component glyphName="c" x="0" y="0" flags="0x204"/>
      <component glyphName="caron" x="12" y="0" flags="0x4"/>
    </TTGlyph>
    <TTGlyph name="ccedilla" xMin="86" yMin="-492" xMax="1053" yMax="1153">
      <component glyphName="c" x="0" y="0" flags="0x204"/>
      <component glyphName="cedilla" x="451" y="0" flags="0x4"/>
    </TTGlyph>
    <TTGlyph name="ccircumflex" xMin="86" yMin="-20" xMax="1073" yMax="1569">
      <component glyphName="c" x="0" y="0" flags="0x204"/>
      <component glyphName="circumflex" x="2" y="0" flags="0x4"/>
    </TTGlyph>
    <TTGlyph name="cdot" xMin="86" yMin="-20" xMax="1053" yMax="1589">
      <component glyphName="c" x="0" y="0" flags="0x204"/>
      <component glyphName="dotaccent" x="307" y="0" flags="0x4"/>
    </TTGlyph>
    <TTGlyph name="cedilla" xMin="-90" yMin="-492" xMax="397" yMax="0">
      <contour>
        <pt x="397" y="-252" on="1"/>
        <pt x="397" y="-361" on="0"/>
        <pt x="247" y="-492" on="0"/>
        <pt x="123" y="-492" on="1"/>
        <pt x="-13" y="-492" on="0"/>
        <pt x="-90" y="-463" on="1"/>
        <pt x="-90" y="-258" on="1"/>
        <pt x="-7" y="-285" on="0"/>
        <pt x="57" y="-285" on="1"/>
        <pt x="109" y="-285" on="0"/>
        <pt x="109" y="-238" on="1"/>
        <pt x="109" y="-205" on="0"/>
        <pt x="27" y="-154" on="0"/>
        <pt x="-39" y="-139" on="1"/>
        <pt x="33" y="0" on="1"/>
        <pt x="236" y="0" on="1"/>
        <pt x="227" y="-29" on="1"/>
        <pt x="323" y="-68" on="0"/>
        <pt x="397" y="-175" on="0"/>
      </contour>
    </TTGlyph>
    <TTGlyph name="cent" xMin="129" yMin="-20" xMax="1096" yMax="1483">
      <contour>
        <pt x="565" y="1483" on="1"/>
        <pt x="772" y="1483" on="1"/>
        <pt x="772" y="1329" on="1"/>
        <pt x="943" y="1320" on="0"/>
        <pt x="1096" y="1245" on="1"/>
        <pt x="981" y="956" on="1"/>
        <pt x="910" y="987" on="0"/>
        <pt x="790" y="1024" on="0"/>
        <pt x="725" y="1024" on="1"/>
        <pt x="630" y="1024" on="0"/>
        <pt x="526" y="876" on="0"/>
        <pt x="526" y="741" on="1"/>
        <pt x="526" y="469" on="0"/>
        <pt x="727" y="469" on="1"/>
        <pt x="899" y="469" on="0"/>
        <pt x="1057" y="569" on="1"/>
        <pt x="1057" y="258" on="1"/>
        <pt x="930" y="176" on="0"/>
        <pt x="772" y="160" on="1"/>
        <pt x="772" y="-20" on="1"/>
        <pt x="565" y="-20" on="1"/>
        <pt x="565" y="166" on="1"/>
        <pt x="353" y="197" on="0"/>
        <pt x="129" y="487" on="0"/>
        <pt x="129" y="739" on="1"/>
        <pt x="129" y="979" on="0"/>
        <pt x="355" y="1276" on="0"/>
        <pt x="565" y="1317" on="1"/>
      </contour>
    </TTGlyph>
    <TTGlyph name="chi" xMin="-53" yMin="-492" xMax="1303" yMax="1151">
      <contour>
        <pt x="272" y="1151" on="1"/>
        <pt x="432" y="1151" on="0"/>
        <pt x="604" y="1022" on="0"/>
        <pt x="666" y="860" on="1"/>
        <pt x="707" y="754" on="1"/>
        <pt x="895" y="1133" on="1"/>
        <pt x="1303" y="1133" on="1"/>
        <pt x="881" y="381" on="1"/>
        <pt x="1061" y="-74" on="1"/>
        <pt x="1104" y="-184" on="0"/>
        <pt x="1188" y="-184" on="1"/>
        <pt x="1242" y="-184" on="0"/>
        <pt x="1294" y="-170" on="1"/>
        <pt x="1294" y="-451" on="1"/>
        <pt x="1186" y="-492" on="0"/>
        <pt x="1053" y="-492" on="1"/>
        <pt x="919" y="-492" on="0"/>
        <pt x="751" y="-345" on="0"/>
        <pt x="702" y="-188" on="1"/>
        <pt x="629" y="35" on="1"/>
        <pt x="385" y="-492" on="1"/>
        <pt x="-53" y="-492" on="1"/>
        <pt x="455" y="408" on="1"/>
        <pt x="336" y="721" on="1"/>
        <pt x="288" y="844" on="0"/>
        <pt x="199" y="844" on="1"/>
        <pt x="138" y="844" on="0"/>
        <pt x="66" y="819" on="1"/>
        <pt x="66" y="1112" on="1"/>
        <pt x="171" y="1151" on="0"/>
      </contour>
    </TTGlyph>
    <TTGlyph name="circumflex" xMin="164" yMin="1241" xMax="1071" yMax="1569">
      <contour>
        <pt x="817" y="1241" on="1"/>
        <pt x="733" y="1289" on="0"/>
        <pt x="616" y="1391" on="1"/>
        <pt x="491" y="1284" on="0"/>
        <pt x="422" y="1241" on="1"/>
        <pt x="164" y="1241" on="1"/>
        <pt x="164" y="1270" on="1"/>
        <pt x="233" y="1335" on="0"/>
        <pt x="384" y="1511" on="0"/>
        <pt x="422" y="1569" on="1"/>
        <pt x="815" y="1569" on="1"/>
        <pt x="909" y="1432" on="0"/>
        <pt x="1071" y="1270" on="1"/>
        <pt x="1071" y="1241" on="1"/>
      </contour>
    </TTGlyph>
    <TTGlyph name="circumflexacutecomb" xMin="-1122" yMin="1241" xMax="43" yMax="1663">
      <contour>
        <pt x="-291" y="1241" on="1"/>
        <pt x="-496" y="1241" on="1"/>
        <pt x="-601" y="1311" on="0"/>
        <pt x="-707" y="1407" on="1"/>
        <pt x="-821" y="1306" on="0"/>
        <pt x="-918" y="1241" on="1"/>
        <pt x="-1122" y="1241" on="1"/>
        <pt x="-1122" y="1270" on="1"/>
        <pt x="-1028" y="1380" on="0"/>
        <pt x="-907" y="1563" on="1"/>
        <pt x="-506" y="1563" on="1"/>
        <pt x="-385" y="1380" on="0"/>
        <pt x="-291" y="1270" on="1"/>
      </contour>
      <contour>
        <pt x="-385" y="1464" on="1"/>
        <pt x="-297" y="1550" on="0"/>
        <pt x="-242" y="1663" on="1"/>
        <pt x="43" y="1663" on="1"/>
        <pt x="43" y="1642" on="1"/>
        <pt x="-18" y="1558" on="0"/>
        <pt x="-199" y="1436" on="1"/>
        <pt x="-385" y="1436" on="1"/>
      </contour>
    </TTGlyph>
    <TTGlyph name="circumflexgravecomb" xMin="-1491" yMin="1241" xMax="-326" yMax="1663">
      <contour>
        <pt x="-326" y="1241" on="1"/>
        <pt x="-530" y="1241" on="1"/>
        <pt x="-627" y="1306" on="0"/>
        <pt x="-741" y="1407" on="1"/>
        <pt x="-847" y="1311" on="0"/>
        <pt x="-952" y="1241" on="1"/>
        <pt x="-1155" y="1241" on="1"/>
        <pt x="-1155" y="1270" on="1"/>
        <pt x="-1096" y="1339" on="0"/>
        <pt x="-942" y="1563" on="1"/>
        <pt x="-539" y="1563" on="1"/>
        <pt x="-425" y="1390" on="0"/>
        <pt x="-326" y="1270" on="1"/>
      </contour>
      <contour>
        <pt x="-1063" y="1436" on="1"/>
        <pt x="-1249" y="1436" on="1"/>
        <pt x="-1430" y="1558" on="0"/>
        <pt x="-1491" y="1642" on="1"/>
        <pt x="-1491" y="1663" on="1"/>
        <pt x="-1206" y="1663" on="1"/>
        <pt x="-1151" y="1550" on="0"/>
        <pt x="-1063" y="1464" on="1"/>
      </contour>
    </TTGlyph>
    <TTGlyph name="circumflexhookcomb" xMin="-1122" yMin="1241" xMax="-70" yMax="1784">
      <contour>
        <pt x="-291" y="1241" on="1"/>
        <pt x="-496" y="1241" on="1"/>
        <pt x="-601" y="1311" on="0"/>
        <pt x="-707" y="1407" on="1"/>
        <pt x="-821" y="1306" on="0"/>
        <pt x="-918" y="1241" on="1"/>
        <pt x="-1122" y="1241" on="1"/>
        <pt x="-1122" y="1270" on="1"/>
        <pt x="-1028" y="1380" on="0"/>
        <pt x="-907" y="1563" on="1"/>
        <pt x="-506" y="1563" on="1"/>
        <pt x="-385" y="1380" on="0"/>
        <pt x="-291" y="1270" on="1"/>
      </contour>
      <contour>
        <pt x="-70" y="1624" on="1"/>
        <pt x="-70" y="1505" on="0"/>
        <pt x="-195" y="1481" on="1"/>
        <pt x="-201" y="1432" on="1"/>
        <pt x="-356" y="1432" on="1"/>
        <pt x="-367" y="1540" on="1"/>
        <pt x="-246" y="1540" on="0"/>
        <pt x="-246" y="1589" on="1"/>
        <pt x="-246" y="1634" on="0"/>
        <pt x="-313" y="1634" on="1"/>
        <pt x="-349" y="1634" on="0"/>
        <pt x="-385" y="1622" on="1"/>
        <pt x="-385" y="1774" on="1"/>
        <pt x="-355" y="1784" on="0"/>
        <pt x="-285" y="1784" on="1"/>
        <pt x="-181" y="1784" on="0"/>
        <pt x="-70" y="1703" on="0"/>
      </contour>
    </TTGlyph>
    <TTGlyph name="circumflextildecomb" xMin="-1118" yMin="1241" xMax="-287" yMax="1808">
      <contour>
        <pt x="-551" y="1552" on="1"/>
        <pt x="-599" y="1552" on="0"/>
        <pt x="-701" y="1587" on="1"/>
        <pt x="-803" y="1622" on="0"/>
        <pt x="-838" y="1622" on="1"/>
        <pt x="-887" y="1622" on="0"/>
        <pt x="-922" y="1591" on="0"/>
        <pt x="-934" y="1550" on="1"/>
        <pt x="-1059" y="1550" on="1"/>
        <pt x="-1050" y="1673" on="0"/>
        <pt x="-942" y="1806" on="0"/>
        <pt x="-854" y="1806" on="1"/>
        <pt x="-817" y="1806" on="0"/>
        <pt x="-737" y="1783" on="0"/>
        <pt x="-662" y="1756" on="0"/>
        <pt x="-595" y="1733" on="0"/>
        <pt x="-569" y="1733" on="1"/>
        <pt x="-522" y="1733" on="0"/>
        <pt x="-485" y="1766" on="0"/>
        <pt x="-471" y="1808" on="1"/>
        <pt x="-344" y="1808" on="1"/>
        <pt x="-356" y="1685" on="0"/>
        <pt x="-468" y="1552" on="0"/>
      </contour>
      <contour>
        <pt x="-287" y="1241" on="1"/>
        <pt x="-459" y="1241" on="1"/>
        <pt x="-621" y="1296" on="0"/>
        <pt x="-702" y="1372" on="1"/>
        <pt x="-758" y="1324" on="0"/>
        <pt x="-883" y="1266" on="0"/>
        <pt x="-946" y="1241" on="1"/>
        <pt x="-1118" y="1241" on="1"/>
        <pt x="-1118" y="1270" on="1"/>
        <pt x="-1055" y="1325" on="1"/>
        <pt x="-925" y="1438" on="0"/>
        <pt x="-870" y="1518" on="1"/>
        <pt x="-535" y="1518" on="1"/>
        <pt x="-507" y="1478" on="0"/>
        <pt x="-422" y="1389" on="0"/>
        <pt x="-287" y="1270" on="1"/>
      </contour>
    </TTGlyph>
    <TTGlyph name="colon" xMin="86" yMin="-25" xMax="504" yMax="1147">
      <contour>
        <pt x="86" y="166" on="1"/>
        <pt x="86" y="258" on="0"/>
        <pt x="195" y="358" on="0"/>
        <pt x="299" y="358" on="1"/>
        <pt x="398" y="358" on="0"/>
        <pt x="504" y="258" on="0"/>
        <pt x="504" y="166" on="1"/>
        <pt x="504" y="76" on="0"/>
        <pt x="395" y="-25" on="0"/>
        <pt x="299" y="-25" on="1"/>
        <pt x="200" y="-25" on="0"/>
        <pt x="86" y="75" on="0"/>
      </contour>
      <contour>
        <pt x="86" y="956" on="1"/>
        <pt x="86" y="1047" on="0"/>
        <pt x="196" y="1147" on="0"/>
        <pt x="299" y="1147" on="1"/>
        <pt x="398" y="1147" on="0"/>
        <pt x="504" y="1047" on="0"/>
        <pt x="504" y="956" on="1"/>
        <pt x="504" y="866" on="0"/>
        <pt x="396" y="764" on="0"/>
        <pt x="299" y="764" on="1"/>
        <pt x="197" y="764" on="0"/>
        <pt x="86" y="866" on="0"/>
      </contour>
    </TTGlyph>
    <TTGlyph name="comma" xMin="57" yMin="-285" xMax="512" yMax="299">
      <contour>
        <pt x="498" y="299" on="1"/>
        <pt x="512" y="276" on="1"/>
        <pt x="415" y="-105" on="0"/>
        <pt x="336" y="-285" on="1"/>
        <pt x="57" y="-285" on="1"/>
        <pt x="86" y="-147" on="0"/>
        <pt x="145" y="196" on="0"/>
        <pt x="156" y="299" on="1"/>
      </contour>
    </TTGlyph>
    <TTGlyph name="commaaccent" xMin="305" yMin="-453" xMax="707" yMax="-125">
      <contour>
        <pt x="305" y="-424" on="1"/>
        <pt x="321" y="-368" on="0"/>
        <pt x="350" y="-188" on="0"/>
        <pt x="352" y="-125" on="1"/>
        <pt x="707" y="-125" on="1"/>
        <pt x="707" y="-147" on="1"/>
        <pt x="636" y="-312" on="0"/>
        <pt x="539" y="-453" on="1"/>
        <pt x="305" y="-453" on="1"/>
      </contour>
    </TTGlyph>
    <TTGlyph name="commaaccentrotate" xMin="272" yMin="1241" xMax="674" yMax="1569">
      <contour>
        <pt x="674" y="1540" on="1"/>
        <pt x="639" y="1356" on="0"/>
        <pt x="629" y="1241" on="1"/>
        <pt x="272" y="1241" on="1"/>
        <pt x="272" y="1264" on="1"/>
        <pt x="442" y="1569" on="1"/>
        <pt x="674" y="1569" on="1"/>
      </contour>
    </TTGlyph>
    <TTGlyph name="copyright" xMin="92" yMin="-20" xMax="1595" yMax="1483">
      <contour>
        <pt x="887" y="971" on="1"/>
        <pt x="806" y="971" on="0"/>
        <pt x="715" y="849" on="0"/>
        <pt x="715" y="731" on="1"/>
        <pt x="715" y="603" on="0"/>
        <pt x="802" y="489" on="0"/>
        <pt x="893" y="489" on="1"/>
        <pt x="1031" y="489" on="0"/>
        <pt x="1151" y="557" on="1"/>
        <pt x="1151" y="326" on="1"/>
        <pt x="1025" y="262" on="0"/>
        <pt x="879" y="262" on="1"/>
        <pt x="667" y="262" on="0"/>
        <pt x="434" y="510" on="0"/>
        <pt x="434" y="735" on="1"/>
        <pt x="434" y="952" on="0"/>
        <pt x="660" y="1198" on="0"/>
        <pt x="868" y="1198" on="1"/>
        <pt x="1034" y="1198" on="0"/>
        <pt x="1190" y="1120" on="1"/>
        <pt x="1098" y="915" on="1"/>
        <pt x="992" y="971" on="0"/>
      </contour>
      <contour>
        <pt x="92" y="731" on="1"/>
        <pt x="92" y="931" on="0"/>
        <pt x="292" y="1281" on="0"/>
        <pt x="642" y="1483" on="0"/>
        <pt x="844" y="1483" on="1"/>
        <pt x="1041" y="1483" on="0"/>
        <pt x="1387" y="1289" on="0"/>
        <pt x="1595" y="939" on="0"/>
        <pt x="1595" y="731" on="1"/>
        <pt x="1595" y="527" on="0"/>
        <pt x="1394" y="182" on="0"/>
        <pt x="1049" y="-20" on="0"/>
        <pt x="844" y="-20" on="1"/>
        <pt x="637" y="-20" on="0"/>
        <pt x="287" y="187" on="0"/>
        <pt x="92" y="533" on="0"/>
      </contour>
      <contour>
        <pt x="256" y="731" on="1"/>
        <pt x="256" y="573" on="0"/>
        <pt x="415" y="298" on="0"/>
        <pt x="687" y="143" on="0"/>
        <pt x="844" y="143" on="1"/>
        <pt x="1002" y="143" on="0"/>
        <pt x="1274" y="300" on="0"/>
        <pt x="1432" y="573" on="0"/>
        <pt x="1432" y="731" on="1"/>
        <pt x="1432" y="888" on="0"/>
        <pt x="1277" y="1160" on="0"/>
        <pt x="1004" y="1319" on="0"/>
        <pt x="844" y="1319" on="1"/>
        <pt x="686" y="1319" on="0"/>
        <pt x="413" y="1162" on="0"/>
        <pt x="256" y="889" on="0"/>
      </contour>
    </TTGlyph>
    <TTGlyph name="currency" xMin="96" yMin="250" xMax="1053" yMax="1200">
      <contour>
        <pt x="180" y="723" on="1"/>
        <pt x="180" y="812" on="0"/>
        <pt x="221" y="899" on="1"/>
        <pt x="96" y="1018" on="1"/>
        <pt x="276" y="1200" on="1"/>
        <pt x="399" y="1077" on="1"/>
        <pt x="483" y="1118" on="0"/>
        <pt x="571" y="1118" on="1"/>
        <pt x="662" y="1118" on="0"/>
        <pt x="748" y="1073" on="1"/>
        <pt x="868" y="1200" on="1"/>
        <pt x="1053" y="1026" on="1"/>
        <pt x="926" y="901" on="1"/>
        <pt x="967" y="825" on="0"/>
        <pt x="967" y="723" on="1"/>
        <pt x="967" y="629" on="0"/>
        <pt x="926" y="547" on="1"/>
        <pt x="1047" y="428" on="1"/>
        <pt x="868" y="250" on="1"/>
        <pt x="748" y="369" on="1"/>
        <pt x="659" y="330" on="0"/>
        <pt x="571" y="330" on="1"/>
        <pt x="471" y="330" on="0"/>
        <pt x="395" y="367" on="1"/>
        <pt x="276" y="252" on="1"/>
        <pt x="98" y="430" on="1"/>
        <pt x="221" y="549" on="1"/>
        <pt x="180" y="631" on="0"/>
      </contour>
      <contour>
        <pt x="436" y="723" on="1"/>
        <pt x="436" y="667" on="0"/>
        <pt x="517" y="588" on="0"/>
        <pt x="571" y="588" on="1"/>
        <pt x="629" y="588" on="0"/>
        <pt x="713" y="665" on="0"/>
        <pt x="713" y="723" on="1"/>
        <pt x="713" y="781" on="0"/>
        <pt x="629" y="860" on="0"/>
        <pt x="571" y="860" on="1"/>
        <pt x="515" y="860" on="0"/>
        <pt x="436" y="779" on="0"/>
      </contour>
    </TTGlyph>
    <TTGlyph name="cyrillicbighookLC" xMin="12" yMin="-559" xMax="668" yMax="272">
      <contour>
        <pt x="238" y="-559" on="1"/>
        <pt x="96" y="-559" on="0"/>
        <pt x="12" y="-535" on="1"/>
        <pt x="12" y="-231" on="1"/>
        <pt x="75" y="-250" on="0"/>
        <pt x="139" y="-250" on="1"/>
        <pt x="213" y="-250" on="0"/>
        <pt x="281" y="-143" on="0"/>
        <pt x="281" y="-37" on="1"/>
        <pt x="281" y="272" on="1"/>
        <pt x="668" y="272" on="1"/>
        <pt x="668" y="-119" on="1"/>
        <pt x="668" y="-324" on="0"/>
        <pt x="440" y="-559" on="0"/>
      </contour>
    </TTGlyph>
    <TTGlyph name="cyrillicbighookUC" xMin="12" yMin="-559" xMax="668" yMax="336">
      <contour>
        <pt x="238" y="-559" on="1"/>
        <pt x="96" y="-559" on="0"/>
        <pt x="12" y="-535" on="1"/>
        <pt x="12" y="-231" on="1"/>
        <pt x="75" y="-250" on="0"/>
        <pt x="139" y="-250" on="1"/>
        <pt x="213" y="-250" on="0"/>
        <pt x="281" y="-143" on="0"/>
        <pt x="281" y="-37" on="1"/>
        <pt x="281" y="336" on="1"/>
        <pt x="668" y="336" on="1"/>
        <pt x="668" y="-119" on="1"/>
        <pt x="668" y="-324" on="0"/>
        <pt x="440" y="-559" on="0"/>
      </contour>
    </TTGlyph>
    <TTGlyph name="cyrillicbreve" xMin="96" yMin="1241" xMax="1081" yMax="1622">
      <contour>
        <pt x="586" y="1241" on="1"/>
        <pt x="347" y="1241" on="0"/>
        <pt x="110" y="1427" on="0"/>
        <pt x="96" y="1622" on="1"/>
        <pt x="422" y="1622" on="1"/>
        <pt x="427" y="1524" on="0"/>
        <pt x="503" y="1436" on="0"/>
        <pt x="586" y="1436" on="1"/>
        <pt x="736" y="1436" on="0"/>
        <pt x="750" y="1622" on="1"/>
        <pt x="1081" y="1622" on="1"/>
        <pt x="1040" y="1241" on="0"/>
      </contour>
    </TTGlyph>
    <TTGlyph name="cyrillichookleft" xMin="-6" yMin="-492" xMax="444" yMax="0">
      <contour>
        <pt x="190" y="-199" on="1"/>
        <pt x="190" y="-158" on="0"/>
        <pt x="137" y="-76" on="0"/>
        <pt x="57" y="0" on="1"/>
        <pt x="270" y="0" on="1"/>
        <pt x="364" y="-66" on="0"/>
        <pt x="444" y="-191" on="0"/>
        <pt x="444" y="-260" on="1"/>
        <pt x="444" y="-365" on="0"/>
        <pt x="288" y="-492" on="0"/>
        <pt x="168" y="-492" on="1"/>
        <pt x="77" y="-492" on="0"/>
        <pt x="-6" y="-465" on="1"/>
        <pt x="-6" y="-244" on="1"/>
        <pt x="14" y="-253" on="0"/>
        <pt x="85" y="-266" on="0"/>
        <pt x="113" y="-266" on="1"/>
        <pt x="190" y="-266" on="0"/>
      </contour>
    </TTGlyph>
    <TTGlyph name="d" xMin="86" yMin="-20" xMax="1182" yMax="1556">
      <contour>
        <pt x="487" y="-20" on="1"/>
        <pt x="366" y="-20" on="0"/>
        <pt x="185" y="118" on="0"/>
        <pt x="86" y="386" on="0"/>
        <pt x="86" y="565" on="1"/>
        <pt x="86" y="841" on="0"/>
        <pt x="308" y="1153" on="0"/>
        <pt x="502" y="1153" on="1"/>
        <pt x="597" y="1153" on="0"/>
        <pt x="740" y="1077" on="0"/>
        <pt x="799" y="987" on="1"/>
        <pt x="807" y="987" on="1"/>
        <pt x="788" y="1120" on="0"/>
        <pt x="788" y="1253" on="1"/>
        <pt x="788" y="1556" on="1"/>
        <pt x="1182" y="1556" on="1"/>
        <pt x="1182" y="0" on="1"/>
        <pt x="887" y="0" on="1"/>
        <pt x="803" y="143" on="1"/>
        <pt x="788" y="143" on="1"/>
        <pt x="687" y="-20" on="0"/>
      </contour>
      <contour>
        <pt x="647" y="289" on="1"/>
        <pt x="741" y="289" on="0"/>
        <pt x="818" y="407" on="0"/>
        <pt x="821" y="530" on="1"/>
        <pt x="821" y="561" on="1"/>
        <pt x="821" y="711" on="0"/>
        <pt x="735" y="838" on="0"/>
        <pt x="643" y="838" on="1"/>
        <pt x="566" y="838" on="0"/>
        <pt x="481" y="693" on="0"/>
        <pt x="481" y="559" on="1"/>
        <pt x="481" y="427" on="0"/>
        <pt x="567" y="289" on="0"/>
      </contour>
    </TTGlyph>
    <TTGlyph name="dagger" xMin="111" yMin="0" xMax="940" yMax="1556">
      <contour>
        <pt x="940" y="883" on="1"/>
        <pt x="621" y="913" on="1"/>
        <pt x="680" y="0" on="1"/>
        <pt x="350" y="0" on="1"/>
        <pt x="410" y="913" on="1"/>
        <pt x="111" y="883" on="1"/>
        <pt x="111" y="1169" on="1"/>
        <pt x="410" y="1139" on="1"/>
        <pt x="350" y="1556" on="1"/>
        <pt x="680" y="1556" on="1"/>
        <pt x="621" y="1139" on="1"/>
        <pt x="940" y="1169" on="1"/>
      </contour>
    </TTGlyph>
    <TTGlyph name="daggerdbl" xMin="111" yMin="0" xMax="963" yMax="1556">
      <contour>
        <pt x="643" y="600" on="1"/>
        <pt x="963" y="631" on="1"/>
        <pt x="963" y="344" on="1"/>
        <pt x="643" y="375" on="1"/>
        <pt x="702" y="0" on="1"/>
        <pt x="375" y="0" on="1"/>
        <pt x="434" y="375" on="1"/>
        <pt x="111" y="344" on="1"/>
        <pt x="111" y="631" on="1"/>
        <pt x="434" y="600" on="1"/>
        <pt x="383" y="786" on="1"/>
        <pt x="434" y="956" on="1"/>
        <pt x="111" y="926" on="1"/>
        <pt x="111" y="1212" on="1"/>
        <pt x="434" y="1182" on="1"/>
        <pt x="375" y="1556" on="1"/>
        <pt x="702" y="1556" on="1"/>
        <pt x="643" y="1182" on="1"/>
        <pt x="963" y="1212" on="1"/>
        <pt x="963" y="926" on="1"/>
        <pt x="643" y="956" on="1"/>
        <pt x="692" y="786" on="1"/>
      </contour>
    </TTGlyph>
    <TTGlyph name="dasiaoxia" xMin="92" yMin="1118" xMax="827" yMax="1481">
      <contour>
        <pt x="92" y="1274" on="1"/>
        <pt x="92" y="1465" on="0"/>
        <pt x="418" y="1481" on="1"/>
        <pt x="418" y="1378" on="1"/>
        <pt x="334" y="1370" on="0"/>
        <pt x="272" y="1345" on="0"/>
        <pt x="272" y="1321" on="1"/>
        <pt x="272" y="1302" on="0"/>
        <pt x="299" y="1291" on="0"/>
        <pt x="324" y="1288" on="1"/>
        <pt x="395" y="1278" on="0"/>
        <pt x="395" y="1214" on="1"/>
        <pt x="395" y="1171" on="0"/>
        <pt x="316" y="1118" on="0"/>
        <pt x="244" y="1118" on="1"/>
        <pt x="176" y="1118" on="0"/>
        <pt x="92" y="1201" on="0"/>
      </contour>
      <contour>
        <pt x="449" y="1165" on="1"/>
        <pt x="496" y="1328" on="0"/>
        <pt x="520" y="1466" on="1"/>
        <pt x="827" y="1466" on="1"/>
        <pt x="827" y="1446" on="1"/>
        <pt x="775" y="1325" on="0"/>
        <pt x="623" y="1139" on="1"/>
        <pt x="449" y="1139" on="1"/>
      </contour>
    </TTGlyph>
    <TTGlyph name="dcaron" xMin="86" yMin="-20" xMax="1678" yMax="1556">
      <component glyphName="d" x="0" y="0" flags="0x204"/>
      <component glyphName="caroncommaaccent" x="973" y="0" flags="0x4"/>
    </TTGlyph>
    <TTGlyph name="dcroat" xMin="86" yMin="-20" xMax="1337" yMax="1556">
      <contour>
        <pt x="471" y="-20" on="1"/>
        <pt x="293" y="-20" on="0"/>
        <pt x="86" y="269" on="0"/>
        <pt x="86" y="514" on="1"/>
        <pt x="86" y="770" on="0"/>
        <pt x="308" y="1053" on="0"/>
        <pt x="508" y="1053" on="1"/>
        <pt x="705" y="1053" on="0"/>
        <pt x="811" y="889" on="1"/>
        <pt x="819" y="889" on="1"/>
        <pt x="807" y="936" on="0"/>
        <pt x="788" y="1084" on="0"/>
        <pt x="788" y="1157" on="1"/>
        <pt x="788" y="1167" on="1"/>
        <pt x="557" y="1167" on="1"/>
        <pt x="557" y="1409" on="1"/>
        <pt x="788" y="1409" on="1"/>
        <pt x="788" y="1556" on="1"/>
        <pt x="1182" y="1556" on="1"/>
        <pt x="1182" y="1409" on="1"/>
        <pt x="1337" y="1409" on="1"/>
        <pt x="1337" y="1167" on="1"/>
        <pt x="1182" y="1167" on="1"/>
        <pt x="1182" y="0" on="1"/>
        <pt x="862" y="0" on="1"/>
        <pt x="774" y="143" on="1"/>
        <pt x="760" y="143" on="1"/>
        <pt x="655" y="-20" on="0"/>
      </contour>
      <contour>
        <pt x="668" y="289" on="1"/>
        <pt x="752" y="289" on="0"/>
        <pt x="818" y="387" on="0"/>
        <pt x="821" y="487" on="1"/>
        <pt x="821" y="512" on="1"/>
        <pt x="821" y="621" on="0"/>
        <pt x="734" y="737" on="0"/>
        <pt x="662" y="737" on="1"/>
        <pt x="518" y="737" on="0"/>
        <pt x="518" y="510" on="1"/>
        <pt x="518" y="407" on="0"/>
        <pt x="600" y="289" on="0"/>
      </contour>
    </TTGlyph>
    <TTGlyph name="degree" xMin="63" yMin="750" xMax="801" yMax="1483">
      <contour>
        <pt x="63" y="1114" on="1"/>
        <pt x="63" y="1211" on="0"/>
        <pt x="161" y="1382" on="0"/>
        <pt x="333" y="1483" on="0"/>
        <pt x="432" y="1483" on="1"/>
        <pt x="531" y="1483" on="0"/>
        <pt x="703" y="1382" on="0"/>
        <pt x="801" y="1212" on="0"/>
        <pt x="801" y="1114" on="1"/>
        <pt x="801" y="1017" on="0"/>
        <pt x="704" y="849" on="0"/>
        <pt x="533" y="750" on="0"/>
        <pt x="432" y="750" on="1"/>
        <pt x="333" y="750" on="0"/>
        <pt x="161" y="848" on="0"/>
        <pt x="63" y="1016" on="0"/>
      </contour>
      <contour>
        <pt x="301" y="1114" on="1"/>
        <pt x="301" y="1064" on="0"/>
        <pt x="378" y="987" on="0"/>
        <pt x="432" y="987" on="1"/>
        <pt x="486" y="987" on="0"/>
        <pt x="563" y="1065" on="0"/>
        <pt x="563" y="1114" on="1"/>
        <pt x="563" y="1166" on="0"/>
        <pt x="488" y="1247" on="0"/>
        <pt x="432" y="1247" on="1"/>
        <pt x="376" y="1247" on="0"/>
        <pt x="301" y="1166" on="0"/>
      </contour>
    </TTGlyph>
    <TTGlyph name="delta" xMin="86" yMin="-20" xMax="1219" yMax="1575">
      <contour>
        <pt x="446" y="899" on="1"/>
        <pt x="229" y="1040" on="0"/>
        <pt x="229" y="1251" on="1"/>
        <pt x="229" y="1407" on="0"/>
        <pt x="480" y="1575" on="0"/>
        <pt x="717" y="1575" on="1"/>
        <pt x="981" y="1575" on="0"/>
        <pt x="1219" y="1460" on="1"/>
        <pt x="1073" y="1178" on="1"/>
        <pt x="861" y="1284" on="0"/>
        <pt x="723" y="1284" on="1"/>
        <pt x="602" y="1284" on="0"/>
        <pt x="602" y="1219" on="1"/>
        <pt x="602" y="1187" on="0"/>
        <pt x="679" y="1123" on="0"/>
        <pt x="864" y="1020" on="1"/>
        <pt x="1045" y="920" on="0"/>
        <pt x="1217" y="661" on="0"/>
        <pt x="1217" y="479" on="1"/>
        <pt x="1217" y="239" on="0"/>
        <pt x="916" y="-20" on="0"/>
        <pt x="645" y="-20" on="1"/>
        <pt x="392" y="-20" on="0"/>
        <pt x="86" y="228" on="0"/>
        <pt x="86" y="438" on="1"/>
        <pt x="86" y="780" on="0"/>
      </contour>
      <contour>
        <pt x="819" y="481" on="1"/>
        <pt x="819" y="633" on="0"/>
        <pt x="655" y="750" on="1"/>
        <pt x="580" y="725" on="0"/>
        <pt x="483" y="564" on="0"/>
        <pt x="483" y="461" on="1"/>
        <pt x="483" y="374" on="0"/>
        <pt x="573" y="270" on="0"/>
        <pt x="649" y="270" on="1"/>
        <pt x="728" y="270" on="0"/>
        <pt x="819" y="381" on="0"/>
      </contour>
    </TTGlyph>
    <TTGlyph name="dieresis" xMin="223" yMin="1257" xMax="1047" yMax="1571">
      <contour>
        <pt x="223" y="1413" on="1"/>
        <pt x="223" y="1488" on="0"/>
        <pt x="315" y="1571" on="0"/>
        <pt x="393" y="1571" on="1"/>
        <pt x="472" y="1571" on="0"/>
        <pt x="565" y="1486" on="0"/>
        <pt x="565" y="1413" on="1"/>
        <pt x="565" y="1342" on="0"/>
        <pt x="472" y="1257" on="0"/>
        <pt x="393" y="1257" on="1"/>
        <pt x="315" y="1257" on="0"/>
        <pt x="223" y="1339" on="0"/>
      </contour>
      <contour>
        <pt x="702" y="1413" on="1"/>
        <pt x="702" y="1488" on="0"/>
        <pt x="794" y="1571" on="0"/>
        <pt x="874" y="1571" on="1"/>
        <pt x="954" y="1571" on="0"/>
        <pt x="1047" y="1485" on="0"/>
        <pt x="1047" y="1413" on="1"/>
        <pt x="1047" y="1342" on="0"/>
        <pt x="954" y="1257" on="0"/>
        <pt x="874" y="1257" on="1"/>
        <pt x="793" y="1257" on="0"/>
        <pt x="702" y="1340" on="0"/>
      </contour>
    </TTGlyph>
</ttFont>
